<svg width="119" height="81" viewBox="0 0 119 81" fill="none" xmlns="http://www.w3.org/2000/svg">
<g filter="url(#filter0_d_1051_135)">
<rect x="4" width="111" height="73" rx="7" fill="white"/>
</g>
<path d="M32.4016 19C32.4431 19.718 32.4016 20.424 32.1936 21.118C31.5994 23.1044 30.4229 24.5882 28.4739 25.378C27.8856 25.6173 27.2677 25.719 26.62 25.6652C26.5487 25.2583 26.5665 24.8515 26.6319 24.4566C27.0538 21.836 29.0087 19.724 31.5637 19.1197C31.7598 19.0718 31.9618 19.0419 32.1579 19C32.2471 19 32.3243 19 32.4016 19Z" fill="black"/>
<path d="M37.6483 28.8544C35.5686 30.2963 34.3862 32.2049 34.5526 34.7836C34.7189 37.3624 36.1094 39.1094 38.3673 40.2582C38.3317 40.3778 38.2901 40.5095 38.2485 40.6351C37.4938 42.807 36.3054 44.7216 34.7962 46.4387C34.2614 47.049 33.6256 47.5336 32.8294 47.761C31.9024 48.0243 31.0171 47.8687 30.1436 47.5097C29.6326 47.3003 29.1216 47.067 28.5868 46.9174C27.3509 46.5763 26.1446 46.7319 24.9622 47.2225C24.469 47.426 23.9758 47.6354 23.4708 47.7849C22.2467 48.1439 21.1831 47.8029 20.2443 46.9772C19.5609 46.3789 19.0083 45.6609 18.4735 44.931C16.9167 42.789 15.8828 40.4197 15.3421 37.829C14.9678 36.0341 14.8608 34.2212 15.2233 32.4143C15.6155 30.4937 16.477 28.8424 18.022 27.6039C19.2579 26.6167 20.6661 26.1081 22.2467 26.1021C23.0192 26.1021 23.7441 26.3235 24.4571 26.5868C24.9978 26.7902 25.5386 26.9996 26.0793 27.197C26.5903 27.3885 27.1072 27.3885 27.6242 27.197C28.3551 26.9278 29.0859 26.6466 29.8227 26.3893C30.5655 26.1321 31.332 25.9585 32.1223 25.9885C34.0534 26.0603 35.7588 26.6885 37.0898 28.1603C37.2918 28.3817 37.4641 28.621 37.6483 28.8544Z" fill="black"/>
<path d="M50.1384 38.5827C50.1384 41.6282 50.1384 44.6496 50.1384 47.6831C48.7658 47.6831 47.4111 47.6831 46.0385 47.6831C46.0385 38.8101 46.0385 29.9371 46.0385 21.0462C46.0979 21.0462 46.1573 21.0403 46.2167 21.0403C49.4907 21.0403 52.7588 21.0343 56.0329 21.0403C57.7976 21.0462 59.4614 21.4531 60.9588 22.4224C62.6404 23.5113 63.7456 25.043 64.2922 26.9695C64.9161 29.1773 64.8567 31.3791 63.9654 33.5031C62.9018 36.0339 60.9766 37.5836 58.3502 38.2716C57.5302 38.487 56.6924 38.5768 55.8427 38.5768C54.0185 38.5768 52.1943 38.5768 50.3642 38.5768C50.2989 38.5827 50.2276 38.5827 50.1384 38.5827ZM50.1444 35.1006C50.2097 35.1066 50.2513 35.1125 50.2989 35.1125C51.8319 35.1125 53.359 35.1125 54.892 35.1125C55.5872 35.1125 56.2705 35.0407 56.942 34.8553C58.582 34.3946 59.7288 33.3894 60.2279 31.7261C60.5844 30.5235 60.5904 29.3029 60.2814 28.0943C59.9011 26.6165 58.9979 25.5814 57.5897 25.0011C56.7697 24.666 55.9081 24.5344 55.0287 24.5284C53.4422 24.5164 51.8557 24.5224 50.2632 24.5224C50.2275 24.5224 50.186 24.5344 50.1444 24.5404C50.1444 28.0584 50.1444 31.5705 50.1444 35.1006Z" fill="black"/>
<path d="M78.2915 44.4939C78.2677 44.5238 78.2321 44.5537 78.2142 44.5896C77.2754 46.241 75.8315 47.2222 74.0251 47.6709C72.2544 48.1077 70.5015 47.9881 68.8497 47.1863C66.7521 46.1692 65.7182 44.446 65.7123 42.1066C65.7063 40.8502 66.0688 39.7254 66.9126 38.78C67.5662 38.0441 68.3921 37.5655 69.2953 37.2184C70.4421 36.7817 71.6424 36.5783 72.8605 36.5005C74.5956 36.3868 76.3366 36.2911 78.0716 36.1834C78.1073 36.1834 78.137 36.1774 78.1667 36.1714C78.1786 36.1535 78.1905 36.1475 78.1905 36.1355C78.1726 35.4295 78.2142 34.7175 78.131 34.0175C77.9825 32.8029 77.2694 32.0012 76.1167 31.6302C74.8451 31.2174 73.5557 31.2054 72.3079 31.7379C71.3037 32.1627 70.6323 32.9046 70.3886 33.9995C70.3827 34.0175 70.3767 34.0294 70.3649 34.0594C69.1408 34.0594 67.9168 34.0594 66.6749 34.0594C66.6868 33.4969 66.7878 32.9585 66.9779 32.4379C67.5068 30.9721 68.5169 29.931 69.8539 29.1951C71.274 28.4113 72.813 28.1062 74.4173 28.1121C75.7186 28.1121 76.9961 28.2916 78.2083 28.7823C79.676 29.3686 80.8465 30.302 81.5596 31.7559C81.9755 32.6114 82.1478 33.5209 82.1478 34.4722C82.1478 38.8339 82.1478 43.1896 82.1478 47.5513C82.1478 47.5991 82.1419 47.641 82.1419 47.7009C80.8822 47.7009 79.6284 47.7009 78.3449 47.7009C78.3449 46.6478 78.3449 45.5888 78.3449 44.5358C78.3271 44.5059 78.3093 44.4999 78.2915 44.4939ZM78.1964 38.9655C78.1192 38.9655 78.0657 38.9655 78.0181 38.9655C76.4495 39.0672 74.8867 39.163 73.318 39.2707C72.6228 39.3185 71.9395 39.4561 71.2918 39.7433C70.0381 40.3057 69.4676 41.4126 69.7885 42.681C70.0083 43.5426 70.5907 44.0871 71.3869 44.3922C72.7357 44.9067 74.1024 44.8529 75.4393 44.3384C76.6158 43.8836 77.4774 43.0879 77.9409 41.8853C78.3093 40.9399 78.1607 39.9527 78.1964 38.9655Z" fill="black"/>
<path d="M85.6833 54.8447C85.6833 53.7797 85.6833 52.7266 85.6833 51.6617C85.9863 51.6796 86.2775 51.7095 86.5687 51.7035C87.0143 51.6916 87.4659 51.6856 87.9056 51.6078C88.7078 51.4642 89.3079 50.9975 89.7417 50.3095C90.0269 49.8607 90.2111 49.3641 90.3775 48.8556C90.4785 48.5385 90.5854 48.2273 90.6746 47.9102C90.6983 47.8205 90.6983 47.7068 90.6686 47.6171C89.1296 43.3212 87.5907 39.0253 86.0458 34.7294C85.3089 32.6713 84.5662 30.6131 83.8294 28.5609C83.8116 28.501 83.7878 28.4472 83.764 28.3634C83.8353 28.3574 83.8888 28.3514 83.9423 28.3514C85.2555 28.3514 86.5746 28.3514 87.8878 28.3455C88.0185 28.3455 88.072 28.3814 88.1076 28.513C89.6823 33.6465 91.2569 38.774 92.8374 43.9075C92.8553 43.9734 92.885 44.0392 92.9087 44.105C92.9266 44.105 92.9385 44.111 92.9563 44.111C92.9801 44.0571 93.0157 44.0033 93.0335 43.9434C93.8357 41.3348 94.6438 38.7202 95.446 36.1115C96.2244 33.5867 96.9968 31.0618 97.7693 28.5369C97.8109 28.3933 97.8762 28.3455 98.0248 28.3455C99.2786 28.3514 100.532 28.3514 101.786 28.3514C101.845 28.3514 101.911 28.3514 102 28.3514C101.982 28.4173 101.97 28.4711 101.952 28.525C99.5162 35.3936 97.086 42.2682 94.6438 49.1368C94.2279 50.3095 93.7109 51.4343 92.9741 52.4514C91.9996 53.7916 90.6924 54.5635 89.0643 54.8148C88.0066 54.9823 86.943 54.9763 85.8794 54.8806C85.8081 54.8746 85.7487 54.8566 85.6833 54.8447Z" fill="black"/>
<defs>
<filter id="filter0_d_1051_135" x="0" y="0" width="119" height="81" filterUnits="userSpaceOnUse" color-interpolation-filters="sRGB">
<feFlood flood-opacity="0" result="BackgroundImageFix"/>
<feColorMatrix in="SourceAlpha" type="matrix" values="0 0 0 0 0 0 0 0 0 0 0 0 0 0 0 0 0 0 127 0" result="hardAlpha"/>
<feOffset dy="4"/>
<feGaussianBlur stdDeviation="2"/>
<feComposite in2="hardAlpha" operator="out"/>
<feColorMatrix type="matrix" values="0 0 0 0 0 0 0 0 0 0 0 0 0 0 0 0 0 0 0.25 0"/>
<feBlend mode="normal" in2="BackgroundImageFix" result="effect1_dropShadow_1051_135"/>
<feBlend mode="normal" in="SourceGraphic" in2="effect1_dropShadow_1051_135" result="shape"/>
</filter>
</defs>
</svg>
