<svg width="339" height="113" viewBox="0 0 339 113" fill="none" xmlns="http://www.w3.org/2000/svg">
<g filter="url(#filter0_d_108_2554)">
<rect x="4" width="331" height="105" rx="14" fill="white"/>
</g>
<path d="M116.61 42V25.44H121.636C121.812 25.44 122.111 25.4438 122.533 25.4515C122.962 25.4592 123.372 25.4898 123.763 25.5435C125.02 25.7198 126.071 26.1875 126.914 26.9465C127.757 27.7055 128.39 28.6715 128.812 29.8445C129.233 31.0175 129.444 32.3093 129.444 33.72C129.444 35.1307 129.233 36.4225 128.812 37.5955C128.39 38.7685 127.757 39.7345 126.914 40.4935C126.071 41.2525 125.02 41.7202 123.763 41.8965C123.38 41.9425 122.97 41.9732 122.533 41.9885C122.096 41.9962 121.797 42 121.636 42H116.61ZM118.358 40.3785H121.636C121.95 40.3785 122.287 40.3708 122.648 40.3555C123.016 40.3325 123.33 40.2942 123.591 40.2405C124.557 40.0718 125.335 39.6808 125.925 39.0675C126.523 38.4542 126.96 37.6875 127.236 36.7675C127.512 35.8398 127.65 34.824 127.65 33.72C127.65 32.6083 127.512 31.5887 127.236 30.661C126.96 29.7333 126.523 28.9667 125.925 28.361C125.327 27.7553 124.549 27.3682 123.591 27.1995C123.33 27.1458 123.012 27.1113 122.636 27.096C122.268 27.073 121.935 27.0615 121.636 27.0615H118.358V40.3785ZM137.25 42.345C136.015 42.345 134.961 42.0652 134.087 41.5055C133.213 40.9458 132.542 40.1715 132.075 39.1825C131.607 38.1935 131.373 37.0588 131.373 35.7785C131.373 34.4752 131.611 33.3328 132.086 32.3515C132.561 31.3702 133.236 30.6073 134.11 30.063C134.992 29.511 136.038 29.235 137.25 29.235C138.492 29.235 139.55 29.5148 140.424 30.0745C141.305 30.6265 141.976 31.397 142.436 32.386C142.904 33.3673 143.138 34.4982 143.138 35.7785C143.138 37.0818 142.904 38.228 142.436 39.217C141.968 40.1983 141.294 40.965 140.412 41.517C139.53 42.069 138.476 42.345 137.25 42.345ZM137.25 40.7235C138.63 40.7235 139.657 40.2673 140.332 39.355C141.006 38.435 141.344 37.2428 141.344 35.7785C141.344 34.2758 141.002 33.0798 140.32 32.1905C139.645 31.3012 138.622 30.8565 137.25 30.8565C136.322 30.8565 135.555 31.0673 134.95 31.489C134.352 31.903 133.903 32.4818 133.604 33.2255C133.313 33.9615 133.167 34.8125 133.167 35.7785C133.167 37.2735 133.512 38.4733 134.202 39.378C134.892 40.275 135.908 40.7235 137.25 40.7235ZM147.87 42L144.075 29.5685L145.766 29.58L148.71 39.2285L151.665 29.58H153.206L156.162 39.2285L159.129 29.58H160.808L157.013 42H155.541L152.436 32.11L149.342 42H147.87ZM171.85 42V35.6635C171.85 34.9735 171.784 34.341 171.654 33.766C171.524 33.1833 171.313 32.6773 171.022 32.248C170.738 31.811 170.366 31.4737 169.906 31.236C169.454 30.9983 168.902 30.8795 168.25 30.8795C167.652 30.8795 167.123 30.983 166.663 31.19C166.211 31.397 165.827 31.696 165.513 32.087C165.206 32.4703 164.973 32.938 164.812 33.49C164.651 34.042 164.57 34.6707 164.57 35.376L163.374 35.1115C163.374 33.8388 163.596 32.7693 164.041 31.903C164.486 31.0367 165.099 30.3812 165.881 29.9365C166.663 29.4918 167.56 29.2695 168.572 29.2695C169.316 29.2695 169.964 29.3845 170.516 29.6145C171.075 29.8445 171.547 30.155 171.93 30.546C172.321 30.937 172.635 31.3855 172.873 31.8915C173.111 32.3898 173.283 32.9227 173.391 33.49C173.498 34.0497 173.552 34.6093 173.552 35.169V42H171.85ZM162.868 42V29.58H164.398V32.639H164.57V42H162.868ZM176.766 42V25.095H178.456V42H176.766ZM187.09 42.345C185.856 42.345 184.802 42.0652 183.928 41.5055C183.054 40.9458 182.383 40.1715 181.915 39.1825C181.448 38.1935 181.214 37.0588 181.214 35.7785C181.214 34.4752 181.452 33.3328 181.927 32.3515C182.402 31.3702 183.077 30.6073 183.951 30.063C184.833 29.511 185.879 29.235 187.09 29.235C188.332 29.235 189.39 29.5148 190.264 30.0745C191.146 30.6265 191.817 31.397 192.277 32.386C192.745 33.3673 192.978 34.4982 192.978 35.7785C192.978 37.0818 192.745 38.228 192.277 39.217C191.809 40.1983 191.135 40.965 190.253 41.517C189.371 42.069 188.317 42.345 187.09 42.345ZM187.09 40.7235C188.47 40.7235 189.498 40.2673 190.172 39.355C190.847 38.435 191.184 37.2428 191.184 35.7785C191.184 34.2758 190.843 33.0798 190.161 32.1905C189.486 31.3012 188.463 30.8565 187.09 30.8565C186.163 30.8565 185.396 31.0673 184.79 31.489C184.192 31.903 183.744 32.4818 183.445 33.2255C183.154 33.9615 183.008 34.8125 183.008 35.7785C183.008 37.2735 183.353 38.4733 184.043 39.378C184.733 40.275 185.749 40.7235 187.09 40.7235ZM199.069 42.345C198.133 42.345 197.348 42.1763 196.711 41.839C196.083 41.5017 195.611 41.0532 195.297 40.4935C194.982 39.9338 194.825 39.3243 194.825 38.665C194.825 37.9903 194.959 37.4153 195.228 36.94C195.504 36.457 195.876 36.0622 196.343 35.7555C196.819 35.4488 197.367 35.215 197.988 35.054C198.616 34.9007 199.31 34.7665 200.069 34.6515C200.836 34.5288 201.583 34.4253 202.312 34.341C203.048 34.249 203.692 34.1608 204.244 34.0765L203.646 34.4445C203.669 33.2178 203.431 32.3093 202.933 31.719C202.434 31.1287 201.568 30.8335 200.334 30.8335C199.483 30.8335 198.762 31.0252 198.172 31.4085C197.589 31.7918 197.179 32.3975 196.941 33.2255L195.297 32.7425C195.58 31.6308 196.152 30.7683 197.01 30.155C197.869 29.5417 198.984 29.235 200.357 29.235C201.491 29.235 202.454 29.4497 203.243 29.879C204.041 30.3007 204.604 30.914 204.934 31.719C205.087 32.0793 205.187 32.4818 205.233 32.9265C205.279 33.3712 205.302 33.8235 205.302 34.2835V42H203.795V38.8835L204.232 39.0675C203.811 40.1332 203.155 40.9458 202.266 41.5055C201.376 42.0652 200.311 42.345 199.069 42.345ZM199.264 40.8845C200.054 40.8845 200.744 40.7427 201.334 40.459C201.925 40.1753 202.4 39.7882 202.76 39.2975C203.121 38.7992 203.354 38.2395 203.462 37.6185C203.554 37.2198 203.604 36.7828 203.611 36.3075C203.619 35.8245 203.623 35.4642 203.623 35.2265L204.267 35.56C203.692 35.6367 203.067 35.7133 202.392 35.79C201.725 35.8667 201.066 35.9548 200.414 36.0545C199.77 36.1542 199.188 36.273 198.666 36.411C198.314 36.5107 197.972 36.6525 197.643 36.8365C197.313 37.0128 197.041 37.2505 196.826 37.5495C196.619 37.8485 196.516 38.2203 196.516 38.665C196.516 39.0253 196.604 39.3742 196.78 39.7115C196.964 40.0488 197.256 40.3287 197.654 40.551C198.061 40.7733 198.597 40.8845 199.264 40.8845ZM213.114 42.345C211.956 42.345 210.967 42.0575 210.147 41.4825C209.327 40.8998 208.698 40.114 208.261 39.125C207.824 38.136 207.606 37.0205 207.606 35.7785C207.606 34.5442 207.82 33.4325 208.25 32.4435C208.687 31.4545 209.311 30.6725 210.124 30.0975C210.937 29.5225 211.91 29.235 213.045 29.235C214.21 29.235 215.192 29.5187 215.989 30.086C216.786 30.6533 217.388 31.4315 217.795 32.4205C218.209 33.4018 218.416 34.5212 218.416 35.7785C218.416 37.0128 218.212 38.1283 217.806 39.125C217.4 40.114 216.802 40.8998 216.012 41.4825C215.222 42.0575 214.256 42.345 213.114 42.345ZM213.287 40.7695C214.168 40.7695 214.897 40.5548 215.472 40.1255C216.047 39.6962 216.476 39.1058 216.76 38.3545C217.043 37.5955 217.185 36.7368 217.185 35.7785C217.185 34.8048 217.043 33.9462 216.76 33.2025C216.476 32.4512 216.047 31.8647 215.472 31.443C214.904 31.0213 214.187 30.8105 213.321 30.8105C212.432 30.8105 211.696 31.029 211.113 31.466C210.53 31.903 210.097 32.4972 209.814 33.2485C209.538 33.9998 209.4 34.8432 209.4 35.7785C209.4 36.7215 209.541 37.5725 209.825 38.3315C210.116 39.0828 210.55 39.677 211.125 40.114C211.7 40.551 212.42 40.7695 213.287 40.7695ZM217.185 42V32.6505H217.001V25.44H218.703V42H217.185ZM231.72 42.345C230.486 42.345 229.432 42.0652 228.558 41.5055C227.684 40.9458 227.013 40.1715 226.545 39.1825C226.078 38.1935 225.844 37.0588 225.844 35.7785C225.844 34.4752 226.081 33.3328 226.557 32.3515C227.032 31.3702 227.707 30.6073 228.581 30.063C229.462 29.511 230.509 29.235 231.72 29.235C232.962 29.235 234.02 29.5148 234.894 30.0745C235.776 30.6265 236.447 31.397 236.907 32.386C237.374 33.3673 237.608 34.4982 237.608 35.7785C237.608 37.0818 237.374 38.228 236.907 39.217C236.439 40.1983 235.764 40.965 234.883 41.517C234.001 42.069 232.947 42.345 231.72 42.345ZM231.72 40.7235C233.1 40.7235 234.128 40.2673 234.802 39.355C235.477 38.435 235.814 37.2428 235.814 35.7785C235.814 34.2758 235.473 33.0798 234.791 32.1905C234.116 31.3012 233.093 30.8565 231.72 30.8565C230.793 30.8565 230.026 31.0673 229.42 31.489C228.822 31.903 228.374 32.4818 228.075 33.2255C227.783 33.9615 227.638 34.8125 227.638 35.7785C227.638 37.2735 227.983 38.4733 228.673 39.378C229.363 40.275 230.379 40.7235 231.72 40.7235ZM249.115 42V35.6635C249.115 34.9735 249.05 34.341 248.92 33.766C248.789 33.1833 248.578 32.6773 248.287 32.248C248.003 31.811 247.632 31.4737 247.172 31.236C246.719 30.9983 246.167 30.8795 245.516 30.8795C244.918 30.8795 244.389 30.983 243.929 31.19C243.476 31.397 243.093 31.696 242.779 32.087C242.472 32.4703 242.238 32.938 242.077 33.49C241.916 34.042 241.836 34.6707 241.836 35.376L240.64 35.1115C240.64 33.8388 240.862 32.7693 241.307 31.903C241.751 31.0367 242.365 30.3812 243.147 29.9365C243.929 29.4918 244.826 29.2695 245.838 29.2695C246.581 29.2695 247.229 29.3845 247.781 29.6145C248.341 29.8445 248.812 30.155 249.196 30.546C249.587 30.937 249.901 31.3855 250.139 31.8915C250.376 32.3898 250.549 32.9227 250.656 33.49C250.763 34.0497 250.817 34.6093 250.817 35.169V42H249.115ZM240.134 42V29.58H241.663V32.639H241.836V42H240.134ZM265.168 42C264.47 42.1457 263.78 42.2032 263.098 42.1725C262.423 42.1418 261.818 41.9962 261.281 41.7355C260.752 41.4748 260.349 41.0685 260.073 40.5165C259.851 40.0565 259.728 39.5927 259.705 39.125C259.69 38.6497 259.682 38.1092 259.682 37.5035V26.13H261.361V37.4345C261.361 37.9558 261.365 38.3928 261.373 38.7455C261.388 39.0905 261.469 39.3972 261.614 39.6655C261.89 40.1792 262.327 40.4858 262.925 40.5855C263.531 40.6852 264.279 40.6622 265.168 40.5165V42ZM257.026 31.029V29.58H265.168V31.029H257.026ZM276.585 42V35.6635C276.585 34.9735 276.52 34.341 276.389 33.766C276.259 33.1833 276.048 32.6773 275.757 32.248C275.473 31.811 275.101 31.4737 274.641 31.236C274.189 30.9983 273.637 30.8795 272.985 30.8795C272.387 30.8795 271.858 30.983 271.398 31.19C270.946 31.397 270.563 31.696 270.248 32.087C269.942 32.4703 269.708 32.938 269.547 33.49C269.386 34.042 269.305 34.6707 269.305 35.376L268.109 35.1115C268.109 33.8388 268.332 32.7693 268.776 31.903C269.221 31.0367 269.834 30.3812 270.616 29.9365C271.398 29.4918 272.295 29.2695 273.307 29.2695C274.051 29.2695 274.699 29.3845 275.251 29.6145C275.811 29.8445 276.282 30.155 276.665 30.546C277.056 30.937 277.371 31.3855 277.608 31.8915C277.846 32.3898 278.019 32.9227 278.126 33.49C278.233 34.0497 278.287 34.6093 278.287 35.169V42H276.585ZM267.603 42V25.44H269.133V34.7895H269.305V42H267.603ZM286.527 42.345C285.315 42.345 284.265 42.0767 283.376 41.54C282.494 41.0033 281.808 40.2482 281.317 39.2745C280.826 38.3008 280.581 37.1585 280.581 35.8475C280.581 34.4905 280.823 33.3175 281.306 32.3285C281.789 31.3395 282.467 30.5767 283.341 30.04C284.223 29.5033 285.262 29.235 286.458 29.235C287.684 29.235 288.731 29.5187 289.597 30.086C290.463 30.6457 291.119 31.4507 291.564 32.501C292.008 33.5513 292.211 34.8048 292.173 36.2615H290.448V35.6635C290.417 34.0535 290.069 32.8383 289.402 32.018C288.742 31.1977 287.776 30.7875 286.504 30.7875C285.17 30.7875 284.146 31.2207 283.433 32.087C282.728 32.9533 282.375 34.1877 282.375 35.79C282.375 37.354 282.728 38.5692 283.433 39.4355C284.146 40.2942 285.154 40.7235 286.458 40.7235C287.347 40.7235 288.121 40.5203 288.781 40.114C289.448 39.7 289.973 39.1058 290.356 38.3315L291.932 38.941C291.441 40.022 290.716 40.8615 289.758 41.4595C288.807 42.0498 287.73 42.345 286.527 42.345ZM281.777 36.2615V34.847H291.265V36.2615H281.777Z" fill="#463E3E"/>
<path d="M115.76 83L124.386 55.64H131.093L139.719 83H135.007L127.179 58.452H128.205L120.472 83H115.76ZM120.567 77.072V72.797H134.931V77.072H120.567ZM153.015 83.57C151.014 83.57 149.335 83.095 147.98 82.145C146.625 81.195 145.605 79.903 144.921 78.269C144.237 76.6223 143.895 74.7793 143.895 72.74C143.895 70.6753 144.237 68.826 144.921 67.192C145.605 65.558 146.606 64.2723 147.923 63.335C149.253 62.385 150.893 61.91 152.844 61.91C154.782 61.91 156.46 62.385 157.879 63.335C159.31 64.2723 160.419 65.558 161.204 67.192C161.989 68.8133 162.382 70.6627 162.382 72.74C162.382 74.792 161.996 76.635 161.223 78.269C160.45 79.903 159.361 81.195 157.955 82.145C156.549 83.095 154.902 83.57 153.015 83.57ZM143.116 92.12V62.48H147.163V76.882H147.733V92.12H143.116ZM152.312 79.466C153.503 79.466 154.484 79.1683 155.257 78.573C156.03 77.9777 156.6 77.1733 156.967 76.16C157.347 75.134 157.537 73.994 157.537 72.74C157.537 71.4987 157.347 70.3713 156.967 69.358C156.587 68.332 155.998 67.5213 155.2 66.926C154.402 66.318 153.389 66.014 152.16 66.014C150.995 66.014 150.045 66.299 149.31 66.869C148.575 67.4263 148.031 68.2117 147.676 69.225C147.334 70.2257 147.163 71.3973 147.163 72.74C147.163 74.07 147.334 75.2417 147.676 76.255C148.031 77.2683 148.582 78.06 149.329 78.63C150.089 79.1873 151.083 79.466 152.312 79.466ZM176.431 83.57C174.43 83.57 172.751 83.095 171.396 82.145C170.041 81.195 169.021 79.903 168.337 78.269C167.653 76.6223 167.311 74.7793 167.311 72.74C167.311 70.6753 167.653 68.826 168.337 67.192C169.021 65.558 170.022 64.2723 171.339 63.335C172.669 62.385 174.309 61.91 176.26 61.91C178.198 61.91 179.876 62.385 181.295 63.335C182.726 64.2723 183.835 65.558 184.62 67.192C185.405 68.8133 185.798 70.6627 185.798 72.74C185.798 74.792 185.412 76.635 184.639 78.269C183.866 79.903 182.777 81.195 181.371 82.145C179.965 83.095 178.318 83.57 176.431 83.57ZM166.532 92.12V62.48H170.579V76.882H171.149V92.12H166.532ZM175.728 79.466C176.919 79.466 177.9 79.1683 178.673 78.573C179.446 77.9777 180.016 77.1733 180.383 76.16C180.763 75.134 180.953 73.994 180.953 72.74C180.953 71.4987 180.763 70.3713 180.383 69.358C180.003 68.332 179.414 67.5213 178.616 66.926C177.818 66.318 176.805 66.014 175.576 66.014C174.411 66.014 173.461 66.299 172.726 66.869C171.991 67.4263 171.447 68.2117 171.092 69.225C170.75 70.2257 170.579 71.3973 170.579 72.74C170.579 74.07 170.75 75.2417 171.092 76.255C171.447 77.2683 171.998 78.06 172.745 78.63C173.505 79.1873 174.499 79.466 175.728 79.466ZM207.721 83.57C205.719 83.57 203.914 83.2217 202.306 82.525C200.71 81.8283 199.392 80.834 198.354 79.542C197.328 78.2373 196.675 76.692 196.397 74.906L201.147 74.184C201.552 75.8053 202.382 77.0593 203.636 77.946C204.902 78.8327 206.359 79.276 208.006 79.276C208.981 79.276 209.899 79.124 210.761 78.82C211.622 78.516 212.319 78.0727 212.851 77.49C213.395 76.9073 213.668 76.1917 213.668 75.343C213.668 74.963 213.604 74.6147 213.478 74.298C213.351 73.9687 213.161 73.6773 212.908 73.424C212.667 73.1707 212.35 72.9427 211.958 72.74C211.578 72.5247 211.134 72.341 210.628 72.189L203.56 70.099C202.952 69.9217 202.293 69.6873 201.584 69.396C200.887 69.092 200.222 68.6803 199.589 68.161C198.968 67.629 198.455 66.9577 198.05 66.147C197.657 65.3237 197.461 64.3103 197.461 63.107C197.461 61.3463 197.904 59.8707 198.791 58.68C199.69 57.4767 200.893 56.5773 202.401 55.982C203.921 55.3867 205.605 55.0953 207.455 55.108C209.329 55.1207 211.001 55.4437 212.471 56.077C213.94 56.6977 215.169 57.6033 216.157 58.794C217.145 59.9847 217.841 61.4223 218.247 63.107L213.326 63.962C213.123 62.9993 212.73 62.1823 212.148 61.511C211.578 60.827 210.875 60.3077 210.039 59.953C209.215 59.5983 208.335 59.4083 207.398 59.383C206.486 59.3703 205.637 59.5097 204.852 59.801C204.079 60.0797 203.452 60.485 202.971 61.017C202.502 61.549 202.268 62.1697 202.268 62.879C202.268 63.5503 202.47 64.1013 202.876 64.532C203.281 64.95 203.781 65.2857 204.377 65.539C204.985 65.7797 205.599 65.9823 206.22 66.147L211.122 67.515C211.793 67.6923 212.547 67.933 213.383 68.237C214.219 68.541 215.023 68.9653 215.796 69.51C216.568 70.0547 217.202 70.7703 217.696 71.657C218.202 72.5437 218.456 73.671 218.456 75.039C218.456 76.4577 218.158 77.7053 217.563 78.782C216.98 79.846 216.188 80.7327 215.188 81.442C214.187 82.1513 213.041 82.6833 211.749 83.038C210.469 83.3927 209.127 83.57 207.721 83.57ZM234.595 83C233.24 83.2533 231.91 83.361 230.605 83.323C229.313 83.2977 228.154 83.0633 227.128 82.62C226.102 82.164 225.323 81.4483 224.791 80.473C224.323 79.5863 224.076 78.6807 224.05 77.756C224.025 76.8313 224.012 75.7863 224.012 74.621V56.78H228.572V74.355C228.572 75.1783 228.579 75.9003 228.591 76.521C228.617 77.1417 228.75 77.6483 228.99 78.041C229.446 78.801 230.175 79.2253 231.175 79.314C232.176 79.4027 233.316 79.352 234.595 79.162V83ZM220.288 66.071V62.48H234.595V66.071H220.288ZM247.032 83.57C244.98 83.57 243.187 83.1077 241.655 82.183C240.122 81.2583 238.931 79.9853 238.083 78.364C237.247 76.73 236.829 74.8553 236.829 72.74C236.829 70.5867 237.259 68.6993 238.121 67.078C238.982 65.4567 240.179 64.19 241.712 63.278C243.244 62.366 245.018 61.91 247.032 61.91C249.096 61.91 250.895 62.3723 252.428 63.297C253.96 64.2217 255.151 65.501 256 67.135C256.848 68.7563 257.273 70.6247 257.273 72.74C257.273 74.868 256.842 76.749 255.981 78.383C255.132 80.0043 253.941 81.2773 252.409 82.202C250.876 83.114 249.084 83.57 247.032 83.57ZM247.032 79.276C248.856 79.276 250.211 78.668 251.098 77.452C251.984 76.236 252.428 74.6653 252.428 72.74C252.428 70.7513 251.978 69.168 251.079 67.99C250.179 66.7993 248.83 66.204 247.032 66.204C245.803 66.204 244.79 66.4827 243.992 67.04C243.206 67.5847 242.624 68.351 242.244 69.339C241.864 70.3143 241.674 71.448 241.674 72.74C241.674 74.7287 242.123 76.3183 243.023 77.509C243.935 78.687 245.271 79.276 247.032 79.276ZM261.459 83V62.48H265.506V67.477L265.012 66.831C265.265 66.147 265.601 65.5263 266.019 64.969C266.449 64.399 266.962 63.9303 267.558 63.563C268.064 63.221 268.622 62.955 269.23 62.765C269.85 62.5623 270.484 62.442 271.13 62.404C271.776 62.3533 272.403 62.3787 273.011 62.48V66.755C272.403 66.5777 271.7 66.5207 270.902 66.584C270.116 66.6473 269.407 66.869 268.774 67.249C268.14 67.591 267.621 68.028 267.216 68.56C266.823 69.092 266.532 69.7 266.342 70.384C266.152 71.0553 266.057 71.7837 266.057 72.569V83H261.459ZM285.594 83.57C283.517 83.57 281.693 83.1203 280.122 82.221C278.552 81.3217 277.323 80.074 276.436 78.478C275.562 76.882 275.125 75.0453 275.125 72.968C275.125 70.726 275.556 68.7817 276.417 67.135C277.279 65.4757 278.476 64.19 280.008 63.278C281.541 62.366 283.314 61.91 285.328 61.91C287.456 61.91 289.261 62.4103 290.743 63.411C292.238 64.399 293.346 65.7987 294.068 67.61C294.79 69.4213 295.063 71.5557 294.885 74.013H290.344V72.341C290.332 70.1117 289.939 68.484 289.166 67.458C288.394 66.432 287.178 65.919 285.518 65.919C283.644 65.919 282.25 66.5017 281.338 67.667C280.426 68.8197 279.97 70.5107 279.97 72.74C279.97 74.8173 280.426 76.426 281.338 77.566C282.25 78.706 283.58 79.276 285.328 79.276C286.456 79.276 287.425 79.029 288.235 78.535C289.059 78.0283 289.692 77.3 290.135 76.35L294.657 77.718C293.872 79.5673 292.656 81.005 291.009 82.031C289.375 83.057 287.57 83.57 285.594 83.57ZM278.526 74.013V70.555H292.643V74.013H278.526Z" fill="#463E3E"/>
<path d="M35.0167 52.3619C35.0167 51.7589 34.9777 51.1495 35.0264 50.5497C35.0848 49.8105 35.1886 49.0746 35.3022 48.3419C35.4515 47.3596 35.6754 46.4 35.9707 45.4534C36.4088 44.0626 36.9929 42.7399 37.7587 41.4918C38.1416 40.8661 38.5408 40.2533 38.9951 39.6795C39.5986 38.9177 40.2639 38.2142 41.007 37.582C41.6625 37.0211 42.3537 36.5089 43.0903 36.0615C43.8723 35.585 44.6836 35.1732 45.5435 34.8393C45.9978 34.6643 46.4554 34.4989 46.9194 34.366C47.5295 34.1909 48.1493 34.058 48.7788 33.9672C49.7653 33.8278 50.7518 33.7273 51.7448 33.8311C52.4068 33.9024 53.0623 34.0288 53.7145 34.1845C54.5128 34.3725 55.2819 34.6481 56.0639 34.8815C56.3592 34.969 56.6513 35.089 56.9401 35.2024C57.6605 35.4877 58.3939 35.7309 59.1305 35.9708C59.6107 36.1296 60.1007 36.2528 60.5875 36.3987C61.1164 36.5575 61.6389 36.577 62.1776 36.4117C62.8558 36.2009 63.5405 36.0064 64.209 35.7698C65.3155 35.3775 66.4188 34.982 67.5286 34.6091C68.7033 34.2136 69.9072 33.9057 71.1371 33.7403C72.0717 33.6139 73.0225 33.5944 73.9732 33.6852C74.9305 33.7792 75.8716 33.9381 76.8029 34.1488C77.5168 34.3109 78.2113 34.5378 78.8992 34.7939C79.9473 35.1797 80.9273 35.692 81.8457 36.3144C82.7283 36.9142 83.5299 37.6144 84.247 38.4087C84.5845 38.7848 84.8928 39.1803 85.2075 39.5758C85.3795 39.7897 85.3763 39.793 85.1556 39.9356C84.1562 40.5775 83.2086 41.281 82.3584 42.111C81.797 42.6589 81.2778 43.2456 80.817 43.8843C80.3075 44.5846 79.876 45.3302 79.5352 46.1212C79.2075 46.8831 78.9479 47.6676 78.7791 48.4846C78.6266 49.227 78.5423 49.9726 78.5098 50.7248C78.5001 50.9193 78.4644 51.1073 78.4644 51.3051C78.4741 51.9405 78.5358 52.5727 78.5812 53.2048C78.6364 53.9732 78.8019 54.7156 79.003 55.4515C79.3438 56.6932 79.8824 57.8538 80.5834 58.9333C81.0993 59.7276 81.7126 60.457 82.3909 61.1216C82.9912 61.7084 83.6142 62.2758 84.3054 62.7588C85.0485 63.2775 85.8111 63.7541 86.6516 64.101C86.7295 64.1334 86.8041 64.182 86.882 64.2177C87.0085 64.2728 87.0215 64.3538 86.9761 64.477C86.6029 65.4853 86.2362 66.4935 85.8014 67.4758C85.3958 68.39 84.9544 69.288 84.4742 70.1634C84.0069 71.0095 83.5007 71.8362 82.9522 72.6337C82.313 73.5641 81.6477 74.4751 80.9598 75.3731C80.2329 76.3198 79.4638 77.234 78.5974 78.0574C77.7667 78.8452 76.8581 79.5358 75.8099 80.0123C75.1512 80.3138 74.46 80.5408 73.7429 80.6315C73.2431 80.6931 72.7304 80.6899 72.2242 80.664C71.2799 80.6153 70.3778 80.3722 69.4789 80.0966C68.7163 79.8632 67.9829 79.5617 67.2398 79.2764C66.4772 78.9846 65.6919 78.7512 64.8937 78.5794C63.8358 78.3492 62.7714 78.2487 61.6843 78.3071C60.5129 78.3687 59.3803 78.5956 58.2608 78.9295C57.5794 79.1338 56.9174 79.3931 56.2586 79.6525C55.2364 80.0545 54.1948 80.4111 53.1142 80.6088C52.2575 80.7677 51.3943 80.8358 50.5149 80.6737C49.5966 80.5019 48.7659 80.1452 47.9838 79.6622C46.6955 78.8679 45.6279 77.8175 44.6317 76.6926C43.7036 75.6455 42.8631 74.527 42.0486 73.3891C41.7047 72.906 41.3445 72.4327 41.0265 71.9334C40.6046 71.2721 40.2022 70.5978 39.8096 69.9202C39.5565 69.4826 39.3293 69.0287 39.0989 68.5781C38.7387 67.8681 38.411 67.1419 38.0962 66.4124C37.8658 65.8775 37.6419 65.3426 37.4407 64.8012C37.1681 64.0653 36.8923 63.3326 36.6684 62.5772C36.5159 62.0715 36.3504 61.5723 36.2173 61.0633C36.0031 60.2301 35.7792 59.3969 35.6137 58.554C35.4353 57.6463 35.2925 56.7353 35.1919 55.8146C35.127 55.2375 35.0394 54.6605 35.0199 54.0834C35.0069 53.5063 34.9842 52.9325 35.0167 52.3619Z" fill="#332F2F"/>
<path d="M61.0321 32.4046C61.0191 31.9086 61.0872 31.419 61.1424 30.9263C61.2819 29.6846 61.6876 28.5208 62.1841 27.3861C62.5215 26.6178 62.9401 25.8883 63.4204 25.1978C64.3907 23.8005 65.5329 22.5686 66.9478 21.5993C67.6519 21.1162 68.3853 20.6883 69.1511 20.3187C70.2707 19.7773 71.4421 19.3753 72.6623 19.1386C73.0322 19.0673 73.4119 19.0511 73.785 19.0025C73.9181 18.9863 73.9635 19.0511 73.9733 19.1613C74.0252 19.7287 74.0511 20.296 74.0089 20.8666C73.97 21.4047 73.8824 21.9332 73.8078 22.4681C73.7364 22.9836 73.5839 23.4763 73.4346 23.9691C73.2301 24.6467 72.9381 25.2983 72.6168 25.9305C72.3507 26.4589 72.036 26.9614 71.7082 27.4509C71.3902 27.9243 71.0527 28.3846 70.6828 28.8158C70.1214 29.4674 69.5276 30.0866 68.8786 30.654C68.2555 31.2018 67.5935 31.6946 66.8829 32.1225C66.1073 32.5926 65.2863 32.959 64.4166 33.2216C63.5632 33.4777 62.687 33.6073 61.8044 33.6106C60.9899 33.6138 61.1132 33.63 61.0386 32.8552C61.0223 32.7061 61.0321 32.5537 61.0321 32.4046Z" fill="#332F2F"/>
<defs>
<filter id="filter0_d_108_2554" x="0" y="0" width="339" height="113" filterUnits="userSpaceOnUse" color-interpolation-filters="sRGB">
<feFlood flood-opacity="0" result="BackgroundImageFix"/>
<feColorMatrix in="SourceAlpha" type="matrix" values="0 0 0 0 0 0 0 0 0 0 0 0 0 0 0 0 0 0 127 0" result="hardAlpha"/>
<feOffset dy="4"/>
<feGaussianBlur stdDeviation="2"/>
<feComposite in2="hardAlpha" operator="out"/>
<feColorMatrix type="matrix" values="0 0 0 0 0 0 0 0 0 0 0 0 0 0 0 0 0 0 0.25 0"/>
<feBlend mode="normal" in2="BackgroundImageFix" result="effect1_dropShadow_108_2554"/>
<feBlend mode="normal" in="SourceGraphic" in2="effect1_dropShadow_108_2554" result="shape"/>
</filter>
</defs>
</svg>
