<svg width="1174" height="428" viewBox="0 0 1174 428" fill="none" xmlns="http://www.w3.org/2000/svg">
<g filter="url(#filter0_d_1265_240)">
<circle cx="118.617" cy="116.617" r="73.6174" fill="white"/>
<circle cx="118.617" cy="116.617" r="72.6174" stroke="black" stroke-width="2"/>
</g>
<path d="M82.0432 108.078V95.1184H87.0472C87.1732 95.1184 87.3142 95.1244 87.4702 95.1364C87.6322 95.1424 87.7942 95.1604 87.9562 95.1904C88.6342 95.2924 89.2072 95.5294 89.6752 95.9014C90.1492 96.2674 90.5062 96.7294 90.7462 97.2874C90.9922 97.8454 91.1152 98.4634 91.1152 99.1414C91.1152 99.8134 90.9922 100.428 90.7462 100.986C90.5002 101.544 90.1402 102.009 89.6662 102.381C89.1982 102.747 88.6282 102.981 87.9562 103.083C87.7942 103.107 87.6322 103.125 87.4702 103.137C87.3142 103.149 87.1732 103.155 87.0472 103.155H83.3662V108.078H82.0432ZM83.3662 101.895H87.0112C87.1192 101.895 87.2452 101.889 87.3892 101.877C87.5332 101.865 87.6742 101.844 87.8122 101.814C88.2562 101.718 88.6192 101.535 88.9012 101.265C89.1892 100.995 89.4022 100.674 89.5402 100.302C89.6842 99.9304 89.7562 99.5434 89.7562 99.1414C89.7562 98.7394 89.6842 98.3524 89.5402 97.9804C89.4022 97.6024 89.1892 97.2784 88.9012 97.0084C88.6192 96.7384 88.2562 96.5554 87.8122 96.4594C87.6742 96.4294 87.5332 96.4114 87.3892 96.4054C87.2452 96.3934 87.1192 96.3874 87.0112 96.3874H83.3662V101.895ZM92.9065 108.078V98.3584H94.0945V100.698L93.8605 100.392C93.9685 100.104 94.1095 99.8404 94.2835 99.6004C94.4575 99.3544 94.6465 99.1534 94.8505 98.9974C95.1025 98.7754 95.3965 98.6074 95.7325 98.4934C96.0685 98.3734 96.4075 98.3044 96.7495 98.2864C97.0915 98.2624 97.4035 98.2864 97.6855 98.3584V99.6004C97.3315 99.5104 96.9445 99.4894 96.5245 99.5374C96.1045 99.5854 95.7175 99.7534 95.3635 100.041C95.0395 100.293 94.7965 100.596 94.6345 100.95C94.4725 101.298 94.3645 101.67 94.3105 102.066C94.2565 102.456 94.2295 102.843 94.2295 103.227V108.078H92.9065ZM103.33 108.348C102.382 108.348 101.56 108.138 100.864 107.718C100.174 107.298 99.6371 106.707 99.2531 105.945C98.8691 105.183 98.6771 104.289 98.6771 103.263C98.6771 102.201 98.8661 101.283 99.2441 100.509C99.6221 99.7354 100.153 99.1384 100.837 98.7184C101.527 98.2984 102.34 98.0884 103.276 98.0884C104.236 98.0884 105.055 98.3104 105.733 98.7544C106.411 99.1924 106.924 99.8224 107.272 100.644C107.62 101.466 107.779 102.447 107.749 103.587H106.399V103.119C106.375 101.859 106.102 100.908 105.58 100.266C105.064 99.6244 104.308 99.3034 103.312 99.3034C102.268 99.3034 101.467 99.6424 100.909 100.32C100.357 100.998 100.081 101.964 100.081 103.218C100.081 104.442 100.357 105.393 100.909 106.071C101.467 106.743 102.256 107.079 103.276 107.079C103.972 107.079 104.578 106.92 105.094 106.602C105.616 106.278 106.027 105.813 106.327 105.207L107.56 105.684C107.176 106.53 106.609 107.187 105.859 107.655C105.115 108.117 104.272 108.348 103.33 108.348ZM99.6131 103.587V102.48H107.038V103.587H99.6131ZM109.566 102.975V101.841H114.966V102.975H109.566ZM120.932 108.339C119.792 108.339 118.853 108.093 118.115 107.601C117.383 107.109 116.933 106.425 116.765 105.549L118.115 105.324C118.259 105.876 118.586 106.317 119.096 106.647C119.612 106.971 120.248 107.133 121.004 107.133C121.742 107.133 122.324 106.98 122.75 106.674C123.176 106.362 123.389 105.939 123.389 105.405C123.389 105.105 123.32 104.862 123.182 104.676C123.05 104.484 122.777 104.307 122.363 104.145C121.949 103.983 121.331 103.791 120.509 103.569C119.627 103.329 118.937 103.089 118.439 102.849C117.941 102.609 117.587 102.333 117.377 102.021C117.167 101.703 117.062 101.316 117.062 100.86C117.062 100.308 117.218 99.8254 117.53 99.4114C117.842 98.9914 118.274 98.6674 118.826 98.4394C119.378 98.2054 120.02 98.0884 120.752 98.0884C121.484 98.0884 122.138 98.2084 122.714 98.4484C123.296 98.6824 123.764 99.0124 124.118 99.4384C124.472 99.8644 124.682 100.359 124.748 100.923L123.398 101.166C123.308 100.596 123.023 100.146 122.543 99.8164C122.069 99.4804 121.466 99.3064 120.734 99.2944C120.044 99.2764 119.483 99.4084 119.051 99.6904C118.619 99.9664 118.403 100.335 118.403 100.797C118.403 101.055 118.481 101.277 118.637 101.463C118.793 101.643 119.075 101.814 119.483 101.976C119.897 102.138 120.485 102.315 121.247 102.507C122.141 102.735 122.843 102.975 123.353 103.227C123.863 103.479 124.226 103.776 124.442 104.118C124.658 104.46 124.766 104.883 124.766 105.387C124.766 106.305 124.424 107.028 123.74 107.556C123.062 108.078 122.126 108.339 120.932 108.339ZM130.875 108.348C129.927 108.348 129.105 108.138 128.409 107.718C127.719 107.298 127.182 106.707 126.798 105.945C126.414 105.183 126.222 104.289 126.222 103.263C126.222 102.201 126.411 101.283 126.789 100.509C127.167 99.7354 127.698 99.1384 128.382 98.7184C129.072 98.2984 129.885 98.0884 130.821 98.0884C131.781 98.0884 132.6 98.3104 133.278 98.7544C133.956 99.1924 134.469 99.8224 134.817 100.644C135.165 101.466 135.324 102.447 135.294 103.587H133.944V103.119C133.92 101.859 133.647 100.908 133.125 100.266C132.609 99.6244 131.853 99.3034 130.857 99.3034C129.813 99.3034 129.012 99.6424 128.454 100.32C127.902 100.998 127.626 101.964 127.626 103.218C127.626 104.442 127.902 105.393 128.454 106.071C129.012 106.743 129.801 107.079 130.821 107.079C131.517 107.079 132.123 106.92 132.639 106.602C133.161 106.278 133.572 105.813 133.872 105.207L135.105 105.684C134.721 106.53 134.154 107.187 133.404 107.655C132.66 108.117 131.817 108.348 130.875 108.348ZM127.158 103.587V102.48H134.583V103.587H127.158ZM141.404 108.348C140.456 108.348 139.634 108.138 138.938 107.718C138.248 107.298 137.711 106.707 137.327 105.945C136.943 105.183 136.751 104.289 136.751 103.263C136.751 102.201 136.94 101.283 137.318 100.509C137.696 99.7354 138.227 99.1384 138.911 98.7184C139.601 98.2984 140.414 98.0884 141.35 98.0884C142.31 98.0884 143.129 98.3104 143.807 98.7544C144.485 99.1924 144.998 99.8224 145.346 100.644C145.694 101.466 145.853 102.447 145.823 103.587H144.473V103.119C144.449 101.859 144.176 100.908 143.654 100.266C143.138 99.6244 142.382 99.3034 141.386 99.3034C140.342 99.3034 139.541 99.6424 138.983 100.32C138.431 100.998 138.155 101.964 138.155 103.218C138.155 104.442 138.431 105.393 138.983 106.071C139.541 106.743 140.33 107.079 141.35 107.079C142.046 107.079 142.652 106.92 143.168 106.602C143.69 106.278 144.101 105.813 144.401 105.207L145.634 105.684C145.25 106.53 144.683 107.187 143.933 107.655C143.189 108.117 142.346 108.348 141.404 108.348ZM137.687 103.587V102.48H145.112V103.587H137.687ZM151.592 108.348C150.686 108.348 149.912 108.123 149.27 107.673C148.628 107.217 148.136 106.602 147.794 105.828C147.452 105.054 147.281 104.181 147.281 103.209C147.281 102.243 147.449 101.373 147.785 100.599C148.127 99.8254 148.616 99.2134 149.252 98.7634C149.888 98.3134 150.65 98.0884 151.538 98.0884C152.45 98.0884 153.218 98.3104 153.842 98.7544C154.466 99.1984 154.937 99.8074 155.255 100.581C155.579 101.349 155.741 102.225 155.741 103.209C155.741 104.175 155.582 105.048 155.264 105.828C154.946 106.602 154.478 107.217 153.86 107.673C153.242 108.123 152.486 108.348 151.592 108.348ZM151.727 107.115C152.417 107.115 152.987 106.947 153.437 106.611C153.887 106.275 154.223 105.813 154.445 105.225C154.667 104.631 154.778 103.959 154.778 103.209C154.778 102.447 154.667 101.775 154.445 101.193C154.223 100.605 153.887 100.146 153.437 99.8164C152.993 99.4864 152.432 99.3214 151.754 99.3214C151.058 99.3214 150.482 99.4924 150.026 99.8344C149.57 100.176 149.231 100.641 149.009 101.229C148.793 101.817 148.685 102.477 148.685 103.209C148.685 103.947 148.796 104.613 149.018 105.207C149.246 105.795 149.585 106.26 150.035 106.602C150.485 106.944 151.049 107.115 151.727 107.115ZM154.778 108.078V100.761H154.634V95.1184H155.966V108.078H154.778ZM89.2728 140.078V129.638C89.2728 129.386 89.2848 129.137 89.3088 128.891C89.3388 128.645 89.3958 128.411 89.4798 128.189C89.5638 127.961 89.6958 127.751 89.8758 127.559C90.0738 127.343 90.2898 127.187 90.5238 127.091C90.7578 126.989 91.0008 126.923 91.2528 126.893C91.5108 126.863 91.7628 126.848 92.0088 126.848H93.2508V127.964H92.0988C91.5948 127.964 91.2168 128.087 90.9648 128.333C90.7188 128.579 90.5958 128.966 90.5958 129.494V140.078H89.2728ZM87.5898 131.492V130.358H93.2508V131.492H87.5898ZM98.4077 140.321C97.8257 140.321 97.3157 140.231 96.8777 140.051C96.4457 139.871 96.0767 139.628 95.7707 139.322C95.4707 139.016 95.2277 138.668 95.0417 138.278C94.8557 137.882 94.7207 137.465 94.6367 137.027C94.5527 136.583 94.5107 136.142 94.5107 135.704V130.358H95.8427V135.317C95.8427 135.851 95.8937 136.346 95.9957 136.802C96.0977 137.258 96.2597 137.657 96.4817 137.999C96.7097 138.335 97.0007 138.596 97.3547 138.782C97.7147 138.968 98.1497 139.061 98.6597 139.061C99.1277 139.061 99.5387 138.98 99.8927 138.818C100.253 138.656 100.553 138.425 100.793 138.125C101.039 137.819 101.225 137.45 101.351 137.018C101.477 136.58 101.54 136.088 101.54 135.542L102.476 135.749C102.476 136.745 102.302 137.582 101.954 138.26C101.606 138.938 101.126 139.451 100.514 139.799C99.9017 140.147 99.1997 140.321 98.4077 140.321ZM101.675 140.078V137.684H101.54V130.358H102.863V140.078H101.675ZM112.398 140.078V135.119C112.398 134.579 112.347 134.084 112.245 133.634C112.143 133.178 111.978 132.782 111.75 132.446C111.528 132.104 111.237 131.84 110.877 131.654C110.523 131.468 110.091 131.375 109.581 131.375C109.113 131.375 108.699 131.456 108.339 131.618C107.985 131.78 107.685 132.014 107.439 132.32C107.199 132.62 107.016 132.986 106.89 133.418C106.764 133.85 106.701 134.342 106.701 134.894L105.765 134.687C105.765 133.691 105.939 132.854 106.287 132.176C106.635 131.498 107.115 130.985 107.727 130.637C108.339 130.289 109.041 130.115 109.833 130.115C110.415 130.115 110.922 130.205 111.354 130.385C111.792 130.565 112.161 130.808 112.461 131.114C112.767 131.42 113.013 131.771 113.199 132.167C113.385 132.557 113.52 132.974 113.604 133.418C113.688 133.856 113.73 134.294 113.73 134.732V140.078H112.398ZM105.369 140.078V130.358H106.566V132.752H106.701V140.078H105.369ZM119.784 140.348C118.878 140.348 118.104 140.123 117.462 139.673C116.82 139.217 116.328 138.602 115.986 137.828C115.644 137.054 115.473 136.181 115.473 135.209C115.473 134.243 115.641 133.373 115.977 132.599C116.319 131.825 116.808 131.213 117.444 130.763C118.08 130.313 118.842 130.088 119.73 130.088C120.642 130.088 121.41 130.31 122.034 130.754C122.658 131.198 123.129 131.807 123.447 132.581C123.771 133.349 123.933 134.225 123.933 135.209C123.933 136.175 123.774 137.048 123.456 137.828C123.138 138.602 122.67 139.217 122.052 139.673C121.434 140.123 120.678 140.348 119.784 140.348ZM119.919 139.115C120.609 139.115 121.179 138.947 121.629 138.611C122.079 138.275 122.415 137.813 122.637 137.225C122.859 136.631 122.97 135.959 122.97 135.209C122.97 134.447 122.859 133.775 122.637 133.193C122.415 132.605 122.079 132.146 121.629 131.816C121.185 131.486 120.624 131.321 119.946 131.321C119.25 131.321 118.674 131.492 118.218 131.834C117.762 132.176 117.423 132.641 117.201 133.229C116.985 133.817 116.877 134.477 116.877 135.209C116.877 135.947 116.988 136.613 117.21 137.207C117.438 137.795 117.777 138.26 118.227 138.602C118.677 138.944 119.241 139.115 119.919 139.115ZM122.97 140.078V132.761H122.826V127.118H124.158V140.078H122.97ZM126.863 128.513V127.028H128.186V128.513H126.863ZM126.863 140.078V130.358H128.186V140.078H126.863ZM137.904 140.078V135.119C137.904 134.579 137.853 134.084 137.751 133.634C137.649 133.178 137.484 132.782 137.256 132.446C137.034 132.104 136.743 131.84 136.383 131.654C136.029 131.468 135.597 131.375 135.087 131.375C134.619 131.375 134.205 131.456 133.845 131.618C133.491 131.78 133.191 132.014 132.945 132.32C132.705 132.62 132.522 132.986 132.396 133.418C132.27 133.85 132.207 134.342 132.207 134.894L131.271 134.687C131.271 133.691 131.445 132.854 131.793 132.176C132.141 131.498 132.621 130.985 133.233 130.637C133.845 130.289 134.547 130.115 135.339 130.115C135.921 130.115 136.428 130.205 136.86 130.385C137.298 130.565 137.667 130.808 137.967 131.114C138.273 131.42 138.519 131.771 138.705 132.167C138.891 132.557 139.026 132.974 139.11 133.418C139.194 133.856 139.236 134.294 139.236 134.732V140.078H137.904ZM130.875 140.078V130.358H132.072V132.752H132.207V140.078H130.875ZM145.433 144.668C144.935 144.668 144.443 144.593 143.957 144.443C143.477 144.299 143.033 144.068 142.625 143.75C142.217 143.438 141.875 143.03 141.599 142.526L142.796 141.86C143.066 142.4 143.444 142.787 143.93 143.021C144.422 143.261 144.923 143.381 145.433 143.381C146.135 143.381 146.702 143.249 147.134 142.985C147.572 142.727 147.89 142.343 148.088 141.833C148.286 141.323 148.382 140.687 148.376 139.925V137.333H148.529V130.358H149.708V139.943C149.708 140.219 149.699 140.483 149.681 140.735C149.669 140.993 149.642 141.245 149.6 141.491C149.486 142.217 149.249 142.814 148.889 143.282C148.535 143.75 148.067 144.098 147.485 144.326C146.909 144.554 146.225 144.668 145.433 144.668ZM145.343 140.348C144.437 140.348 143.663 140.123 143.021 139.673C142.379 139.217 141.887 138.602 141.545 137.828C141.203 137.054 141.032 136.181 141.032 135.209C141.032 134.243 141.2 133.373 141.536 132.599C141.878 131.825 142.367 131.213 143.003 130.763C143.639 130.313 144.401 130.088 145.289 130.088C146.201 130.088 146.969 130.31 147.593 130.754C148.217 131.198 148.688 131.807 149.006 132.581C149.33 133.349 149.492 134.225 149.492 135.209C149.492 136.175 149.333 137.048 149.015 137.828C148.697 138.602 148.229 139.217 147.611 139.673C146.993 140.123 146.237 140.348 145.343 140.348ZM145.478 139.115C146.168 139.115 146.738 138.947 147.188 138.611C147.638 138.275 147.974 137.813 148.196 137.225C148.418 136.631 148.529 135.959 148.529 135.209C148.529 134.447 148.418 133.775 148.196 133.193C147.974 132.605 147.638 132.146 147.188 131.816C146.744 131.486 146.183 131.321 145.505 131.321C144.809 131.321 144.233 131.492 143.777 131.834C143.321 132.176 142.982 132.641 142.76 133.229C142.544 133.817 142.436 134.477 142.436 135.209C142.436 135.947 142.547 136.613 142.769 137.207C142.997 137.795 143.336 138.26 143.786 138.602C144.236 138.944 144.8 139.115 145.478 139.115Z" fill="black"/>
<g filter="url(#filter1_d_1265_240)">
<circle cx="352.5" cy="114.5" r="73.5" fill="white"/>
<circle cx="352.5" cy="114.5" r="72.5" stroke="black" stroke-width="2"/>
</g>
<path d="M337.85 106.27C336.944 106.27 336.128 106.12 335.402 105.82C334.682 105.514 334.085 105.082 333.611 104.524C333.143 103.966 332.837 103.303 332.693 102.535L334.043 102.31C334.259 103.15 334.715 103.81 335.411 104.29C336.107 104.764 336.938 105.001 337.904 105.001C338.54 105.001 339.11 104.902 339.614 104.704C340.118 104.5 340.514 104.212 340.802 103.84C341.09 103.468 341.234 103.027 341.234 102.517C341.234 102.181 341.174 101.896 341.054 101.662C340.934 101.422 340.775 101.224 340.577 101.068C340.379 100.912 340.163 100.783 339.929 100.681C339.695 100.573 339.467 100.486 339.245 100.42L335.96 99.439C335.564 99.325 335.198 99.181 334.862 99.007C334.526 98.827 334.232 98.614 333.98 98.368C333.734 98.116 333.542 97.822 333.404 97.486C333.266 97.15 333.197 96.766 333.197 96.334C333.197 95.602 333.389 94.969 333.773 94.435C334.157 93.901 334.682 93.49 335.348 93.202C336.014 92.914 336.773 92.773 337.625 92.779C338.489 92.779 339.26 92.932 339.938 93.238C340.622 93.544 341.186 93.982 341.63 94.552C342.074 95.116 342.368 95.785 342.512 96.559L341.126 96.811C341.036 96.247 340.829 95.758 340.505 95.344C340.181 94.93 339.767 94.612 339.263 94.39C338.765 94.162 338.216 94.045 337.616 94.039C337.034 94.039 336.515 94.138 336.059 94.336C335.609 94.528 335.252 94.792 334.988 95.128C334.724 95.464 334.592 95.848 334.592 96.28C334.592 96.718 334.712 97.069 334.952 97.333C335.198 97.597 335.498 97.804 335.852 97.954C336.212 98.104 336.56 98.227 336.896 98.323L339.434 99.07C339.698 99.142 340.007 99.247 340.361 99.385C340.721 99.517 341.069 99.709 341.405 99.961C341.747 100.207 342.029 100.531 342.251 100.933C342.473 101.335 342.584 101.845 342.584 102.463C342.584 103.063 342.464 103.6 342.224 104.074C341.99 104.548 341.657 104.947 341.225 105.271C340.799 105.595 340.298 105.841 339.722 106.009C339.152 106.183 338.528 106.27 337.85 106.27ZM348.555 106.27C347.607 106.27 346.785 106.06 346.089 105.64C345.399 105.22 344.862 104.629 344.478 103.867C344.094 103.105 343.902 102.211 343.902 101.185C343.902 100.123 344.091 99.205 344.469 98.431C344.847 97.657 345.378 97.06 346.062 96.64C346.752 96.22 347.565 96.01 348.501 96.01C349.461 96.01 350.28 96.232 350.958 96.676C351.636 97.114 352.149 97.744 352.497 98.566C352.845 99.388 353.004 100.369 352.974 101.509H351.624V101.041C351.6 99.781 351.327 98.83 350.805 98.188C350.289 97.546 349.533 97.225 348.537 97.225C347.493 97.225 346.692 97.564 346.134 98.242C345.582 98.92 345.306 99.886 345.306 101.14C345.306 102.364 345.582 103.315 346.134 103.993C346.692 104.665 347.481 105.001 348.501 105.001C349.197 105.001 349.803 104.842 350.319 104.524C350.841 104.2 351.252 103.735 351.552 103.129L352.785 103.606C352.401 104.452 351.834 105.109 351.084 105.577C350.34 106.039 349.497 106.27 348.555 106.27ZM344.838 101.509V100.402H352.263V101.509H344.838ZM359.084 106.27C358.136 106.27 357.314 106.06 356.618 105.64C355.928 105.22 355.391 104.629 355.007 103.867C354.623 103.105 354.431 102.211 354.431 101.185C354.431 100.123 354.62 99.205 354.998 98.431C355.376 97.657 355.907 97.06 356.591 96.64C357.281 96.22 358.094 96.01 359.03 96.01C359.99 96.01 360.809 96.232 361.487 96.676C362.165 97.114 362.678 97.744 363.026 98.566C363.374 99.388 363.533 100.369 363.503 101.509H362.153V101.041C362.129 99.781 361.856 98.83 361.334 98.188C360.818 97.546 360.062 97.225 359.066 97.225C358.022 97.225 357.221 97.564 356.663 98.242C356.111 98.92 355.835 99.886 355.835 101.14C355.835 102.364 356.111 103.315 356.663 103.993C357.221 104.665 358.01 105.001 359.03 105.001C359.726 105.001 360.332 104.842 360.848 104.524C361.37 104.2 361.781 103.735 362.081 103.129L363.314 103.606C362.93 104.452 362.363 105.109 361.613 105.577C360.869 106.039 360.026 106.27 359.084 106.27ZM355.367 101.509V100.402H362.792V101.509H355.367ZM369.271 106.27C368.365 106.27 367.591 106.045 366.949 105.595C366.307 105.139 365.815 104.524 365.473 103.75C365.131 102.976 364.96 102.103 364.96 101.131C364.96 100.165 365.128 99.295 365.464 98.521C365.806 97.747 366.295 97.135 366.931 96.685C367.567 96.235 368.329 96.01 369.217 96.01C370.129 96.01 370.897 96.232 371.521 96.676C372.145 97.12 372.616 97.729 372.934 98.503C373.258 99.271 373.42 100.147 373.42 101.131C373.42 102.097 373.261 102.97 372.943 103.75C372.625 104.524 372.157 105.139 371.539 105.595C370.921 106.045 370.165 106.27 369.271 106.27ZM369.406 105.037C370.096 105.037 370.666 104.869 371.116 104.533C371.566 104.197 371.902 103.735 372.124 103.147C372.346 102.553 372.457 101.881 372.457 101.131C372.457 100.369 372.346 99.697 372.124 99.115C371.902 98.527 371.566 98.068 371.116 97.738C370.672 97.408 370.111 97.243 369.433 97.243C368.737 97.243 368.161 97.414 367.705 97.756C367.249 98.098 366.91 98.563 366.688 99.151C366.472 99.739 366.364 100.399 366.364 101.131C366.364 101.869 366.475 102.535 366.697 103.129C366.925 103.717 367.264 104.182 367.714 104.524C368.164 104.866 368.728 105.037 369.406 105.037ZM372.457 106V98.683H372.313V93.04H373.645V106H372.457ZM323.766 138V127.56C323.766 127.308 323.778 127.059 323.802 126.813C323.832 126.567 323.889 126.333 323.973 126.111C324.057 125.883 324.189 125.673 324.369 125.481C324.567 125.265 324.783 125.109 325.017 125.013C325.251 124.911 325.494 124.845 325.746 124.815C326.004 124.785 326.256 124.77 326.502 124.77H327.744V125.886H326.592C326.088 125.886 325.71 126.009 325.458 126.255C325.212 126.501 325.089 126.888 325.089 127.416V138H323.766ZM322.083 129.414V128.28H327.744V129.414H322.083ZM332.901 138.243C332.319 138.243 331.809 138.153 331.371 137.973C330.939 137.793 330.57 137.55 330.264 137.244C329.964 136.938 329.721 136.59 329.535 136.2C329.349 135.804 329.214 135.387 329.13 134.949C329.046 134.505 329.004 134.064 329.004 133.626V128.28H330.336V133.239C330.336 133.773 330.387 134.268 330.489 134.724C330.591 135.18 330.753 135.579 330.975 135.921C331.203 136.257 331.494 136.518 331.848 136.704C332.208 136.89 332.643 136.983 333.153 136.983C333.621 136.983 334.032 136.902 334.386 136.74C334.746 136.578 335.046 136.347 335.286 136.047C335.532 135.741 335.718 135.372 335.844 134.94C335.97 134.502 336.033 134.01 336.033 133.464L336.969 133.671C336.969 134.667 336.795 135.504 336.447 136.182C336.099 136.86 335.619 137.373 335.007 137.721C334.395 138.069 333.693 138.243 332.901 138.243ZM336.168 138V135.606H336.033V128.28H337.356V138H336.168ZM346.891 138V133.041C346.891 132.501 346.84 132.006 346.738 131.556C346.636 131.1 346.471 130.704 346.243 130.368C346.021 130.026 345.73 129.762 345.37 129.576C345.016 129.39 344.584 129.297 344.074 129.297C343.606 129.297 343.192 129.378 342.832 129.54C342.478 129.702 342.178 129.936 341.932 130.242C341.692 130.542 341.509 130.908 341.383 131.34C341.257 131.772 341.194 132.264 341.194 132.816L340.258 132.609C340.258 131.613 340.432 130.776 340.78 130.098C341.128 129.42 341.608 128.907 342.22 128.559C342.832 128.211 343.534 128.037 344.326 128.037C344.908 128.037 345.415 128.127 345.847 128.307C346.285 128.487 346.654 128.73 346.954 129.036C347.26 129.342 347.506 129.693 347.692 130.089C347.878 130.479 348.013 130.896 348.097 131.34C348.181 131.778 348.223 132.216 348.223 132.654V138H346.891ZM339.862 138V128.28H341.059V130.674H341.194V138H339.862ZM354.277 138.27C353.371 138.27 352.597 138.045 351.955 137.595C351.313 137.139 350.821 136.524 350.479 135.75C350.137 134.976 349.966 134.103 349.966 133.131C349.966 132.165 350.134 131.295 350.47 130.521C350.812 129.747 351.301 129.135 351.937 128.685C352.573 128.235 353.335 128.01 354.223 128.01C355.135 128.01 355.903 128.232 356.527 128.676C357.151 129.12 357.622 129.729 357.94 130.503C358.264 131.271 358.426 132.147 358.426 133.131C358.426 134.097 358.267 134.97 357.949 135.75C357.631 136.524 357.163 137.139 356.545 137.595C355.927 138.045 355.171 138.27 354.277 138.27ZM354.412 137.037C355.102 137.037 355.672 136.869 356.122 136.533C356.572 136.197 356.908 135.735 357.13 135.147C357.352 134.553 357.463 133.881 357.463 133.131C357.463 132.369 357.352 131.697 357.13 131.115C356.908 130.527 356.572 130.068 356.122 129.738C355.678 129.408 355.117 129.243 354.439 129.243C353.743 129.243 353.167 129.414 352.711 129.756C352.255 130.098 351.916 130.563 351.694 131.151C351.478 131.739 351.37 132.399 351.37 133.131C351.37 133.869 351.481 134.535 351.703 135.129C351.931 135.717 352.27 136.182 352.72 136.524C353.17 136.866 353.734 137.037 354.412 137.037ZM357.463 138V130.683H357.319V125.04H358.651V138H357.463ZM361.356 126.435V124.95H362.679V126.435H361.356ZM361.356 138V128.28H362.679V138H361.356ZM372.397 138V133.041C372.397 132.501 372.346 132.006 372.244 131.556C372.142 131.1 371.977 130.704 371.749 130.368C371.527 130.026 371.236 129.762 370.876 129.576C370.522 129.39 370.09 129.297 369.58 129.297C369.112 129.297 368.698 129.378 368.338 129.54C367.984 129.702 367.684 129.936 367.438 130.242C367.198 130.542 367.015 130.908 366.889 131.34C366.763 131.772 366.7 132.264 366.7 132.816L365.764 132.609C365.764 131.613 365.938 130.776 366.286 130.098C366.634 129.42 367.114 128.907 367.726 128.559C368.338 128.211 369.04 128.037 369.832 128.037C370.414 128.037 370.921 128.127 371.353 128.307C371.791 128.487 372.16 128.73 372.46 129.036C372.766 129.342 373.012 129.693 373.198 130.089C373.384 130.479 373.519 130.896 373.603 131.34C373.687 131.778 373.729 132.216 373.729 132.654V138H372.397ZM365.368 138V128.28H366.565V130.674H366.7V138H365.368ZM379.926 142.59C379.428 142.59 378.936 142.515 378.45 142.365C377.97 142.221 377.526 141.99 377.118 141.672C376.71 141.36 376.368 140.952 376.092 140.448L377.289 139.782C377.559 140.322 377.937 140.709 378.423 140.943C378.915 141.183 379.416 141.303 379.926 141.303C380.628 141.303 381.195 141.171 381.627 140.907C382.065 140.649 382.383 140.265 382.581 139.755C382.779 139.245 382.875 138.609 382.869 137.847V135.255H383.022V128.28H384.201V137.865C384.201 138.141 384.192 138.405 384.174 138.657C384.162 138.915 384.135 139.167 384.093 139.413C383.979 140.139 383.742 140.736 383.382 141.204C383.028 141.672 382.56 142.02 381.978 142.248C381.402 142.476 380.718 142.59 379.926 142.59ZM379.836 138.27C378.93 138.27 378.156 138.045 377.514 137.595C376.872 137.139 376.38 136.524 376.038 135.75C375.696 134.976 375.525 134.103 375.525 133.131C375.525 132.165 375.693 131.295 376.029 130.521C376.371 129.747 376.86 129.135 377.496 128.685C378.132 128.235 378.894 128.01 379.782 128.01C380.694 128.01 381.462 128.232 382.086 128.676C382.71 129.12 383.181 129.729 383.499 130.503C383.823 131.271 383.985 132.147 383.985 133.131C383.985 134.097 383.826 134.97 383.508 135.75C383.19 136.524 382.722 137.139 382.104 137.595C381.486 138.045 380.73 138.27 379.836 138.27ZM379.971 137.037C380.661 137.037 381.231 136.869 381.681 136.533C382.131 136.197 382.467 135.735 382.689 135.147C382.911 134.553 383.022 133.881 383.022 133.131C383.022 132.369 382.911 131.697 382.689 131.115C382.467 130.527 382.131 130.068 381.681 129.738C381.237 129.408 380.676 129.243 379.998 129.243C379.302 129.243 378.726 129.414 378.27 129.756C377.814 130.098 377.475 130.563 377.253 131.151C377.037 131.739 376.929 132.399 376.929 133.131C376.929 133.869 377.04 134.535 377.262 135.129C377.49 135.717 377.829 136.182 378.279 136.524C378.729 136.866 379.293 137.037 379.971 137.037Z" fill="black"/>
<g filter="url(#filter2_d_1265_240)">
<ellipse cx="587" cy="114.5" rx="74" ry="73.5" fill="white"/>
<path d="M660 114.5C660 154.534 627.323 187 587 187C546.677 187 514 154.534 514 114.5C514 74.4657 546.677 42 587 42C627.323 42 660 74.4657 660 114.5Z" stroke="black" stroke-width="2"/>
</g>
<path d="M559.107 106.27C558.201 106.27 557.385 106.12 556.659 105.82C555.939 105.514 555.342 105.082 554.868 104.524C554.4 103.966 554.094 103.303 553.95 102.535L555.3 102.31C555.516 103.15 555.972 103.81 556.668 104.29C557.364 104.764 558.195 105.001 559.161 105.001C559.797 105.001 560.367 104.902 560.871 104.704C561.375 104.5 561.771 104.212 562.059 103.84C562.347 103.468 562.491 103.027 562.491 102.517C562.491 102.181 562.431 101.896 562.311 101.662C562.191 101.422 562.032 101.224 561.834 101.068C561.636 100.912 561.42 100.783 561.186 100.681C560.952 100.573 560.724 100.486 560.502 100.42L557.217 99.439C556.821 99.325 556.455 99.181 556.119 99.007C555.783 98.827 555.489 98.614 555.237 98.368C554.991 98.116 554.799 97.822 554.661 97.486C554.523 97.15 554.454 96.766 554.454 96.334C554.454 95.602 554.646 94.969 555.03 94.435C555.414 93.901 555.939 93.49 556.605 93.202C557.271 92.914 558.03 92.773 558.882 92.779C559.746 92.779 560.517 92.932 561.195 93.238C561.879 93.544 562.443 93.982 562.887 94.552C563.331 95.116 563.625 95.785 563.769 96.559L562.383 96.811C562.293 96.247 562.086 95.758 561.762 95.344C561.438 94.93 561.024 94.612 560.52 94.39C560.022 94.162 559.473 94.045 558.873 94.039C558.291 94.039 557.772 94.138 557.316 94.336C556.866 94.528 556.509 94.792 556.245 95.128C555.981 95.464 555.849 95.848 555.849 96.28C555.849 96.718 555.969 97.069 556.209 97.333C556.455 97.597 556.755 97.804 557.109 97.954C557.469 98.104 557.817 98.227 558.153 98.323L560.691 99.07C560.955 99.142 561.264 99.247 561.618 99.385C561.978 99.517 562.326 99.709 562.662 99.961C563.004 100.207 563.286 100.531 563.508 100.933C563.73 101.335 563.841 101.845 563.841 102.463C563.841 103.063 563.721 103.6 563.481 104.074C563.247 104.548 562.914 104.947 562.482 105.271C562.056 105.595 561.555 105.841 560.979 106.009C560.409 106.183 559.785 106.27 559.107 106.27ZM569.811 106.27C568.863 106.27 568.041 106.06 567.345 105.64C566.655 105.22 566.118 104.629 565.734 103.867C565.35 103.105 565.158 102.211 565.158 101.185C565.158 100.123 565.347 99.205 565.725 98.431C566.103 97.657 566.634 97.06 567.318 96.64C568.008 96.22 568.821 96.01 569.757 96.01C570.717 96.01 571.536 96.232 572.214 96.676C572.892 97.114 573.405 97.744 573.753 98.566C574.101 99.388 574.26 100.369 574.23 101.509H572.88V101.041C572.856 99.781 572.583 98.83 572.061 98.188C571.545 97.546 570.789 97.225 569.793 97.225C568.749 97.225 567.948 97.564 567.39 98.242C566.838 98.92 566.562 99.886 566.562 101.14C566.562 102.364 566.838 103.315 567.39 103.993C567.948 104.665 568.737 105.001 569.757 105.001C570.453 105.001 571.059 104.842 571.575 104.524C572.097 104.2 572.508 103.735 572.808 103.129L574.041 103.606C573.657 104.452 573.09 105.109 572.34 105.577C571.596 106.039 570.753 106.27 569.811 106.27ZM566.094 101.509V100.402H573.519V101.509H566.094ZM576.228 106V96.28H577.416V98.62L577.182 98.314C577.29 98.026 577.431 97.762 577.605 97.522C577.779 97.276 577.968 97.075 578.172 96.919C578.424 96.697 578.718 96.529 579.054 96.415C579.39 96.295 579.729 96.226 580.071 96.208C580.413 96.184 580.725 96.208 581.007 96.28V97.522C580.653 97.432 580.266 97.411 579.846 97.459C579.426 97.507 579.039 97.675 578.685 97.963C578.361 98.215 578.118 98.518 577.956 98.872C577.794 99.22 577.686 99.592 577.632 99.988C577.578 100.378 577.551 100.765 577.551 101.149V106H576.228ZM582.894 94.435V92.95H584.217V94.435H582.894ZM582.894 106V96.28H584.217V106H582.894ZM591.028 106.27C590.08 106.27 589.258 106.06 588.562 105.64C587.872 105.22 587.335 104.629 586.951 103.867C586.567 103.105 586.375 102.211 586.375 101.185C586.375 100.123 586.564 99.205 586.942 98.431C587.32 97.657 587.851 97.06 588.535 96.64C589.225 96.22 590.038 96.01 590.974 96.01C591.934 96.01 592.753 96.232 593.431 96.676C594.109 97.114 594.622 97.744 594.97 98.566C595.318 99.388 595.477 100.369 595.447 101.509H594.097V101.041C594.073 99.781 593.8 98.83 593.278 98.188C592.762 97.546 592.006 97.225 591.01 97.225C589.966 97.225 589.165 97.564 588.607 98.242C588.055 98.92 587.779 99.886 587.779 101.14C587.779 102.364 588.055 103.315 588.607 103.993C589.165 104.665 589.954 105.001 590.974 105.001C591.67 105.001 592.276 104.842 592.792 104.524C593.314 104.2 593.725 103.735 594.025 103.129L595.258 103.606C594.874 104.452 594.307 105.109 593.557 105.577C592.813 106.039 591.97 106.27 591.028 106.27ZM587.311 101.509V100.402H594.736V101.509H587.311ZM601.072 106.261C599.932 106.261 598.993 106.015 598.255 105.523C597.523 105.031 597.073 104.347 596.905 103.471L598.255 103.246C598.399 103.798 598.726 104.239 599.236 104.569C599.752 104.893 600.388 105.055 601.144 105.055C601.882 105.055 602.464 104.902 602.89 104.596C603.316 104.284 603.529 103.861 603.529 103.327C603.529 103.027 603.46 102.784 603.322 102.598C603.19 102.406 602.917 102.229 602.503 102.067C602.089 101.905 601.471 101.713 600.649 101.491C599.767 101.251 599.077 101.011 598.579 100.771C598.081 100.531 597.727 100.255 597.517 99.943C597.307 99.625 597.202 99.238 597.202 98.782C597.202 98.23 597.358 97.747 597.67 97.333C597.982 96.913 598.414 96.589 598.966 96.361C599.518 96.127 600.16 96.01 600.892 96.01C601.624 96.01 602.278 96.13 602.854 96.37C603.436 96.604 603.904 96.934 604.258 97.36C604.612 97.786 604.822 98.281 604.888 98.845L603.538 99.088C603.448 98.518 603.163 98.068 602.683 97.738C602.209 97.402 601.606 97.228 600.874 97.216C600.184 97.198 599.623 97.33 599.191 97.612C598.759 97.888 598.543 98.257 598.543 98.719C598.543 98.977 598.621 99.199 598.777 99.385C598.933 99.565 599.215 99.736 599.623 99.898C600.037 100.06 600.625 100.237 601.387 100.429C602.281 100.657 602.983 100.897 603.493 101.149C604.003 101.401 604.366 101.698 604.582 102.04C604.798 102.382 604.906 102.805 604.906 103.309C604.906 104.227 604.564 104.95 603.88 105.478C603.202 106 602.266 106.261 601.072 106.261ZM609.605 106L614.069 93.04H615.824L620.288 106H618.911L614.672 93.778H615.194L610.982 106H609.605ZM611.594 102.859V101.617H618.29V102.859H611.594ZM557.266 138V127.56C557.266 127.308 557.278 127.059 557.302 126.813C557.332 126.567 557.389 126.333 557.473 126.111C557.557 125.883 557.689 125.673 557.869 125.481C558.067 125.265 558.283 125.109 558.517 125.013C558.751 124.911 558.994 124.845 559.246 124.815C559.504 124.785 559.756 124.77 560.002 124.77H561.244V125.886H560.092C559.588 125.886 559.21 126.009 558.958 126.255C558.712 126.501 558.589 126.888 558.589 127.416V138H557.266ZM555.583 129.414V128.28H561.244V129.414H555.583ZM566.401 138.243C565.819 138.243 565.309 138.153 564.871 137.973C564.439 137.793 564.07 137.55 563.764 137.244C563.464 136.938 563.221 136.59 563.035 136.2C562.849 135.804 562.714 135.387 562.63 134.949C562.546 134.505 562.504 134.064 562.504 133.626V128.28H563.836V133.239C563.836 133.773 563.887 134.268 563.989 134.724C564.091 135.18 564.253 135.579 564.475 135.921C564.703 136.257 564.994 136.518 565.348 136.704C565.708 136.89 566.143 136.983 566.653 136.983C567.121 136.983 567.532 136.902 567.886 136.74C568.246 136.578 568.546 136.347 568.786 136.047C569.032 135.741 569.218 135.372 569.344 134.94C569.47 134.502 569.533 134.01 569.533 133.464L570.469 133.671C570.469 134.667 570.295 135.504 569.947 136.182C569.599 136.86 569.119 137.373 568.507 137.721C567.895 138.069 567.193 138.243 566.401 138.243ZM569.668 138V135.606H569.533V128.28H570.856V138H569.668ZM580.391 138V133.041C580.391 132.501 580.34 132.006 580.238 131.556C580.136 131.1 579.971 130.704 579.743 130.368C579.521 130.026 579.23 129.762 578.87 129.576C578.516 129.39 578.084 129.297 577.574 129.297C577.106 129.297 576.692 129.378 576.332 129.54C575.978 129.702 575.678 129.936 575.432 130.242C575.192 130.542 575.009 130.908 574.883 131.34C574.757 131.772 574.694 132.264 574.694 132.816L573.758 132.609C573.758 131.613 573.932 130.776 574.28 130.098C574.628 129.42 575.108 128.907 575.72 128.559C576.332 128.211 577.034 128.037 577.826 128.037C578.408 128.037 578.915 128.127 579.347 128.307C579.785 128.487 580.154 128.73 580.454 129.036C580.76 129.342 581.006 129.693 581.192 130.089C581.378 130.479 581.513 130.896 581.597 131.34C581.681 131.778 581.723 132.216 581.723 132.654V138H580.391ZM573.362 138V128.28H574.559V130.674H574.694V138H573.362ZM587.777 138.27C586.871 138.27 586.097 138.045 585.455 137.595C584.813 137.139 584.321 136.524 583.979 135.75C583.637 134.976 583.466 134.103 583.466 133.131C583.466 132.165 583.634 131.295 583.97 130.521C584.312 129.747 584.801 129.135 585.437 128.685C586.073 128.235 586.835 128.01 587.723 128.01C588.635 128.01 589.403 128.232 590.027 128.676C590.651 129.12 591.122 129.729 591.44 130.503C591.764 131.271 591.926 132.147 591.926 133.131C591.926 134.097 591.767 134.97 591.449 135.75C591.131 136.524 590.663 137.139 590.045 137.595C589.427 138.045 588.671 138.27 587.777 138.27ZM587.912 137.037C588.602 137.037 589.172 136.869 589.622 136.533C590.072 136.197 590.408 135.735 590.63 135.147C590.852 134.553 590.963 133.881 590.963 133.131C590.963 132.369 590.852 131.697 590.63 131.115C590.408 130.527 590.072 130.068 589.622 129.738C589.178 129.408 588.617 129.243 587.939 129.243C587.243 129.243 586.667 129.414 586.211 129.756C585.755 130.098 585.416 130.563 585.194 131.151C584.978 131.739 584.87 132.399 584.87 133.131C584.87 133.869 584.981 134.535 585.203 135.129C585.431 135.717 585.77 136.182 586.22 136.524C586.67 136.866 587.234 137.037 587.912 137.037ZM590.963 138V130.683H590.819V125.04H592.151V138H590.963ZM594.856 126.435V124.95H596.179V126.435H594.856ZM594.856 138V128.28H596.179V138H594.856ZM605.897 138V133.041C605.897 132.501 605.846 132.006 605.744 131.556C605.642 131.1 605.477 130.704 605.249 130.368C605.027 130.026 604.736 129.762 604.376 129.576C604.022 129.39 603.59 129.297 603.08 129.297C602.612 129.297 602.198 129.378 601.838 129.54C601.484 129.702 601.184 129.936 600.938 130.242C600.698 130.542 600.515 130.908 600.389 131.34C600.263 131.772 600.2 132.264 600.2 132.816L599.264 132.609C599.264 131.613 599.438 130.776 599.786 130.098C600.134 129.42 600.614 128.907 601.226 128.559C601.838 128.211 602.54 128.037 603.332 128.037C603.914 128.037 604.421 128.127 604.853 128.307C605.291 128.487 605.66 128.73 605.96 129.036C606.266 129.342 606.512 129.693 606.698 130.089C606.884 130.479 607.019 130.896 607.103 131.34C607.187 131.778 607.229 132.216 607.229 132.654V138H605.897ZM598.868 138V128.28H600.065V130.674H600.2V138H598.868ZM613.426 142.59C612.928 142.59 612.436 142.515 611.95 142.365C611.47 142.221 611.026 141.99 610.618 141.672C610.21 141.36 609.868 140.952 609.592 140.448L610.789 139.782C611.059 140.322 611.437 140.709 611.923 140.943C612.415 141.183 612.916 141.303 613.426 141.303C614.128 141.303 614.695 141.171 615.127 140.907C615.565 140.649 615.883 140.265 616.081 139.755C616.279 139.245 616.375 138.609 616.369 137.847V135.255H616.522V128.28H617.701V137.865C617.701 138.141 617.692 138.405 617.674 138.657C617.662 138.915 617.635 139.167 617.593 139.413C617.479 140.139 617.242 140.736 616.882 141.204C616.528 141.672 616.06 142.02 615.478 142.248C614.902 142.476 614.218 142.59 613.426 142.59ZM613.336 138.27C612.43 138.27 611.656 138.045 611.014 137.595C610.372 137.139 609.88 136.524 609.538 135.75C609.196 134.976 609.025 134.103 609.025 133.131C609.025 132.165 609.193 131.295 609.529 130.521C609.871 129.747 610.36 129.135 610.996 128.685C611.632 128.235 612.394 128.01 613.282 128.01C614.194 128.01 614.962 128.232 615.586 128.676C616.21 129.12 616.681 129.729 616.999 130.503C617.323 131.271 617.485 132.147 617.485 133.131C617.485 134.097 617.326 134.97 617.008 135.75C616.69 136.524 616.222 137.139 615.604 137.595C614.986 138.045 614.23 138.27 613.336 138.27ZM613.471 137.037C614.161 137.037 614.731 136.869 615.181 136.533C615.631 136.197 615.967 135.735 616.189 135.147C616.411 134.553 616.522 133.881 616.522 133.131C616.522 132.369 616.411 131.697 616.189 131.115C615.967 130.527 615.631 130.068 615.181 129.738C614.737 129.408 614.176 129.243 613.498 129.243C612.802 129.243 612.226 129.414 611.77 129.756C611.314 130.098 610.975 130.563 610.753 131.151C610.537 131.739 610.429 132.399 610.429 133.131C610.429 133.869 610.54 134.535 610.762 135.129C610.99 135.717 611.329 136.182 611.779 136.524C612.229 136.866 612.793 137.037 613.471 137.037Z" fill="black"/>
<g filter="url(#filter3_d_1265_240)">
<ellipse cx="472" cy="305.5" rx="74" ry="73.5" fill="white"/>
<path d="M545 305.5C545 345.534 512.323 378 472 378C431.677 378 399 345.534 399 305.5C399 265.466 431.677 233 472 233C512.323 233 545 265.466 545 305.5Z" stroke="black" stroke-width="2"/>
</g>
<path d="M451.024 312.982V311.092L456.568 306.151C457 305.767 457.3 305.404 457.468 305.062C457.636 304.72 457.72 304.39 457.72 304.072C457.72 303.64 457.627 303.256 457.441 302.92C457.255 302.578 456.997 302.308 456.667 302.11C456.343 301.912 455.968 301.813 455.542 301.813C455.092 301.813 454.693 301.918 454.345 302.128C454.003 302.332 453.736 302.605 453.544 302.947C453.352 303.289 453.262 303.658 453.274 304.054H451.042C451.042 303.19 451.234 302.437 451.618 301.795C452.008 301.153 452.542 300.655 453.22 300.301C453.904 299.947 454.693 299.77 455.587 299.77C456.415 299.77 457.159 299.956 457.819 300.328C458.479 300.694 458.998 301.204 459.376 301.858C459.754 302.506 459.943 303.253 459.943 304.099C459.943 304.717 459.859 305.236 459.691 305.656C459.523 306.076 459.271 306.463 458.935 306.817C458.605 307.171 458.194 307.564 457.702 307.996L453.769 311.479L453.571 310.939H459.943V312.982H451.024ZM466.769 313.27C465.851 313.27 465.041 313.075 464.339 312.685C463.637 312.289 463.088 311.74 462.692 311.038C462.302 310.336 462.107 309.526 462.107 308.608V304.432C462.107 303.514 462.302 302.704 462.692 302.002C463.088 301.3 463.637 300.754 464.339 300.364C465.041 299.968 465.851 299.77 466.769 299.77C467.687 299.77 468.494 299.968 469.19 300.364C469.892 300.754 470.441 301.3 470.837 302.002C471.233 302.704 471.431 303.514 471.431 304.432V308.608C471.431 309.526 471.233 310.336 470.837 311.038C470.441 311.74 469.892 312.289 469.19 312.685C468.494 313.075 467.687 313.27 466.769 313.27ZM466.769 311.209C467.225 311.209 467.639 311.101 468.011 310.885C468.383 310.663 468.677 310.369 468.893 310.003C469.109 309.631 469.217 309.217 469.217 308.761V304.27C469.217 303.808 469.109 303.394 468.893 303.028C468.677 302.656 468.383 302.362 468.011 302.146C467.639 301.924 467.225 301.813 466.769 301.813C466.313 301.813 465.899 301.924 465.527 302.146C465.155 302.362 464.861 302.656 464.645 303.028C464.429 303.394 464.321 303.808 464.321 304.27V308.761C464.321 309.217 464.429 309.631 464.645 310.003C464.861 310.369 465.155 310.663 465.527 310.885C465.899 311.101 466.313 311.209 466.769 311.209ZM473.594 312.982V311.092L479.138 306.151C479.57 305.767 479.87 305.404 480.038 305.062C480.206 304.72 480.29 304.39 480.29 304.072C480.29 303.64 480.197 303.256 480.011 302.92C479.825 302.578 479.567 302.308 479.237 302.11C478.913 301.912 478.538 301.813 478.112 301.813C477.662 301.813 477.263 301.918 476.915 302.128C476.573 302.332 476.306 302.605 476.114 302.947C475.922 303.289 475.832 303.658 475.844 304.054H473.612C473.612 303.19 473.804 302.437 474.188 301.795C474.578 301.153 475.112 300.655 475.79 300.301C476.474 299.947 477.263 299.77 478.157 299.77C478.985 299.77 479.729 299.956 480.389 300.328C481.049 300.694 481.568 301.204 481.946 301.858C482.324 302.506 482.513 303.253 482.513 304.099C482.513 304.717 482.429 305.236 482.261 305.656C482.093 306.076 481.841 306.463 481.505 306.817C481.175 307.171 480.764 307.564 480.272 307.996L476.339 311.479L476.141 310.939H482.513V312.982H473.594ZM488.385 313.243C487.737 313.243 487.125 313.117 486.549 312.865C485.973 312.613 485.472 312.256 485.046 311.794C484.626 311.332 484.323 310.786 484.137 310.156L486.234 309.589C486.384 310.105 486.657 310.504 487.053 310.786C487.455 311.062 487.896 311.197 488.376 311.191C488.802 311.191 489.183 311.092 489.519 310.894C489.855 310.696 490.119 310.429 490.311 310.093C490.503 309.751 490.599 309.37 490.599 308.95C490.599 308.308 490.392 307.771 489.978 307.339C489.564 306.907 489.03 306.691 488.376 306.691C488.178 306.691 487.983 306.718 487.791 306.772C487.605 306.826 487.425 306.901 487.251 306.997L486.261 305.287L490.617 301.561L490.806 302.083H484.641V300.04H492.588V302.092L489.087 305.458L489.069 304.819C489.855 304.873 490.524 305.092 491.076 305.476C491.634 305.86 492.06 306.355 492.354 306.961C492.654 307.567 492.804 308.23 492.804 308.95C492.804 309.766 492.603 310.498 492.201 311.146C491.805 311.794 491.271 312.307 490.599 312.685C489.933 313.057 489.195 313.243 488.385 313.243Z" fill="black"/>
<g filter="url(#filter4_d_1265_240)">
<ellipse cx="709" cy="305.5" rx="74" ry="73.5" fill="white"/>
<path d="M782 305.5C782 345.534 749.323 378 709 378C668.677 378 636 345.534 636 305.5C636 265.466 668.677 233 709 233C749.323 233 782 265.466 782 305.5Z" stroke="black" stroke-width="2"/>
</g>
<path d="M687.954 312.982V311.092L693.498 306.151C693.93 305.767 694.23 305.404 694.398 305.062C694.566 304.72 694.65 304.39 694.65 304.072C694.65 303.64 694.557 303.256 694.371 302.92C694.185 302.578 693.927 302.308 693.597 302.11C693.273 301.912 692.898 301.813 692.472 301.813C692.022 301.813 691.623 301.918 691.275 302.128C690.933 302.332 690.666 302.605 690.474 302.947C690.282 303.289 690.192 303.658 690.204 304.054H687.972C687.972 303.19 688.164 302.437 688.548 301.795C688.938 301.153 689.472 300.655 690.15 300.301C690.834 299.947 691.623 299.77 692.517 299.77C693.345 299.77 694.089 299.956 694.749 300.328C695.409 300.694 695.928 301.204 696.306 301.858C696.684 302.506 696.873 303.253 696.873 304.099C696.873 304.717 696.789 305.236 696.621 305.656C696.453 306.076 696.201 306.463 695.865 306.817C695.535 307.171 695.124 307.564 694.632 307.996L690.699 311.479L690.501 310.939H696.873V312.982H687.954ZM703.698 313.27C702.78 313.27 701.97 313.075 701.268 312.685C700.566 312.289 700.017 311.74 699.621 311.038C699.231 310.336 699.036 309.526 699.036 308.608V304.432C699.036 303.514 699.231 302.704 699.621 302.002C700.017 301.3 700.566 300.754 701.268 300.364C701.97 299.968 702.78 299.77 703.698 299.77C704.616 299.77 705.423 299.968 706.119 300.364C706.821 300.754 707.37 301.3 707.766 302.002C708.162 302.704 708.36 303.514 708.36 304.432V308.608C708.36 309.526 708.162 310.336 707.766 311.038C707.37 311.74 706.821 312.289 706.119 312.685C705.423 313.075 704.616 313.27 703.698 313.27ZM703.698 311.209C704.154 311.209 704.568 311.101 704.94 310.885C705.312 310.663 705.606 310.369 705.822 310.003C706.038 309.631 706.146 309.217 706.146 308.761V304.27C706.146 303.808 706.038 303.394 705.822 303.028C705.606 302.656 705.312 302.362 704.94 302.146C704.568 301.924 704.154 301.813 703.698 301.813C703.242 301.813 702.828 301.924 702.456 302.146C702.084 302.362 701.79 302.656 701.574 303.028C701.358 303.394 701.25 303.808 701.25 304.27V308.761C701.25 309.217 701.358 309.631 701.574 310.003C701.79 310.369 702.084 310.663 702.456 310.885C702.828 311.101 703.242 311.209 703.698 311.209ZM710.524 312.982V311.092L716.068 306.151C716.5 305.767 716.8 305.404 716.968 305.062C717.136 304.72 717.22 304.39 717.22 304.072C717.22 303.64 717.127 303.256 716.941 302.92C716.755 302.578 716.497 302.308 716.167 302.11C715.843 301.912 715.468 301.813 715.042 301.813C714.592 301.813 714.193 301.918 713.845 302.128C713.503 302.332 713.236 302.605 713.044 302.947C712.852 303.289 712.762 303.658 712.774 304.054H710.542C710.542 303.19 710.734 302.437 711.118 301.795C711.508 301.153 712.042 300.655 712.72 300.301C713.404 299.947 714.193 299.77 715.087 299.77C715.915 299.77 716.659 299.956 717.319 300.328C717.979 300.694 718.498 301.204 718.876 301.858C719.254 302.506 719.443 303.253 719.443 304.099C719.443 304.717 719.359 305.236 719.191 305.656C719.023 306.076 718.771 306.463 718.435 306.817C718.105 307.171 717.694 307.564 717.202 307.996L713.269 311.479L713.071 310.939H719.443V312.982H710.524ZM726.637 313V310.858H720.895V308.833L725.044 300.04H727.519L723.37 308.833H726.637V305.458H728.833V308.833H730.048V310.858H728.833V313H726.637Z" fill="black"/>
<g filter="url(#filter5_d_1265_240)">
<circle cx="821.5" cy="114.5" r="73.5" fill="white"/>
<circle cx="821.5" cy="114.5" r="72.5" stroke="black" stroke-width="2"/>
</g>
<path d="M794.291 106.27C793.385 106.27 792.569 106.12 791.843 105.82C791.123 105.514 790.526 105.082 790.052 104.524C789.584 103.966 789.278 103.303 789.134 102.535L790.484 102.31C790.7 103.15 791.156 103.81 791.852 104.29C792.548 104.764 793.379 105.001 794.345 105.001C794.981 105.001 795.551 104.902 796.055 104.704C796.559 104.5 796.955 104.212 797.243 103.84C797.531 103.468 797.675 103.027 797.675 102.517C797.675 102.181 797.615 101.896 797.495 101.662C797.375 101.422 797.216 101.224 797.018 101.068C796.82 100.912 796.604 100.783 796.37 100.681C796.136 100.573 795.908 100.486 795.686 100.42L792.401 99.439C792.005 99.325 791.639 99.181 791.303 99.007C790.967 98.827 790.673 98.614 790.421 98.368C790.175 98.116 789.983 97.822 789.845 97.486C789.707 97.15 789.638 96.766 789.638 96.334C789.638 95.602 789.83 94.969 790.214 94.435C790.598 93.901 791.123 93.49 791.789 93.202C792.455 92.914 793.214 92.773 794.066 92.779C794.93 92.779 795.701 92.932 796.379 93.238C797.063 93.544 797.627 93.982 798.071 94.552C798.515 95.116 798.809 95.785 798.953 96.559L797.567 96.811C797.477 96.247 797.27 95.758 796.946 95.344C796.622 94.93 796.208 94.612 795.704 94.39C795.206 94.162 794.657 94.045 794.057 94.039C793.475 94.039 792.956 94.138 792.5 94.336C792.05 94.528 791.693 94.792 791.429 95.128C791.165 95.464 791.033 95.848 791.033 96.28C791.033 96.718 791.153 97.069 791.393 97.333C791.639 97.597 791.939 97.804 792.293 97.954C792.653 98.104 793.001 98.227 793.337 98.323L795.875 99.07C796.139 99.142 796.448 99.247 796.802 99.385C797.162 99.517 797.51 99.709 797.846 99.961C798.188 100.207 798.47 100.531 798.692 100.933C798.914 101.335 799.025 101.845 799.025 102.463C799.025 103.063 798.905 103.6 798.665 104.074C798.431 104.548 798.098 104.947 797.666 105.271C797.24 105.595 796.739 105.841 796.163 106.009C795.593 106.183 794.969 106.27 794.291 106.27ZM804.996 106.27C804.048 106.27 803.226 106.06 802.53 105.64C801.84 105.22 801.303 104.629 800.919 103.867C800.535 103.105 800.343 102.211 800.343 101.185C800.343 100.123 800.532 99.205 800.91 98.431C801.288 97.657 801.819 97.06 802.503 96.64C803.193 96.22 804.006 96.01 804.942 96.01C805.902 96.01 806.721 96.232 807.399 96.676C808.077 97.114 808.59 97.744 808.938 98.566C809.286 99.388 809.445 100.369 809.415 101.509H808.065V101.041C808.041 99.781 807.768 98.83 807.246 98.188C806.73 97.546 805.974 97.225 804.978 97.225C803.934 97.225 803.133 97.564 802.575 98.242C802.023 98.92 801.747 99.886 801.747 101.14C801.747 102.364 802.023 103.315 802.575 103.993C803.133 104.665 803.922 105.001 804.942 105.001C805.638 105.001 806.244 104.842 806.76 104.524C807.282 104.2 807.693 103.735 807.993 103.129L809.226 103.606C808.842 104.452 808.275 105.109 807.525 105.577C806.781 106.039 805.938 106.27 804.996 106.27ZM801.279 101.509V100.402H808.704V101.509H801.279ZM811.412 106V96.28H812.6V98.62L812.366 98.314C812.474 98.026 812.615 97.762 812.789 97.522C812.963 97.276 813.152 97.075 813.356 96.919C813.608 96.697 813.902 96.529 814.238 96.415C814.574 96.295 814.913 96.226 815.255 96.208C815.597 96.184 815.909 96.208 816.191 96.28V97.522C815.837 97.432 815.45 97.411 815.03 97.459C814.61 97.507 814.223 97.675 813.869 97.963C813.545 98.215 813.302 98.518 813.14 98.872C812.978 99.22 812.87 99.592 812.816 99.988C812.762 100.378 812.735 100.765 812.735 101.149V106H811.412ZM818.079 94.435V92.95H819.402V94.435H818.079ZM818.079 106V96.28H819.402V106H818.079ZM826.213 106.27C825.265 106.27 824.443 106.06 823.747 105.64C823.057 105.22 822.52 104.629 822.136 103.867C821.752 103.105 821.56 102.211 821.56 101.185C821.56 100.123 821.749 99.205 822.127 98.431C822.505 97.657 823.036 97.06 823.72 96.64C824.41 96.22 825.223 96.01 826.159 96.01C827.119 96.01 827.938 96.232 828.616 96.676C829.294 97.114 829.807 97.744 830.155 98.566C830.503 99.388 830.662 100.369 830.632 101.509H829.282V101.041C829.258 99.781 828.985 98.83 828.463 98.188C827.947 97.546 827.191 97.225 826.195 97.225C825.151 97.225 824.35 97.564 823.792 98.242C823.24 98.92 822.964 99.886 822.964 101.14C822.964 102.364 823.24 103.315 823.792 103.993C824.35 104.665 825.139 105.001 826.159 105.001C826.855 105.001 827.461 104.842 827.977 104.524C828.499 104.2 828.91 103.735 829.21 103.129L830.443 103.606C830.059 104.452 829.492 105.109 828.742 105.577C827.998 106.039 827.155 106.27 826.213 106.27ZM822.496 101.509V100.402H829.921V101.509H822.496ZM836.256 106.261C835.116 106.261 834.177 106.015 833.439 105.523C832.707 105.031 832.257 104.347 832.089 103.471L833.439 103.246C833.583 103.798 833.91 104.239 834.42 104.569C834.936 104.893 835.572 105.055 836.328 105.055C837.066 105.055 837.648 104.902 838.074 104.596C838.5 104.284 838.713 103.861 838.713 103.327C838.713 103.027 838.644 102.784 838.506 102.598C838.374 102.406 838.101 102.229 837.687 102.067C837.273 101.905 836.655 101.713 835.833 101.491C834.951 101.251 834.261 101.011 833.763 100.771C833.265 100.531 832.911 100.255 832.701 99.943C832.491 99.625 832.386 99.238 832.386 98.782C832.386 98.23 832.542 97.747 832.854 97.333C833.166 96.913 833.598 96.589 834.15 96.361C834.702 96.127 835.344 96.01 836.076 96.01C836.808 96.01 837.462 96.13 838.038 96.37C838.62 96.604 839.088 96.934 839.442 97.36C839.796 97.786 840.006 98.281 840.072 98.845L838.722 99.088C838.632 98.518 838.347 98.068 837.867 97.738C837.393 97.402 836.79 97.228 836.058 97.216C835.368 97.198 834.807 97.33 834.375 97.612C833.943 97.888 833.727 98.257 833.727 98.719C833.727 98.977 833.805 99.199 833.961 99.385C834.117 99.565 834.399 99.736 834.807 99.898C835.221 100.06 835.809 100.237 836.571 100.429C837.465 100.657 838.167 100.897 838.677 101.149C839.187 101.401 839.55 101.698 839.766 102.04C839.982 102.382 840.09 102.805 840.09 103.309C840.09 104.227 839.748 104.95 839.064 105.478C838.386 106 837.45 106.261 836.256 106.261ZM845.69 106V93.04H850.694C851.42 93.04 852.053 93.19 852.593 93.49C853.133 93.79 853.553 94.195 853.853 94.705C854.153 95.209 854.303 95.767 854.303 96.379C854.303 97.075 854.117 97.696 853.745 98.242C853.373 98.782 852.875 99.157 852.251 99.367L852.233 98.926C853.073 99.166 853.733 99.586 854.213 100.186C854.693 100.786 854.933 101.512 854.933 102.364C854.933 103.114 854.774 103.762 854.456 104.308C854.138 104.848 853.691 105.265 853.115 105.559C852.539 105.853 851.87 106 851.108 106H845.69ZM847.022 104.731H850.784C851.312 104.731 851.786 104.638 852.206 104.452C852.626 104.26 852.956 103.99 853.196 103.642C853.442 103.294 853.565 102.874 853.565 102.382C853.565 101.902 853.454 101.47 853.232 101.086C853.01 100.702 852.707 100.396 852.323 100.168C851.945 99.934 851.513 99.817 851.027 99.817H847.022V104.731ZM847.022 98.566H850.685C851.099 98.566 851.477 98.473 851.819 98.287C852.161 98.095 852.431 97.834 852.629 97.504C852.833 97.174 852.935 96.793 852.935 96.361C852.935 95.749 852.722 95.251 852.296 94.867C851.876 94.483 851.339 94.291 850.685 94.291H847.022V98.566ZM792.266 138V127.56C792.266 127.308 792.278 127.059 792.302 126.813C792.332 126.567 792.389 126.333 792.473 126.111C792.557 125.883 792.689 125.673 792.869 125.481C793.067 125.265 793.283 125.109 793.517 125.013C793.751 124.911 793.994 124.845 794.246 124.815C794.504 124.785 794.756 124.77 795.002 124.77H796.244V125.886H795.092C794.588 125.886 794.21 126.009 793.958 126.255C793.712 126.501 793.589 126.888 793.589 127.416V138H792.266ZM790.583 129.414V128.28H796.244V129.414H790.583ZM801.401 138.243C800.819 138.243 800.309 138.153 799.871 137.973C799.439 137.793 799.07 137.55 798.764 137.244C798.464 136.938 798.221 136.59 798.035 136.2C797.849 135.804 797.714 135.387 797.63 134.949C797.546 134.505 797.504 134.064 797.504 133.626V128.28H798.836V133.239C798.836 133.773 798.887 134.268 798.989 134.724C799.091 135.18 799.253 135.579 799.475 135.921C799.703 136.257 799.994 136.518 800.348 136.704C800.708 136.89 801.143 136.983 801.653 136.983C802.121 136.983 802.532 136.902 802.886 136.74C803.246 136.578 803.546 136.347 803.786 136.047C804.032 135.741 804.218 135.372 804.344 134.94C804.47 134.502 804.533 134.01 804.533 133.464L805.469 133.671C805.469 134.667 805.295 135.504 804.947 136.182C804.599 136.86 804.119 137.373 803.507 137.721C802.895 138.069 802.193 138.243 801.401 138.243ZM804.668 138V135.606H804.533V128.28H805.856V138H804.668ZM815.391 138V133.041C815.391 132.501 815.34 132.006 815.238 131.556C815.136 131.1 814.971 130.704 814.743 130.368C814.521 130.026 814.23 129.762 813.87 129.576C813.516 129.39 813.084 129.297 812.574 129.297C812.106 129.297 811.692 129.378 811.332 129.54C810.978 129.702 810.678 129.936 810.432 130.242C810.192 130.542 810.009 130.908 809.883 131.34C809.757 131.772 809.694 132.264 809.694 132.816L808.758 132.609C808.758 131.613 808.932 130.776 809.28 130.098C809.628 129.42 810.108 128.907 810.72 128.559C811.332 128.211 812.034 128.037 812.826 128.037C813.408 128.037 813.915 128.127 814.347 128.307C814.785 128.487 815.154 128.73 815.454 129.036C815.76 129.342 816.006 129.693 816.192 130.089C816.378 130.479 816.513 130.896 816.597 131.34C816.681 131.778 816.723 132.216 816.723 132.654V138H815.391ZM808.362 138V128.28H809.559V130.674H809.694V138H808.362ZM822.777 138.27C821.871 138.27 821.097 138.045 820.455 137.595C819.813 137.139 819.321 136.524 818.979 135.75C818.637 134.976 818.466 134.103 818.466 133.131C818.466 132.165 818.634 131.295 818.97 130.521C819.312 129.747 819.801 129.135 820.437 128.685C821.073 128.235 821.835 128.01 822.723 128.01C823.635 128.01 824.403 128.232 825.027 128.676C825.651 129.12 826.122 129.729 826.44 130.503C826.764 131.271 826.926 132.147 826.926 133.131C826.926 134.097 826.767 134.97 826.449 135.75C826.131 136.524 825.663 137.139 825.045 137.595C824.427 138.045 823.671 138.27 822.777 138.27ZM822.912 137.037C823.602 137.037 824.172 136.869 824.622 136.533C825.072 136.197 825.408 135.735 825.63 135.147C825.852 134.553 825.963 133.881 825.963 133.131C825.963 132.369 825.852 131.697 825.63 131.115C825.408 130.527 825.072 130.068 824.622 129.738C824.178 129.408 823.617 129.243 822.939 129.243C822.243 129.243 821.667 129.414 821.211 129.756C820.755 130.098 820.416 130.563 820.194 131.151C819.978 131.739 819.87 132.399 819.87 133.131C819.87 133.869 819.981 134.535 820.203 135.129C820.431 135.717 820.77 136.182 821.22 136.524C821.67 136.866 822.234 137.037 822.912 137.037ZM825.963 138V130.683H825.819V125.04H827.151V138H825.963ZM829.856 126.435V124.95H831.179V126.435H829.856ZM829.856 138V128.28H831.179V138H829.856ZM840.897 138V133.041C840.897 132.501 840.846 132.006 840.744 131.556C840.642 131.1 840.477 130.704 840.249 130.368C840.027 130.026 839.736 129.762 839.376 129.576C839.022 129.39 838.59 129.297 838.08 129.297C837.612 129.297 837.198 129.378 836.838 129.54C836.484 129.702 836.184 129.936 835.938 130.242C835.698 130.542 835.515 130.908 835.389 131.34C835.263 131.772 835.2 132.264 835.2 132.816L834.264 132.609C834.264 131.613 834.438 130.776 834.786 130.098C835.134 129.42 835.614 128.907 836.226 128.559C836.838 128.211 837.54 128.037 838.332 128.037C838.914 128.037 839.421 128.127 839.853 128.307C840.291 128.487 840.66 128.73 840.96 129.036C841.266 129.342 841.512 129.693 841.698 130.089C841.884 130.479 842.019 130.896 842.103 131.34C842.187 131.778 842.229 132.216 842.229 132.654V138H840.897ZM833.868 138V128.28H835.065V130.674H835.2V138H833.868ZM848.426 142.59C847.928 142.59 847.436 142.515 846.95 142.365C846.47 142.221 846.026 141.99 845.618 141.672C845.21 141.36 844.868 140.952 844.592 140.448L845.789 139.782C846.059 140.322 846.437 140.709 846.923 140.943C847.415 141.183 847.916 141.303 848.426 141.303C849.128 141.303 849.695 141.171 850.127 140.907C850.565 140.649 850.883 140.265 851.081 139.755C851.279 139.245 851.375 138.609 851.369 137.847V135.255H851.522V128.28H852.701V137.865C852.701 138.141 852.692 138.405 852.674 138.657C852.662 138.915 852.635 139.167 852.593 139.413C852.479 140.139 852.242 140.736 851.882 141.204C851.528 141.672 851.06 142.02 850.478 142.248C849.902 142.476 849.218 142.59 848.426 142.59ZM848.336 138.27C847.43 138.27 846.656 138.045 846.014 137.595C845.372 137.139 844.88 136.524 844.538 135.75C844.196 134.976 844.025 134.103 844.025 133.131C844.025 132.165 844.193 131.295 844.529 130.521C844.871 129.747 845.36 129.135 845.996 128.685C846.632 128.235 847.394 128.01 848.282 128.01C849.194 128.01 849.962 128.232 850.586 128.676C851.21 129.12 851.681 129.729 851.999 130.503C852.323 131.271 852.485 132.147 852.485 133.131C852.485 134.097 852.326 134.97 852.008 135.75C851.69 136.524 851.222 137.139 850.604 137.595C849.986 138.045 849.23 138.27 848.336 138.27ZM848.471 137.037C849.161 137.037 849.731 136.869 850.181 136.533C850.631 136.197 850.967 135.735 851.189 135.147C851.411 134.553 851.522 133.881 851.522 133.131C851.522 132.369 851.411 131.697 851.189 131.115C850.967 130.527 850.631 130.068 850.181 129.738C849.737 129.408 849.176 129.243 848.498 129.243C847.802 129.243 847.226 129.414 846.77 129.756C846.314 130.098 845.975 130.563 845.753 131.151C845.537 131.739 845.429 132.399 845.429 133.131C845.429 133.869 845.54 134.535 845.762 135.129C845.99 135.717 846.329 136.182 846.779 136.524C847.229 136.866 847.793 137.037 848.471 137.037Z" fill="black"/>
<g filter="url(#filter6_d_1265_240)">
<circle cx="1055.5" cy="114.5" r="73.5" fill="white"/>
<circle cx="1055.5" cy="114.5" r="72.5" stroke="black" stroke-width="2"/>
</g>
<path d="M1043.4 121V108.04H1044.72V121H1043.4ZM1047.42 121V108.04H1052.42C1052.55 108.04 1052.69 108.046 1052.84 108.058C1053.01 108.064 1053.17 108.082 1053.33 108.112C1054.01 108.214 1054.58 108.451 1055.05 108.823C1055.52 109.189 1055.88 109.651 1056.12 110.209C1056.37 110.767 1056.49 111.385 1056.49 112.063C1056.49 112.735 1056.37 113.35 1056.12 113.908C1055.87 114.466 1055.51 114.931 1055.04 115.303C1054.57 115.669 1054 115.903 1053.33 116.005C1053.17 116.029 1053.01 116.047 1052.84 116.059C1052.69 116.071 1052.55 116.077 1052.42 116.077H1048.74V121H1047.42ZM1048.74 114.817H1052.38C1052.49 114.817 1052.62 114.811 1052.76 114.799C1052.91 114.787 1053.05 114.766 1053.19 114.736C1053.63 114.64 1053.99 114.457 1054.27 114.187C1054.56 113.917 1054.78 113.596 1054.91 113.224C1055.06 112.852 1055.13 112.465 1055.13 112.063C1055.13 111.661 1055.06 111.274 1054.91 110.902C1054.78 110.524 1054.56 110.2 1054.27 109.93C1053.99 109.66 1053.63 109.477 1053.19 109.381C1053.05 109.351 1052.91 109.333 1052.76 109.327C1052.62 109.315 1052.49 109.309 1052.38 109.309H1048.74V114.817ZM1063.53 121.27C1062.24 121.27 1061.15 120.985 1060.26 120.415C1059.37 119.839 1058.7 119.044 1058.24 118.03C1057.79 117.016 1057.56 115.846 1057.56 114.52C1057.56 113.194 1057.79 112.024 1058.24 111.01C1058.7 109.996 1059.37 109.204 1060.26 108.634C1061.15 108.058 1062.24 107.77 1063.53 107.77C1064.82 107.77 1065.91 108.058 1066.79 108.634C1067.68 109.204 1068.35 109.996 1068.81 111.01C1069.27 112.024 1069.5 113.194 1069.5 114.52C1069.5 115.846 1069.27 117.016 1068.81 118.03C1068.35 119.044 1067.68 119.839 1066.79 120.415C1065.91 120.985 1064.82 121.27 1063.53 121.27ZM1063.53 120.001C1064.54 120.001 1065.39 119.77 1066.06 119.308C1066.74 118.846 1067.25 118.204 1067.59 117.382C1067.93 116.554 1068.1 115.6 1068.1 114.52C1068.1 113.44 1067.93 112.489 1067.59 111.667C1067.25 110.845 1066.74 110.203 1066.06 109.741C1065.39 109.279 1064.54 109.045 1063.53 109.039C1062.51 109.039 1061.67 109.27 1061 109.732C1060.33 110.194 1059.82 110.839 1059.48 111.667C1059.14 112.489 1058.97 113.44 1058.96 114.52C1058.96 115.6 1059.12 116.551 1059.46 117.373C1059.8 118.189 1060.31 118.831 1060.99 119.299C1061.67 119.761 1062.51 119.995 1063.53 120.001Z" fill="black"/>
<path d="M211.5 115.5H260" stroke="black" stroke-width="2" stroke-linecap="round" stroke-dasharray="8 8"/>
<path d="M446 115.5H494.5" stroke="black" stroke-width="2" stroke-linecap="round" stroke-dasharray="8 8"/>
<path d="M681 115.5H729.5" stroke="black" stroke-width="2" stroke-linecap="round" stroke-dasharray="8 8"/>
<path d="M566 313H614.5" stroke="black" stroke-width="2" stroke-linecap="round" stroke-dasharray="8 8"/>
<path d="M915 115.5H963.5" stroke="black" stroke-width="2" stroke-linecap="round" stroke-dasharray="8 8"/>
<defs>
<filter id="filter0_d_1265_240" x="0" y="2" width="237.235" height="237.235" filterUnits="userSpaceOnUse" color-interpolation-filters="sRGB">
<feFlood flood-opacity="0" result="BackgroundImageFix"/>
<feColorMatrix in="SourceAlpha" type="matrix" values="0 0 0 0 0 0 0 0 0 0 0 0 0 0 0 0 0 0 127 0" result="hardAlpha"/>
<feOffset dy="4"/>
<feGaussianBlur stdDeviation="22.5"/>
<feComposite in2="hardAlpha" operator="out"/>
<feColorMatrix type="matrix" values="0 0 0 0 0 0 0 0 0 0 0 0 0 0 0 0 0 0 0.25 0"/>
<feBlend mode="normal" in2="BackgroundImageFix" result="effect1_dropShadow_1265_240"/>
<feBlend mode="normal" in="SourceGraphic" in2="effect1_dropShadow_1265_240" result="shape"/>
</filter>
<filter id="filter1_d_1265_240" x="234" y="0" width="237" height="237" filterUnits="userSpaceOnUse" color-interpolation-filters="sRGB">
<feFlood flood-opacity="0" result="BackgroundImageFix"/>
<feColorMatrix in="SourceAlpha" type="matrix" values="0 0 0 0 0 0 0 0 0 0 0 0 0 0 0 0 0 0 127 0" result="hardAlpha"/>
<feOffset dy="4"/>
<feGaussianBlur stdDeviation="22.5"/>
<feComposite in2="hardAlpha" operator="out"/>
<feColorMatrix type="matrix" values="0 0 0 0 0 0 0 0 0 0 0 0 0 0 0 0 0 0 0.25 0"/>
<feBlend mode="normal" in2="BackgroundImageFix" result="effect1_dropShadow_1265_240"/>
<feBlend mode="normal" in="SourceGraphic" in2="effect1_dropShadow_1265_240" result="shape"/>
</filter>
<filter id="filter2_d_1265_240" x="468" y="0" width="238" height="237" filterUnits="userSpaceOnUse" color-interpolation-filters="sRGB">
<feFlood flood-opacity="0" result="BackgroundImageFix"/>
<feColorMatrix in="SourceAlpha" type="matrix" values="0 0 0 0 0 0 0 0 0 0 0 0 0 0 0 0 0 0 127 0" result="hardAlpha"/>
<feOffset dy="4"/>
<feGaussianBlur stdDeviation="22.5"/>
<feComposite in2="hardAlpha" operator="out"/>
<feColorMatrix type="matrix" values="0 0 0 0 0 0 0 0 0 0 0 0 0 0 0 0 0 0 0.25 0"/>
<feBlend mode="normal" in2="BackgroundImageFix" result="effect1_dropShadow_1265_240"/>
<feBlend mode="normal" in="SourceGraphic" in2="effect1_dropShadow_1265_240" result="shape"/>
</filter>
<filter id="filter3_d_1265_240" x="353" y="191" width="238" height="237" filterUnits="userSpaceOnUse" color-interpolation-filters="sRGB">
<feFlood flood-opacity="0" result="BackgroundImageFix"/>
<feColorMatrix in="SourceAlpha" type="matrix" values="0 0 0 0 0 0 0 0 0 0 0 0 0 0 0 0 0 0 127 0" result="hardAlpha"/>
<feOffset dy="4"/>
<feGaussianBlur stdDeviation="22.5"/>
<feComposite in2="hardAlpha" operator="out"/>
<feColorMatrix type="matrix" values="0 0 0 0 0 0 0 0 0 0 0 0 0 0 0 0 0 0 0.25 0"/>
<feBlend mode="normal" in2="BackgroundImageFix" result="effect1_dropShadow_1265_240"/>
<feBlend mode="normal" in="SourceGraphic" in2="effect1_dropShadow_1265_240" result="shape"/>
</filter>
<filter id="filter4_d_1265_240" x="590" y="191" width="238" height="237" filterUnits="userSpaceOnUse" color-interpolation-filters="sRGB">
<feFlood flood-opacity="0" result="BackgroundImageFix"/>
<feColorMatrix in="SourceAlpha" type="matrix" values="0 0 0 0 0 0 0 0 0 0 0 0 0 0 0 0 0 0 127 0" result="hardAlpha"/>
<feOffset dy="4"/>
<feGaussianBlur stdDeviation="22.5"/>
<feComposite in2="hardAlpha" operator="out"/>
<feColorMatrix type="matrix" values="0 0 0 0 0 0 0 0 0 0 0 0 0 0 0 0 0 0 0.25 0"/>
<feBlend mode="normal" in2="BackgroundImageFix" result="effect1_dropShadow_1265_240"/>
<feBlend mode="normal" in="SourceGraphic" in2="effect1_dropShadow_1265_240" result="shape"/>
</filter>
<filter id="filter5_d_1265_240" x="703" y="0" width="237" height="237" filterUnits="userSpaceOnUse" color-interpolation-filters="sRGB">
<feFlood flood-opacity="0" result="BackgroundImageFix"/>
<feColorMatrix in="SourceAlpha" type="matrix" values="0 0 0 0 0 0 0 0 0 0 0 0 0 0 0 0 0 0 127 0" result="hardAlpha"/>
<feOffset dy="4"/>
<feGaussianBlur stdDeviation="22.5"/>
<feComposite in2="hardAlpha" operator="out"/>
<feColorMatrix type="matrix" values="0 0 0 0 0 0 0 0 0 0 0 0 0 0 0 0 0 0 0.25 0"/>
<feBlend mode="normal" in2="BackgroundImageFix" result="effect1_dropShadow_1265_240"/>
<feBlend mode="normal" in="SourceGraphic" in2="effect1_dropShadow_1265_240" result="shape"/>
</filter>
<filter id="filter6_d_1265_240" x="937" y="0" width="237" height="237" filterUnits="userSpaceOnUse" color-interpolation-filters="sRGB">
<feFlood flood-opacity="0" result="BackgroundImageFix"/>
<feColorMatrix in="SourceAlpha" type="matrix" values="0 0 0 0 0 0 0 0 0 0 0 0 0 0 0 0 0 0 127 0" result="hardAlpha"/>
<feOffset dy="4"/>
<feGaussianBlur stdDeviation="22.5"/>
<feComposite in2="hardAlpha" operator="out"/>
<feColorMatrix type="matrix" values="0 0 0 0 0 0 0 0 0 0 0 0 0 0 0 0 0 0 0.25 0"/>
<feBlend mode="normal" in2="BackgroundImageFix" result="effect1_dropShadow_1265_240"/>
<feBlend mode="normal" in="SourceGraphic" in2="effect1_dropShadow_1265_240" result="shape"/>
</filter>
</defs>
</svg>
