<svg width="119" height="81" viewBox="0 0 119 81" fill="none" xmlns="http://www.w3.org/2000/svg">
<g filter="url(#filter0_d_1051_136)">
<rect x="4" width="111" height="73" rx="7" fill="white"/>
</g>
<g clip-path="url(#clip0_1051_136)">
<path d="M102 30.1628C101.419 30.9302 101.164 31.8372 100.792 32.6977C97.6568 39.8605 94.5446 47.0465 91.4556 54.2326C91.2234 54.7907 90.9447 55.0465 90.3176 55C89.5047 54.9302 88.6918 54.9768 87.8789 54.9768C87.786 54.5814 88.0415 54.3023 88.1809 54C89.2725 51.5814 90.3873 49.1628 91.5253 46.7675C91.7343 46.3256 91.7111 45.9768 91.5253 45.5581C89.3654 40.6977 87.2286 35.8372 85.0919 30.9768C84.9525 30.6279 84.7899 30.3023 84.6041 29.8372C85.7189 29.8372 86.7409 29.8605 87.786 29.8372C88.2738 29.814 88.3202 30.2093 88.4363 30.5116C89.9924 34.2791 91.5485 38.0233 93.1046 41.7907C93.1743 41.9535 93.244 42.093 93.3834 42.3721C94.3588 39.9535 95.3111 37.6047 96.2633 35.2791C96.8904 33.6977 97.5639 32.1395 98.1446 30.5349C98.3536 29.9535 98.6555 29.814 99.213 29.8372C100.142 29.8837 101.071 29.8372 101.977 29.814C102 29.9302 102 30.0465 102 30.1628Z" fill="#393F42"/>
<path d="M14.6025 28.0698C17.018 23.3488 20.8966 20.6977 26.1224 20.093C30.0707 19.6512 33.6242 20.6977 36.7364 23.2325C37.2474 23.6512 37.3403 23.8837 36.8061 24.3721C35.6913 25.3953 34.6461 26.4884 33.601 27.5581C33.3455 27.8139 33.1829 27.9535 32.8345 27.6512C28.7933 24.1628 21.8953 25.5814 19.596 31.3488C19.5496 31.4884 19.4799 31.6046 19.4102 31.7442C19.1547 31.8139 18.9457 31.6977 18.7831 31.5349C17.5289 30.5581 16.2748 29.5581 14.9974 28.6046C14.7883 28.4884 14.6722 28.3023 14.6025 28.0698Z" fill="#EF4537"/>
<path d="M19.4102 37.4186C20.6876 40.6511 22.9173 42.7442 26.4011 43.3023C28.6308 43.6744 30.6978 43.1395 32.6255 42.0232C33.2526 42.1628 33.6475 42.6279 34.1352 42.9767C34.9945 43.5814 35.8074 44.279 36.6435 44.9302C36.8758 45.1163 37.201 45.2558 37.201 45.6279C35.4126 47.4186 33.2062 48.3488 30.7907 48.8604C24.3805 50.2325 17.738 47.1628 14.7419 41.3953C14.6955 41.3023 14.649 41.186 14.6258 41.0697C14.7187 40.7907 14.9277 40.5814 15.16 40.3953C16.3213 39.4883 17.4825 38.5581 18.667 37.6977C18.8528 37.5349 19.0619 37.3023 19.4102 37.4186Z" fill="#10A84B"/>
<path d="M37.1777 45.6278C35.6681 44.4185 34.1352 43.2092 32.6255 41.9999C33.81 41.0231 34.7855 39.9069 35.25 38.4185C35.552 37.465 35.552 37.465 34.5765 37.465C32.4862 37.465 30.4191 37.4417 28.3288 37.4883C27.7714 37.4883 27.5856 37.3255 27.6088 36.7673C27.6553 35.3487 27.6321 33.9301 27.6088 32.5115C27.6088 32.0231 27.7714 31.8604 28.2592 31.8604C32.3933 31.8836 36.5274 31.8604 40.6848 31.8836C40.9867 31.8836 41.3119 31.7906 41.3815 32.3022C42.0086 37.3255 41.0796 41.8604 37.3635 45.558C37.2939 45.6045 37.2474 45.6045 37.1777 45.6278Z" fill="#427DC0"/>
<path d="M19.4102 37.4187C17.8077 38.6512 16.2051 39.8605 14.6026 41.0931C12.4658 36.7442 12.4658 32.4187 14.6026 28.0698C16.2051 29.3024 17.8077 30.5117 19.4102 31.7442C18.8296 33.628 18.8064 35.5349 19.4102 37.4187Z" fill="#FEBB14"/>
<path d="M67.6263 27.3953C66.7205 24.2325 63.7012 21.9069 60.2406 21.8604C57.5464 21.8139 54.8523 21.8604 52.1581 21.8139C51.4614 21.7906 51.2291 21.9534 51.2523 22.6976C51.2988 26.6743 51.2756 30.6278 51.2756 34.6046C51.2756 38.0232 51.2523 41.4418 51.2756 44.8604C51.2756 45.6511 50.904 46.6976 51.4382 47.186C51.9723 47.6511 52.9943 47.2557 53.7839 47.3255C54.3878 47.372 54.5504 47.186 54.5504 46.558C54.5271 43.6278 54.5736 40.6976 54.5271 37.7673C54.5271 37.0464 54.7362 36.9069 55.3865 36.9301C57.1516 36.9767 58.9168 36.9766 60.6819 36.9069C65.5128 36.7673 68.9269 32.0232 67.6263 27.3953ZM60.2871 33.8371C58.5916 33.8836 56.8729 33.8371 55.1775 33.8604C54.6665 33.8604 54.5504 33.6976 54.5736 33.2092C54.5968 31.9301 54.5736 30.6511 54.5736 29.3953C54.5736 28.1394 54.5736 26.8371 54.5736 25.5813C54.5736 25.186 54.6433 24.9999 55.0846 25.0232C56.9426 25.0697 58.8006 24.9767 60.6354 25.1162C62.9812 25.3022 64.6302 27.3487 64.5373 29.7208C64.4212 31.9301 62.5632 33.7673 60.2871 33.8371Z" fill="#393F42"/>
<path d="M84.2557 36.4419C84.2557 35.7675 84.1629 35.1164 84.0003 34.4652C83.1874 31.4652 81.1203 29.8838 78.1242 29.4652C74.9423 29.0001 72.0856 29.5815 69.856 32.1396C69.4844 32.5815 69.3682 32.8605 69.9953 33.1629C70.6224 33.4652 71.203 33.8605 71.7604 34.2559C72.1321 34.535 72.3411 34.5117 72.6662 34.1164C73.4559 33.0931 74.5475 32.5117 75.8249 32.3024C78.7978 31.7908 81.4455 34.1396 81.0506 36.9768C78.7049 35.8838 76.243 35.7675 73.7578 36.2791C70.8082 36.8838 68.9269 39.0233 68.834 41.6745C68.6947 45.628 72.434 48.2791 76.4055 47.8373C78.3797 47.6047 79.8429 46.5582 81.0506 44.8373C81.2364 45.7908 80.7952 46.7675 81.2829 47.1861C81.8171 47.6512 82.7693 47.2791 83.559 47.3257C84.1164 47.3722 84.3022 47.1861 84.279 46.6047C84.2557 43.2094 84.2557 39.8373 84.2557 36.4419ZM81.0971 40.3489C80.7487 43.2791 77.6133 45.4884 74.7565 44.7908C73.4559 44.4652 72.4108 43.4884 72.2714 42.4187C72.0856 41.1164 72.6895 40.0233 73.9901 39.3024C74.8494 38.8373 75.8017 38.628 77.3346 38.6512C78.3333 38.6512 79.541 38.8838 80.6558 39.5117C81.0274 39.6978 81.1435 39.9303 81.0971 40.3489Z" fill="#393F42"/>
</g>
<defs>
<filter id="filter0_d_1051_136" x="0" y="0" width="119" height="81" filterUnits="userSpaceOnUse" color-interpolation-filters="sRGB">
<feFlood flood-opacity="0" result="BackgroundImageFix"/>
<feColorMatrix in="SourceAlpha" type="matrix" values="0 0 0 0 0 0 0 0 0 0 0 0 0 0 0 0 0 0 127 0" result="hardAlpha"/>
<feOffset dy="4"/>
<feGaussianBlur stdDeviation="2"/>
<feComposite in2="hardAlpha" operator="out"/>
<feColorMatrix type="matrix" values="0 0 0 0 0 0 0 0 0 0 0 0 0 0 0 0 0 0 0.25 0"/>
<feBlend mode="normal" in2="BackgroundImageFix" result="effect1_dropShadow_1051_136"/>
<feBlend mode="normal" in="SourceGraphic" in2="effect1_dropShadow_1051_136" result="shape"/>
</filter>
<clipPath id="clip0_1051_136">
<rect width="89" height="35" fill="white" transform="translate(13 20)"/>
</clipPath>
</defs>
</svg>
