<svg width="269" height="229" viewBox="0 0 269 229" fill="none" xmlns="http://www.w3.org/2000/svg">
<g filter="url(#filter0_d_1265_241)">
<ellipse cx="154" cy="110.5" rx="85" ry="84.5" fill="white"/>
<path d="M238 110.5C238 156.61 200.397 194 154 194C107.603 194 70 156.61 70 110.5C70 64.3898 107.603 27 154 27C200.397 27 238 64.3898 238 110.5Z" stroke="black" stroke-width="2"/>
</g>
<path d="M94.5731 109V97.48H96.5011V102.328H101.957V97.48H103.877V109H101.957V104.136H96.5011V109H94.5731ZM110.048 109.24C109.173 109.24 108.405 109.051 107.744 108.672C107.083 108.293 106.565 107.768 106.192 107.096C105.824 106.424 105.64 105.651 105.64 104.776C105.64 103.832 105.821 103.013 106.184 102.32C106.547 101.621 107.051 101.08 107.696 100.696C108.341 100.312 109.088 100.12 109.936 100.12C110.832 100.12 111.592 100.331 112.216 100.752C112.845 101.168 113.312 101.757 113.616 102.52C113.92 103.283 114.035 104.181 113.96 105.216H112.048V104.512C112.043 103.573 111.877 102.888 111.552 102.456C111.227 102.024 110.715 101.808 110.016 101.808C109.227 101.808 108.64 102.053 108.256 102.544C107.872 103.029 107.68 103.741 107.68 104.68C107.68 105.555 107.872 106.232 108.256 106.712C108.64 107.192 109.2 107.432 109.936 107.432C110.411 107.432 110.819 107.328 111.16 107.12C111.507 106.907 111.773 106.6 111.96 106.2L113.864 106.776C113.533 107.555 113.021 108.16 112.328 108.592C111.64 109.024 110.88 109.24 110.048 109.24ZM107.072 105.216V103.76H113.016V105.216H107.072ZM115.905 109V97.24H117.833V109H115.905ZM124.381 109.24C123.539 109.24 122.832 109.04 122.261 108.64C121.691 108.24 121.261 107.696 120.973 107.008C120.685 106.315 120.541 105.539 120.541 104.68C120.541 103.811 120.685 103.032 120.973 102.344C121.261 101.656 121.683 101.115 122.237 100.72C122.797 100.32 123.488 100.12 124.309 100.12C125.125 100.12 125.832 100.32 126.429 100.72C127.032 101.115 127.499 101.656 127.829 102.344C128.16 103.027 128.325 103.805 128.325 104.68C128.325 105.544 128.163 106.32 127.837 107.008C127.512 107.696 127.053 108.24 126.461 108.64C125.869 109.04 125.176 109.24 124.381 109.24ZM120.213 112.84V100.36H121.917V106.424H122.157V112.84H120.213ZM124.085 107.512C124.587 107.512 125 107.387 125.325 107.136C125.651 106.885 125.891 106.547 126.045 106.12C126.205 105.688 126.285 105.208 126.285 104.68C126.285 104.157 126.205 103.683 126.045 103.256C125.885 102.824 125.637 102.483 125.301 102.232C124.965 101.976 124.539 101.848 124.021 101.848C123.531 101.848 123.131 101.968 122.821 102.208C122.512 102.443 122.283 102.773 122.133 103.2C121.989 103.621 121.917 104.115 121.917 104.68C121.917 105.24 121.989 105.733 122.133 106.16C122.283 106.587 122.515 106.92 122.829 107.16C123.149 107.395 123.568 107.512 124.085 107.512ZM133.222 109.24C132.155 109.24 131.288 109 130.622 108.52C129.955 108.04 129.55 107.365 129.406 106.496L131.374 106.192C131.475 106.619 131.699 106.955 132.046 107.2C132.392 107.445 132.83 107.568 133.358 107.568C133.822 107.568 134.179 107.477 134.43 107.296C134.686 107.109 134.814 106.856 134.814 106.536C134.814 106.339 134.766 106.181 134.67 106.064C134.579 105.941 134.376 105.824 134.062 105.712C133.747 105.6 133.264 105.459 132.614 105.288C131.888 105.096 131.312 104.891 130.886 104.672C130.459 104.448 130.152 104.184 129.966 103.88C129.779 103.576 129.686 103.208 129.686 102.776C129.686 102.237 129.827 101.768 130.11 101.368C130.392 100.968 130.787 100.661 131.294 100.448C131.8 100.229 132.398 100.12 133.086 100.12C133.758 100.12 134.352 100.224 134.87 100.432C135.392 100.64 135.814 100.936 136.134 101.32C136.454 101.704 136.651 102.155 136.726 102.672L134.758 103.024C134.71 102.656 134.542 102.365 134.254 102.152C133.971 101.939 133.592 101.819 133.118 101.792C132.664 101.765 132.299 101.835 132.022 102C131.744 102.16 131.606 102.387 131.606 102.68C131.606 102.845 131.662 102.987 131.774 103.104C131.886 103.221 132.11 103.339 132.446 103.456C132.787 103.573 133.294 103.717 133.966 103.888C134.654 104.064 135.203 104.267 135.614 104.496C136.03 104.72 136.328 104.989 136.51 105.304C136.696 105.619 136.79 106 136.79 106.448C136.79 107.317 136.472 108 135.838 108.496C135.208 108.992 134.336 109.24 133.222 109.24ZM146.809 109C146.238 109.107 145.678 109.152 145.129 109.136C144.585 109.125 144.097 109.027 143.665 108.84C143.233 108.648 142.905 108.347 142.681 107.936C142.484 107.563 142.38 107.181 142.369 106.792C142.358 106.403 142.353 105.963 142.353 105.472V97.96H144.273V105.36C144.273 105.707 144.276 106.011 144.281 106.272C144.292 106.533 144.348 106.747 144.449 106.912C144.641 107.232 144.948 107.411 145.369 107.448C145.79 107.485 146.27 107.464 146.809 107.384V109ZM140.785 101.872V100.36H146.809V101.872H140.785ZM152.045 109.24C151.181 109.24 150.427 109.045 149.781 108.656C149.136 108.267 148.635 107.731 148.277 107.048C147.925 106.36 147.749 105.571 147.749 104.68C147.749 103.773 147.931 102.979 148.293 102.296C148.656 101.613 149.16 101.08 149.805 100.696C150.451 100.312 151.197 100.12 152.045 100.12C152.915 100.12 153.672 100.315 154.317 100.704C154.963 101.093 155.464 101.632 155.821 102.32C156.179 103.003 156.357 103.789 156.357 104.68C156.357 105.576 156.176 106.368 155.813 107.056C155.456 107.739 154.955 108.275 154.309 108.664C153.664 109.048 152.909 109.24 152.045 109.24ZM152.045 107.432C152.813 107.432 153.384 107.176 153.757 106.664C154.131 106.152 154.317 105.491 154.317 104.68C154.317 103.843 154.128 103.176 153.749 102.68C153.371 102.179 152.803 101.928 152.045 101.928C151.528 101.928 151.101 102.045 150.765 102.28C150.435 102.509 150.189 102.832 150.029 103.248C149.869 103.659 149.789 104.136 149.789 104.68C149.789 105.517 149.979 106.187 150.357 106.688C150.741 107.184 151.304 107.432 152.045 107.432ZM161.323 109V100.36H163.027V102.464L162.819 102.192C162.926 101.904 163.067 101.643 163.243 101.408C163.424 101.168 163.64 100.971 163.891 100.816C164.104 100.672 164.339 100.56 164.595 100.48C164.856 100.395 165.123 100.344 165.395 100.328C165.667 100.307 165.931 100.317 166.187 100.36V102.16C165.931 102.085 165.635 102.061 165.299 102.088C164.968 102.115 164.67 102.208 164.403 102.368C164.136 102.512 163.918 102.696 163.747 102.92C163.582 103.144 163.459 103.4 163.379 103.688C163.299 103.971 163.259 104.277 163.259 104.608V109H161.323ZM171.486 109.24C170.611 109.24 169.843 109.051 169.182 108.672C168.52 108.293 168.003 107.768 167.63 107.096C167.262 106.424 167.078 105.651 167.078 104.776C167.078 103.832 167.259 103.013 167.622 102.32C167.984 101.621 168.488 101.08 169.134 100.696C169.779 100.312 170.526 100.12 171.374 100.12C172.27 100.12 173.03 100.331 173.654 100.752C174.283 101.168 174.75 101.757 175.054 102.52C175.358 103.283 175.472 104.181 175.398 105.216H173.486V104.512C173.48 103.573 173.315 102.888 172.99 102.456C172.664 102.024 172.152 101.808 171.454 101.808C170.664 101.808 170.078 102.053 169.694 102.544C169.31 103.029 169.118 103.741 169.118 104.68C169.118 105.555 169.31 106.232 169.694 106.712C170.078 107.192 170.638 107.432 171.374 107.432C171.848 107.432 172.256 107.328 172.598 107.12C172.944 106.907 173.211 106.6 173.398 106.2L175.302 106.776C174.971 107.555 174.459 108.16 173.766 108.592C173.078 109.024 172.318 109.24 171.486 109.24ZM168.51 105.216V103.76H174.454V105.216H168.51ZM180.647 109.24C179.852 109.24 179.159 109.04 178.567 108.64C177.975 108.24 177.516 107.696 177.191 107.008C176.865 106.32 176.703 105.544 176.703 104.68C176.703 103.805 176.865 103.027 177.191 102.344C177.521 101.656 177.988 101.115 178.591 100.72C179.193 100.32 179.903 100.12 180.719 100.12C181.54 100.12 182.228 100.32 182.783 100.72C183.343 101.115 183.767 101.656 184.055 102.344C184.343 103.032 184.487 103.811 184.487 104.68C184.487 105.539 184.343 106.315 184.055 107.008C183.767 107.696 183.337 108.24 182.767 108.64C182.196 109.04 181.489 109.24 180.647 109.24ZM180.943 107.512C181.46 107.512 181.876 107.395 182.191 107.16C182.511 106.92 182.743 106.587 182.887 106.16C183.036 105.733 183.111 105.24 183.111 104.68C183.111 104.115 183.036 103.621 182.887 103.2C182.743 102.773 182.516 102.443 182.207 102.208C181.897 101.968 181.497 101.848 181.007 101.848C180.489 101.848 180.063 101.976 179.727 102.232C179.391 102.483 179.143 102.824 178.983 103.256C178.823 103.683 178.743 104.157 178.743 104.68C178.743 105.208 178.82 105.688 178.975 106.12C179.135 106.547 179.377 106.885 179.703 107.136C180.028 107.387 180.441 107.512 180.943 107.512ZM183.111 109V102.936H182.871V97.48H184.815V109H183.111ZM190.298 109.248C189.658 109.248 189.13 109.141 188.714 108.928C188.298 108.715 187.967 108.443 187.722 108.112C187.476 107.781 187.295 107.429 187.178 107.056C187.06 106.683 186.983 106.331 186.946 106C186.914 105.664 186.898 105.392 186.898 105.184V100.36H188.85V104.52C188.85 104.787 188.868 105.088 188.906 105.424C188.943 105.755 189.028 106.075 189.162 106.384C189.3 106.688 189.503 106.939 189.77 107.136C190.042 107.333 190.407 107.432 190.866 107.432C191.111 107.432 191.354 107.392 191.594 107.312C191.834 107.232 192.05 107.096 192.242 106.904C192.439 106.707 192.596 106.437 192.714 106.096C192.831 105.755 192.89 105.323 192.89 104.8L194.034 105.288C194.034 106.024 193.89 106.691 193.602 107.288C193.319 107.885 192.9 108.363 192.346 108.72C191.791 109.072 191.108 109.248 190.298 109.248ZM193.122 109V106.32H192.89V100.36H194.826V109H193.122ZM200.825 109.24C199.934 109.24 199.174 109.043 198.545 108.648C197.916 108.248 197.433 107.704 197.097 107.016C196.766 106.328 196.598 105.549 196.593 104.68C196.598 103.795 196.772 103.011 197.113 102.328C197.46 101.64 197.95 101.101 198.585 100.712C199.22 100.317 199.974 100.12 200.849 100.12C201.83 100.12 202.66 100.368 203.337 100.864C204.02 101.355 204.465 102.027 204.673 102.88L202.753 103.4C202.604 102.936 202.356 102.576 202.009 102.32C201.662 102.059 201.268 101.928 200.825 101.928C200.324 101.928 199.91 102.048 199.585 102.288C199.26 102.523 199.02 102.848 198.865 103.264C198.71 103.68 198.633 104.152 198.633 104.68C198.633 105.501 198.817 106.165 199.185 106.672C199.553 107.179 200.1 107.432 200.825 107.432C201.337 107.432 201.74 107.315 202.033 107.08C202.332 106.845 202.556 106.507 202.705 106.064L204.673 106.504C204.406 107.384 203.94 108.061 203.273 108.536C202.606 109.005 201.79 109.24 200.825 109.24ZM209.97 109.24C209.095 109.24 208.327 109.051 207.666 108.672C207.005 108.293 206.487 107.768 206.114 107.096C205.746 106.424 205.562 105.651 205.562 104.776C205.562 103.832 205.743 103.013 206.106 102.32C206.469 101.621 206.973 101.08 207.618 100.696C208.263 100.312 209.01 100.12 209.858 100.12C210.754 100.12 211.514 100.331 212.138 100.752C212.767 101.168 213.234 101.757 213.538 102.52C213.842 103.283 213.957 104.181 213.882 105.216H211.97V104.512C211.965 103.573 211.799 102.888 211.474 102.456C211.149 102.024 210.637 101.808 209.938 101.808C209.149 101.808 208.562 102.053 208.178 102.544C207.794 103.029 207.602 103.741 207.602 104.68C207.602 105.555 207.794 106.232 208.178 106.712C208.562 107.192 209.122 107.432 209.858 107.432C210.333 107.432 210.741 107.328 211.082 107.12C211.429 106.907 211.695 106.6 211.882 106.2L213.786 106.776C213.455 107.555 212.943 108.16 212.25 108.592C211.562 109.024 210.802 109.24 209.97 109.24ZM206.994 105.216V103.76H212.938V105.216H206.994ZM107.872 133.24C107.248 133.24 106.72 133.123 106.288 132.888C105.856 132.648 105.528 132.331 105.304 131.936C105.085 131.541 104.976 131.107 104.976 130.632C104.976 130.216 105.045 129.843 105.184 129.512C105.323 129.176 105.536 128.888 105.824 128.648C106.112 128.403 106.485 128.203 106.944 128.048C107.291 127.936 107.696 127.835 108.16 127.744C108.629 127.653 109.136 127.571 109.68 127.496C110.229 127.416 110.803 127.331 111.4 127.24L110.712 127.632C110.717 127.035 110.584 126.595 110.312 126.312C110.04 126.029 109.581 125.888 108.936 125.888C108.547 125.888 108.171 125.979 107.808 126.16C107.445 126.341 107.192 126.653 107.048 127.096L105.288 126.544C105.501 125.813 105.907 125.227 106.504 124.784C107.107 124.341 107.917 124.12 108.936 124.12C109.704 124.12 110.379 124.245 110.96 124.496C111.547 124.747 111.981 125.157 112.264 125.728C112.419 126.032 112.512 126.344 112.544 126.664C112.576 126.979 112.592 127.323 112.592 127.696V133H110.904V131.128L111.184 131.432C110.795 132.056 110.339 132.515 109.816 132.808C109.299 133.096 108.651 133.24 107.872 133.24ZM108.256 131.704C108.693 131.704 109.067 131.627 109.376 131.472C109.685 131.317 109.931 131.128 110.112 130.904C110.299 130.68 110.424 130.469 110.488 130.272C110.589 130.027 110.645 129.747 110.656 129.432C110.672 129.112 110.68 128.853 110.68 128.656L111.272 128.832C110.691 128.923 110.192 129.003 109.776 129.072C109.36 129.141 109.003 129.208 108.704 129.272C108.405 129.331 108.141 129.397 107.912 129.472C107.688 129.552 107.499 129.645 107.344 129.752C107.189 129.859 107.069 129.981 106.984 130.12C106.904 130.259 106.864 130.421 106.864 130.608C106.864 130.821 106.917 131.011 107.024 131.176C107.131 131.336 107.285 131.464 107.488 131.56C107.696 131.656 107.952 131.704 108.256 131.704ZM114.835 123.048V121.28H116.763V123.048H114.835ZM114.835 133V124.36H116.763V133H114.835ZM119.159 133V124.36H120.863V126.464L120.655 126.192C120.762 125.904 120.903 125.643 121.079 125.408C121.26 125.168 121.476 124.971 121.727 124.816C121.94 124.672 122.175 124.56 122.431 124.48C122.692 124.395 122.959 124.344 123.231 124.328C123.503 124.307 123.767 124.317 124.023 124.36V126.16C123.767 126.085 123.471 126.061 123.135 126.088C122.804 126.115 122.506 126.208 122.239 126.368C121.972 126.512 121.754 126.696 121.583 126.92C121.418 127.144 121.295 127.4 121.215 127.688C121.135 127.971 121.095 128.277 121.095 128.608V133H119.159ZM128.753 133V121.48H133.513C133.625 121.48 133.769 121.485 133.945 121.496C134.121 121.501 134.283 121.517 134.433 121.544C135.099 121.645 135.649 121.867 136.081 122.208C136.518 122.549 136.841 122.981 137.049 123.504C137.262 124.021 137.369 124.597 137.369 125.232C137.369 125.861 137.262 126.437 137.049 126.96C136.835 127.477 136.51 127.907 136.073 128.248C135.641 128.589 135.094 128.811 134.433 128.912C134.283 128.933 134.118 128.949 133.937 128.96C133.761 128.971 133.619 128.976 133.513 128.976H130.681V133H128.753ZM130.681 127.176H133.433C133.539 127.176 133.659 127.171 133.793 127.16C133.926 127.149 134.049 127.128 134.161 127.096C134.481 127.016 134.731 126.875 134.913 126.672C135.099 126.469 135.23 126.24 135.305 125.984C135.385 125.728 135.425 125.477 135.425 125.232C135.425 124.987 135.385 124.736 135.305 124.48C135.23 124.219 135.099 123.987 134.913 123.784C134.731 123.581 134.481 123.44 134.161 123.36C134.049 123.328 133.926 123.309 133.793 123.304C133.659 123.293 133.539 123.288 133.433 123.288H130.681V127.176ZM142.647 133.24C141.783 133.24 141.028 133.045 140.383 132.656C139.738 132.267 139.236 131.731 138.879 131.048C138.527 130.36 138.351 129.571 138.351 128.68C138.351 127.773 138.532 126.979 138.895 126.296C139.258 125.613 139.762 125.08 140.407 124.696C141.052 124.312 141.799 124.12 142.647 124.12C143.516 124.12 144.274 124.315 144.919 124.704C145.564 125.093 146.066 125.632 146.423 126.32C146.78 127.003 146.959 127.789 146.959 128.68C146.959 129.576 146.778 130.368 146.415 131.056C146.058 131.739 145.556 132.275 144.911 132.664C144.266 133.048 143.511 133.24 142.647 133.24ZM142.647 131.432C143.415 131.432 143.986 131.176 144.359 130.664C144.732 130.152 144.919 129.491 144.919 128.68C144.919 127.843 144.73 127.176 144.351 126.68C143.972 126.179 143.404 125.928 142.647 125.928C142.13 125.928 141.703 126.045 141.367 126.28C141.036 126.509 140.791 126.832 140.631 127.248C140.471 127.659 140.391 128.136 140.391 128.68C140.391 129.517 140.58 130.187 140.959 130.688C141.343 131.184 141.906 131.432 142.647 131.432ZM148.882 133V121.24H150.81V133H148.882ZM153.366 133V121.24H155.294V133H153.366ZM160.93 133.248C160.29 133.248 159.762 133.141 159.346 132.928C158.93 132.715 158.6 132.443 158.354 132.112C158.109 131.781 157.928 131.429 157.81 131.056C157.693 130.683 157.616 130.331 157.578 130C157.546 129.664 157.53 129.392 157.53 129.184V124.36H159.482V128.52C159.482 128.787 159.501 129.088 159.538 129.424C159.576 129.755 159.661 130.075 159.794 130.384C159.933 130.688 160.136 130.939 160.402 131.136C160.674 131.333 161.04 131.432 161.498 131.432C161.744 131.432 161.986 131.392 162.226 131.312C162.466 131.232 162.682 131.096 162.874 130.904C163.072 130.707 163.229 130.437 163.346 130.096C163.464 129.755 163.522 129.323 163.522 128.8L164.666 129.288C164.666 130.024 164.522 130.691 164.234 131.288C163.952 131.885 163.533 132.363 162.978 132.72C162.424 133.072 161.741 133.248 160.93 133.248ZM163.754 133V130.32H163.522V124.36H165.458V133H163.754ZM172.77 133C172.199 133.107 171.639 133.152 171.09 133.136C170.546 133.125 170.058 133.027 169.626 132.84C169.194 132.648 168.866 132.347 168.642 131.936C168.445 131.563 168.341 131.181 168.33 130.792C168.319 130.403 168.314 129.963 168.314 129.472V121.96H170.234V129.36C170.234 129.707 170.237 130.011 170.242 130.272C170.253 130.533 170.309 130.747 170.41 130.912C170.602 131.232 170.909 131.411 171.33 131.448C171.751 131.485 172.231 131.464 172.77 131.384V133ZM166.746 125.872V124.36H172.77V125.872H166.746ZM174.788 123.048V121.28H176.716V123.048H174.788ZM174.788 133V124.36H176.716V133H174.788ZM182.928 133.24C182.064 133.24 181.31 133.045 180.664 132.656C180.019 132.267 179.518 131.731 179.16 131.048C178.808 130.36 178.632 129.571 178.632 128.68C178.632 127.773 178.814 126.979 179.176 126.296C179.539 125.613 180.043 125.08 180.688 124.696C181.334 124.312 182.08 124.12 182.928 124.12C183.798 124.12 184.555 124.315 185.2 124.704C185.846 125.093 186.347 125.632 186.704 126.32C187.062 127.003 187.24 127.789 187.24 128.68C187.24 129.576 187.059 130.368 186.696 131.056C186.339 131.739 185.838 132.275 185.192 132.664C184.547 133.048 183.792 133.24 182.928 133.24ZM182.928 131.432C183.696 131.432 184.267 131.176 184.64 130.664C185.014 130.152 185.2 129.491 185.2 128.68C185.2 127.843 185.011 127.176 184.632 126.68C184.254 126.179 183.686 125.928 182.928 125.928C182.411 125.928 181.984 126.045 181.648 126.28C181.318 126.509 181.072 126.832 180.912 127.248C180.752 127.659 180.672 128.136 180.672 128.68C180.672 129.517 180.862 130.187 181.24 130.688C181.624 131.184 182.187 131.432 182.928 131.432ZM194.979 133V128.84C194.979 128.568 194.96 128.267 194.923 127.936C194.885 127.605 194.797 127.288 194.659 126.984C194.525 126.675 194.323 126.421 194.051 126.224C193.784 126.027 193.421 125.928 192.963 125.928C192.717 125.928 192.475 125.968 192.235 126.048C191.995 126.128 191.776 126.267 191.579 126.464C191.387 126.656 191.232 126.923 191.115 127.264C190.997 127.6 190.939 128.032 190.939 128.56L189.795 128.072C189.795 127.336 189.936 126.669 190.219 126.072C190.507 125.475 190.928 125 191.483 124.648C192.037 124.291 192.72 124.112 193.531 124.112C194.171 124.112 194.699 124.219 195.115 124.432C195.531 124.645 195.861 124.917 196.107 125.248C196.352 125.579 196.533 125.931 196.651 126.304C196.768 126.677 196.843 127.032 196.875 127.368C196.912 127.699 196.931 127.968 196.931 128.176V133H194.979ZM188.987 133V124.36H190.707V127.04H190.939V133H188.987ZM199.818 133V131.232H201.746V133H199.818ZM199.818 130.12V121.48H201.746V130.12H199.818Z" fill="black"/>
<path d="M1 111H49.5" stroke="black" stroke-width="2" stroke-linecap="round" stroke-dasharray="8 8"/>
<defs>
<filter id="filter0_d_1265_241" x="39" y="0" width="230" height="229" filterUnits="userSpaceOnUse" color-interpolation-filters="sRGB">
<feFlood flood-opacity="0" result="BackgroundImageFix"/>
<feColorMatrix in="SourceAlpha" type="matrix" values="0 0 0 0 0 0 0 0 0 0 0 0 0 0 0 0 0 0 127 0" result="hardAlpha"/>
<feOffset dy="4"/>
<feGaussianBlur stdDeviation="15"/>
<feComposite in2="hardAlpha" operator="out"/>
<feColorMatrix type="matrix" values="0 0 0 0 0 0 0 0 0 0 0 0 0 0 0 0 0 0 0.15 0"/>
<feBlend mode="normal" in2="BackgroundImageFix" result="effect1_dropShadow_1265_241"/>
<feBlend mode="normal" in="SourceGraphic" in2="effect1_dropShadow_1265_241" result="shape"/>
</filter>
</defs>
</svg>
