<svg width="339" height="113" viewBox="0 0 339 113" fill="none" xmlns="http://www.w3.org/2000/svg">
<g filter="url(#filter0_d_108_2561)">
<rect x="4" width="331" height="105" rx="14" fill="white"/>
</g>
<path d="M123.246 46.345C122.08 46.345 121.03 46.1418 120.095 45.7355C119.159 45.3292 118.362 44.7503 117.703 43.999C117.051 43.2477 116.553 42.343 116.208 41.285C115.863 40.2193 115.69 39.031 115.69 37.72C115.69 35.9873 115.989 34.477 116.587 33.189C117.193 31.8933 118.059 30.889 119.186 30.176C120.313 29.463 121.666 29.1065 123.246 29.1065C125.009 29.1065 126.443 29.5205 127.547 30.3485C128.658 31.1688 129.433 32.2728 129.87 33.6605L128.168 34.0745C127.807 33.0625 127.213 32.2537 126.385 31.648C125.565 31.0423 124.541 30.7395 123.315 30.7395C122.019 30.7318 120.942 31.0232 120.083 31.6135C119.224 32.1962 118.577 33.0165 118.14 34.0745C117.71 35.1248 117.492 36.34 117.484 37.72C117.476 39.1 117.687 40.3152 118.117 41.3655C118.554 42.4082 119.205 43.2285 120.072 43.8265C120.938 44.4168 122.019 44.7158 123.315 44.7235C124.503 44.7235 125.484 44.4935 126.259 44.0335C127.033 43.5735 127.619 42.9142 128.018 42.0555C128.424 41.1968 128.654 40.181 128.708 39.008H124.89V37.559H130.479C130.502 37.7353 130.514 37.9232 130.514 38.1225C130.521 38.3142 130.525 38.4522 130.525 38.5365C130.525 40.0315 130.257 41.3693 129.72 42.55C129.183 43.723 128.375 44.6507 127.294 45.333C126.22 46.0077 124.871 46.345 123.246 46.345ZM132.827 46V29.44H143.177V31.0615H134.517V36.7885H141.797V38.41H134.517V44.3785H143.177V46H132.827ZM150.348 46V31.0615H144.564V29.44H157.823V31.0615H152.039V46H150.348ZM163.806 46V29.44H165.496V46H163.806ZM173.348 46V31.0615H167.564V29.44H180.823V31.0615H175.039V46H173.348ZM193.28 46.345C191.632 46.345 190.24 45.9808 189.106 45.2525C187.971 44.5165 187.112 43.5007 186.53 42.205C185.947 40.9093 185.656 39.4143 185.656 37.72C185.656 36.0257 185.947 34.5307 186.53 33.235C187.112 31.9393 187.971 30.9273 189.106 30.199C190.24 29.463 191.632 29.095 193.28 29.095C194.936 29.095 196.328 29.463 197.455 30.199C198.589 30.9273 199.448 31.9393 200.031 33.235C200.621 34.5307 200.916 36.0257 200.916 37.72C200.916 39.4143 200.621 40.9093 200.031 42.205C199.448 43.5007 198.589 44.5165 197.455 45.2525C196.328 45.9808 194.936 46.345 193.28 46.345ZM193.28 44.7235C194.576 44.7235 195.657 44.4283 196.523 43.838C197.39 43.2477 198.037 42.4273 198.467 41.377C198.904 40.319 199.122 39.1 199.122 37.72C199.122 36.34 198.904 35.1248 198.467 34.0745C198.037 33.0242 197.39 32.2038 196.523 31.6135C195.657 31.0232 194.576 30.7242 193.28 30.7165C191.985 30.7165 190.907 31.0117 190.049 31.602C189.19 32.1923 188.542 33.0165 188.105 34.0745C187.676 35.1248 187.457 36.34 187.45 37.72C187.442 39.1 187.653 40.3152 188.082 41.3655C188.519 42.4082 189.171 43.2285 190.037 43.8265C190.904 44.4168 191.985 44.7158 193.28 44.7235ZM203.219 46V29.44H204.921L214.041 43.01V29.44H215.743V46H214.041L204.921 32.4185V46H203.219Z" fill="#424242"/>
<path d="M126.01 80.45C124.61 80.45 123.295 80.205 122.065 79.715C120.845 79.215 119.77 78.485 118.84 77.525C117.92 76.565 117.2 75.39 116.68 74C116.16 72.6 115.9 71 115.9 69.2C115.9 66.84 116.34 64.825 117.22 63.155C118.1 61.475 119.305 60.19 120.835 59.3C122.365 58.4 124.09 57.95 126.01 57.95C128.67 57.95 130.775 58.57 132.325 59.81C133.885 61.04 134.94 62.77 135.49 65L131.8 65.585C131.39 64.305 130.72 63.285 129.79 62.525C128.86 61.755 127.675 61.37 126.235 61.37C124.785 61.35 123.58 61.665 122.62 62.315C121.66 62.965 120.935 63.88 120.445 65.06C119.965 66.24 119.725 67.62 119.725 69.2C119.725 70.78 119.965 72.155 120.445 73.325C120.925 74.485 121.645 75.39 122.605 76.04C123.575 76.69 124.785 77.025 126.235 77.045C127.325 77.055 128.28 76.86 129.1 76.46C129.92 76.05 130.59 75.435 131.11 74.615C131.63 73.785 131.98 72.75 132.16 71.51H128.35V68.675H136C136.02 68.835 136.035 69.07 136.045 69.38C136.055 69.69 136.06 69.875 136.06 69.935C136.06 71.975 135.655 73.79 134.845 75.38C134.045 76.96 132.895 78.2 131.395 79.1C129.895 80 128.1 80.45 126.01 80.45ZM146.228 80.45C144.608 80.45 143.193 80.085 141.983 79.355C140.773 78.625 139.833 77.62 139.163 76.34C138.503 75.05 138.173 73.57 138.173 71.9C138.173 70.2 138.513 68.71 139.193 67.43C139.873 66.15 140.818 65.15 142.028 64.43C143.238 63.71 144.638 63.35 146.228 63.35C147.858 63.35 149.278 63.715 150.488 64.445C151.698 65.175 152.638 66.185 153.308 67.475C153.978 68.755 154.313 70.23 154.313 71.9C154.313 73.58 153.973 75.065 153.293 76.355C152.623 77.635 151.683 78.64 150.473 79.37C149.263 80.09 147.848 80.45 146.228 80.45ZM146.228 77.06C147.668 77.06 148.738 76.58 149.438 75.62C150.138 74.66 150.488 73.42 150.488 71.9C150.488 70.33 150.133 69.08 149.423 68.15C148.713 67.21 147.648 66.74 146.228 66.74C145.258 66.74 144.458 66.96 143.828 67.4C143.208 67.83 142.748 68.435 142.448 69.215C142.148 69.985 141.998 70.88 141.998 71.9C141.998 73.47 142.353 74.725 143.063 75.665C143.783 76.595 144.838 77.06 146.228 77.06ZM164.773 80.45C163.153 80.45 161.738 80.085 160.528 79.355C159.318 78.625 158.378 77.62 157.708 76.34C157.048 75.05 156.718 73.57 156.718 71.9C156.718 70.2 157.058 68.71 157.738 67.43C158.418 66.15 159.363 65.15 160.573 64.43C161.783 63.71 163.183 63.35 164.773 63.35C166.403 63.35 167.823 63.715 169.033 64.445C170.243 65.175 171.183 66.185 171.853 67.475C172.523 68.755 172.858 70.23 172.858 71.9C172.858 73.58 172.518 75.065 171.838 76.355C171.168 77.635 170.228 78.64 169.018 79.37C167.808 80.09 166.393 80.45 164.773 80.45ZM164.773 77.06C166.213 77.06 167.283 76.58 167.983 75.62C168.683 74.66 169.033 73.42 169.033 71.9C169.033 70.33 168.678 69.08 167.968 68.15C167.258 67.21 166.193 66.74 164.773 66.74C163.803 66.74 163.003 66.96 162.373 67.4C161.753 67.83 161.293 68.435 160.993 69.215C160.693 69.985 160.543 70.88 160.543 71.9C160.543 73.47 160.898 74.725 161.608 75.665C162.328 76.595 163.383 77.06 164.773 77.06ZM182.973 87.65C182.073 87.65 181.208 87.51 180.378 87.23C179.558 86.95 178.818 86.545 178.158 86.015C177.498 85.495 176.958 84.865 176.538 84.125L179.868 82.475C180.178 83.065 180.613 83.5 181.173 83.78C181.743 84.07 182.348 84.215 182.988 84.215C183.738 84.215 184.408 84.08 184.998 83.81C185.588 83.55 186.043 83.16 186.363 82.64C186.693 82.13 186.848 81.49 186.828 80.72V76.115H187.278V63.8H190.443V80.78C190.443 81.19 190.423 81.58 190.383 81.95C190.353 82.33 190.298 82.7 190.218 83.06C189.978 84.11 189.518 84.97 188.838 85.64C188.158 86.32 187.313 86.825 186.303 87.155C185.303 87.485 184.193 87.65 182.973 87.65ZM182.658 80.45C181.168 80.45 179.868 80.075 178.758 79.325C177.648 78.575 176.788 77.555 176.178 76.265C175.568 74.975 175.263 73.52 175.263 71.9C175.263 70.26 175.568 68.8 176.178 67.52C176.798 66.23 177.673 65.215 178.803 64.475C179.933 63.725 181.263 63.35 182.793 63.35C184.333 63.35 185.623 63.725 186.663 64.475C187.713 65.215 188.508 66.23 189.048 67.52C189.588 68.81 189.858 70.27 189.858 71.9C189.858 73.51 189.588 74.965 189.048 76.265C188.508 77.555 187.703 78.575 186.633 79.325C185.563 80.075 184.238 80.45 182.658 80.45ZM183.213 77.21C184.183 77.21 184.963 76.99 185.553 76.55C186.153 76.1 186.588 75.475 186.858 74.675C187.138 73.875 187.278 72.95 187.278 71.9C187.278 70.84 187.138 69.915 186.858 69.125C186.588 68.325 186.163 67.705 185.583 67.265C185.003 66.815 184.253 66.59 183.333 66.59C182.363 66.59 181.563 66.83 180.933 67.31C180.303 67.78 179.838 68.42 179.538 69.23C179.238 70.03 179.088 70.92 179.088 71.9C179.088 72.89 179.233 73.79 179.523 74.6C179.823 75.4 180.278 76.035 180.888 76.505C181.498 76.975 182.273 77.21 183.213 77.21ZM194.949 80V57.95H198.564V80H194.949ZM210.422 80.45C208.782 80.45 207.342 80.095 206.102 79.385C204.862 78.675 203.892 77.69 203.192 76.43C202.502 75.17 202.157 73.72 202.157 72.08C202.157 70.31 202.497 68.775 203.177 67.475C203.857 66.165 204.802 65.15 206.012 64.43C207.222 63.71 208.622 63.35 210.212 63.35C211.892 63.35 213.317 63.745 214.487 64.535C215.667 65.315 216.542 66.42 217.112 67.85C217.682 69.28 217.897 70.965 217.757 72.905H214.172V71.585C214.162 69.825 213.852 68.54 213.242 67.73C212.632 66.92 211.672 66.515 210.362 66.515C208.882 66.515 207.782 66.975 207.062 67.895C206.342 68.805 205.982 70.14 205.982 71.9C205.982 73.54 206.342 74.81 207.062 75.71C207.782 76.61 208.832 77.06 210.212 77.06C211.102 77.06 211.867 76.865 212.507 76.475C213.157 76.075 213.657 75.5 214.007 74.75L217.577 75.83C216.957 77.29 215.997 78.425 214.697 79.235C213.407 80.045 211.982 80.45 210.422 80.45ZM204.842 72.905V70.175H215.987V72.905H204.842ZM227.11 80V58.4H236.035C236.245 58.4 236.515 58.41 236.845 58.43C237.175 58.44 237.48 58.47 237.76 58.52C239.01 58.71 240.04 59.125 240.85 59.765C241.67 60.405 242.275 61.215 242.665 62.195C243.065 63.165 243.265 64.245 243.265 65.435C243.265 66.615 243.065 67.695 242.665 68.675C242.265 69.645 241.655 70.45 240.835 71.09C240.025 71.73 239 72.145 237.76 72.335C237.48 72.375 237.17 72.405 236.83 72.425C236.5 72.445 236.235 72.455 236.035 72.455H230.725V80H227.11ZM230.725 69.08H235.885C236.085 69.08 236.31 69.07 236.56 69.05C236.81 69.03 237.04 68.99 237.25 68.93C237.85 68.78 238.32 68.515 238.66 68.135C239.01 67.755 239.255 67.325 239.395 66.845C239.545 66.365 239.62 65.895 239.62 65.435C239.62 64.975 239.545 64.505 239.395 64.025C239.255 63.535 239.01 63.1 238.66 62.72C238.32 62.34 237.85 62.075 237.25 61.925C237.04 61.865 236.81 61.83 236.56 61.82C236.31 61.8 236.085 61.79 235.885 61.79H230.725V69.08ZM246.57 80V57.95H250.185V80H246.57ZM259.208 80.45C258.038 80.45 257.048 80.23 256.238 79.79C255.428 79.34 254.813 78.745 254.393 78.005C253.983 77.265 253.778 76.45 253.778 75.56C253.778 74.78 253.908 74.08 254.168 73.46C254.428 72.83 254.828 72.29 255.368 71.84C255.908 71.38 256.608 71.005 257.468 70.715C258.118 70.505 258.878 70.315 259.748 70.145C260.628 69.975 261.578 69.82 262.598 69.68C263.628 69.53 264.703 69.37 265.823 69.2L264.533 69.935C264.543 68.815 264.293 67.99 263.783 67.46C263.273 66.93 262.413 66.665 261.203 66.665C260.473 66.665 259.768 66.835 259.088 67.175C258.408 67.515 257.933 68.1 257.663 68.93L254.363 67.895C254.763 66.525 255.523 65.425 256.643 64.595C257.773 63.765 259.293 63.35 261.203 63.35C262.643 63.35 263.908 63.585 264.998 64.055C266.098 64.525 266.913 65.295 267.443 66.365C267.733 66.935 267.908 67.52 267.968 68.12C268.028 68.71 268.058 69.355 268.058 70.055V80H264.893V76.49L265.418 77.06C264.688 78.23 263.833 79.09 262.853 79.64C261.883 80.18 260.668 80.45 259.208 80.45ZM259.928 77.57C260.748 77.57 261.448 77.425 262.028 77.135C262.608 76.845 263.068 76.49 263.408 76.07C263.758 75.65 263.993 75.255 264.113 74.885C264.303 74.425 264.408 73.9 264.428 73.31C264.458 72.71 264.473 72.225 264.473 71.855L265.583 72.185C264.493 72.355 263.558 72.505 262.778 72.635C261.998 72.765 261.328 72.89 260.768 73.01C260.208 73.12 259.713 73.245 259.283 73.385C258.863 73.535 258.508 73.71 258.218 73.91C257.928 74.11 257.703 74.34 257.543 74.6C257.393 74.86 257.318 75.165 257.318 75.515C257.318 75.915 257.418 76.27 257.618 76.58C257.818 76.88 258.108 77.12 258.488 77.3C258.878 77.48 259.358 77.57 259.928 77.57ZM273.185 87.2L276.305 78.635L276.365 81.155L269.3 63.8H273.065L278.075 76.64H277.115L281.99 63.8H285.605L276.575 87.2H273.185Z" fill="#454343"/>
<path d="M55.2977 78.3231C54.6012 78.6689 53.9328 79.0711 53.2715 79.4733C53.166 79.6215 53.0112 79.7062 52.8564 79.7838C52.0263 80.2354 51.2243 80.7293 50.3941 81.1809C50.3026 81.2303 50.2182 81.3009 50.1056 81.2868C49.6554 81.4632 49.2614 81.7384 48.8463 81.9783C48.572 82.1406 48.2694 82.2464 47.9951 82.4228C47.3971 82.6557 46.785 82.7897 46.1378 82.7897C45.6734 82.7897 45.2443 82.698 44.8292 82.5075C44.4634 82.451 44.2101 82.2394 44.0201 81.943C44.0342 81.7172 44.2171 81.6043 44.3578 81.4702C47.2282 78.5913 50.0986 75.7123 52.969 72.8334C59.2022 66.5886 65.4285 60.3367 71.6617 54.0919C71.7954 53.9579 71.9079 53.8097 72.0768 53.7179C72.112 53.7109 72.1401 53.7109 72.1753 53.7179C72.316 53.7814 72.4145 53.9085 72.52 54.0143C75.4748 56.9709 78.4226 59.9345 81.3774 62.8911C81.49 63.004 81.6307 63.1028 81.6729 63.2792C79.8367 64.3235 78.0005 65.3678 76.1713 66.4122C74.2225 67.527 72.2878 68.6419 70.3391 69.7498C68.4818 70.8082 66.6174 71.8525 64.7601 72.911C62.9942 73.913 61.2354 74.9291 59.4766 75.9381C58.8153 76.3191 58.147 76.7002 57.4856 77.0742C57.2183 77.4058 56.8173 77.5258 56.4655 77.7304C56.0856 77.9421 55.7339 78.2243 55.2977 78.3231Z" fill="#EF3A4A"/>
<path d="M81.6658 63.2721C81.5603 63.1804 81.4548 63.0887 81.3563 62.9899C78.3522 59.9769 75.3482 56.9638 72.3371 53.9508C72.2737 53.8873 72.2175 53.8097 72.1541 53.7391C72.1401 53.5133 72.323 53.4216 72.4496 53.2946C75.4044 50.331 78.3593 47.3673 81.307 44.4037C81.4055 44.319 81.4899 44.1991 81.6447 44.2202C83.1362 45.074 84.6277 45.9279 86.1262 46.7746C87.3996 47.5014 88.68 48.207 89.9393 48.9479C91.1634 49.6677 92.472 50.2463 93.5836 51.1354C94.4981 51.8622 95.0821 52.7865 94.9906 54.0214C94.9695 54.3177 94.8499 54.5859 94.7866 54.8681C94.8007 55.1645 94.5966 55.3621 94.4489 55.5667C93.879 56.3429 93.1403 56.9003 92.2469 57.2673C91.5222 57.6342 90.8187 58.0364 90.1363 58.4668C89.8478 58.7561 89.4679 58.8973 89.1302 59.1019C88.5604 59.4476 87.9765 59.7722 87.3996 60.1039C87.2729 60.1815 87.1463 60.2873 86.9774 60.2521C85.4367 61.127 83.889 62.002 82.3482 62.8841C82.1302 63.004 81.898 63.1381 81.6658 63.2721Z" fill="#FFCA0C"/>
<path d="M43.5065 26.262C43.6895 26.0292 43.8724 25.7893 44.0483 25.5564C44.0975 25.6058 44.1467 25.6481 44.196 25.6975C44.3648 25.7399 44.4704 25.8669 44.5829 25.9868C53.6655 35.0965 62.748 44.2061 71.8305 53.3157C71.9501 53.4357 72.119 53.5274 72.1119 53.7391C72.0345 53.8238 71.9571 53.9155 71.8727 54.0002C62.6917 63.2086 53.5036 72.417 44.3226 81.6325C44.2241 81.7313 44.1327 81.8371 44.0412 81.943C43.3025 81.1386 43.0844 80.1436 43 79.1064C43.007 78.9441 43.007 78.7747 43.007 78.6124C43.007 61.8115 43.007 45.0105 43 28.2096C43 27.9061 43.1337 27.6239 43.1337 27.3205C43.2603 26.9676 43.3799 26.6148 43.5065 26.262Z" fill="#34C4F3"/>
<path d="M72.1119 53.7323C71.2747 52.8926 70.4446 52.0529 69.6074 51.2132C61.2284 42.8162 52.8494 34.4122 44.4774 26.0082C44.3789 25.9094 44.2874 25.8036 44.196 25.6977C44.6462 25.4296 45.0824 25.1544 45.6171 25.0556C46.4754 24.9004 47.2774 25.0838 48.0232 25.4366C49.5146 26.1423 50.9076 27.0243 52.3428 27.8287C53.4685 28.4638 54.6011 29.1059 55.7268 29.748C57.1972 30.5807 58.6605 31.4203 60.1309 32.26C61.4183 32.9939 62.7058 33.7277 63.9932 34.4545C65.2947 35.1954 66.5892 35.9293 67.8908 36.6702C69.2064 37.4182 70.529 38.1732 71.8446 38.9212C73.0828 39.6268 74.314 40.3324 75.5522 41.038C76.8678 41.7931 78.1904 42.541 79.506 43.289C80.0618 43.6065 80.6246 43.917 81.1804 44.2416C81.2578 44.2839 81.307 44.3756 81.3703 44.4392C81.2859 44.5309 81.2015 44.6297 81.11 44.7214C78.2115 47.6286 75.313 50.5358 72.4144 53.45C72.323 53.5417 72.2386 53.6405 72.1541 53.7323H72.133H72.1119Z" fill="#65BE6A"/>
<defs>
<filter id="filter0_d_108_2561" x="0" y="0" width="339" height="113" filterUnits="userSpaceOnUse" color-interpolation-filters="sRGB">
<feFlood flood-opacity="0" result="BackgroundImageFix"/>
<feColorMatrix in="SourceAlpha" type="matrix" values="0 0 0 0 0 0 0 0 0 0 0 0 0 0 0 0 0 0 127 0" result="hardAlpha"/>
<feOffset dy="4"/>
<feGaussianBlur stdDeviation="2"/>
<feComposite in2="hardAlpha" operator="out"/>
<feColorMatrix type="matrix" values="0 0 0 0 0 0 0 0 0 0 0 0 0 0 0 0 0 0 0.25 0"/>
<feBlend mode="normal" in2="BackgroundImageFix" result="effect1_dropShadow_108_2561"/>
<feBlend mode="normal" in="SourceGraphic" in2="effect1_dropShadow_108_2561" result="shape"/>
</filter>
</defs>
</svg>
