<svg width="95" height="70" viewBox="0 0 95 70" fill="none" xmlns="http://www.w3.org/2000/svg">
<path d="M48.3831 1.11475C52.2298 1.11475 56.0765 1.07574 59.9232 1.11475C65.3007 1.19278 70.0109 3.22146 74.4856 5.9914C80.5305 9.69765 86.222 13.9891 91.4818 18.7487C94.9359 21.9478 95.9172 26.0442 94.1117 30.3746C93.4836 31.8181 92.7771 33.2226 91.9528 34.5491C90.6182 36.6948 88.5771 37.8262 86.065 38.0602C85.0052 38.1383 84.3772 38.4894 83.8276 39.4257C80.8445 44.3804 74.4071 46.0189 69.4221 43.0539C67.8913 42.1566 66.6352 40.8692 65.7325 39.3477C65.1829 38.4114 64.5941 38.1773 63.5736 38.2163C53.2503 38.2553 42.8878 38.2553 32.5645 38.2553C31.5047 38.2553 30.8767 38.5284 30.2879 39.5037C26.1272 46.4091 16.5104 46.4871 12.1535 39.6988C11.5254 38.7625 10.8974 38.3333 9.75909 38.2553C8.69928 38.1773 7.67873 37.8262 6.73668 37.319C1.35916 34.354 -0.760451 26.0052 2.65447 20.9335C3.55727 19.607 4.81333 18.5146 6.03015 17.4223C11.6039 12.5066 17.7272 8.13713 24.2431 4.39186C27.8935 2.28515 32.015 1.19278 36.2149 1.15376C40.2579 1.07574 44.3401 1.15376 48.3831 1.11475ZM85.5155 35.9145C87.3603 35.8365 88.9304 35.1343 89.9509 33.6127C90.7752 32.4033 91.4425 31.1159 92.0313 29.7504C93.5229 26.0832 92.7771 22.9621 89.8332 20.3092C83.9846 15.0815 77.5866 10.5169 70.7567 6.65462C67.9306 5.05508 64.9082 3.88469 61.611 3.84567C53.1718 3.76765 44.7719 3.80666 36.3327 3.80666C32.643 3.76765 28.9926 4.66495 25.7739 6.45956C18.5908 10.3999 11.9572 15.1985 5.95164 20.7774C4.73483 21.9478 3.87129 23.4303 3.47877 25.0298C2.61522 28.8531 4.53857 31.9352 6.97219 34.5881C7.71798 35.4073 9.0918 35.6414 10.5441 36.3437C10.2301 32.5984 10.8581 29.6334 13.017 27.1756C15.0974 24.7177 18.159 23.3523 21.3777 23.4303C27.5402 23.5083 31.0729 27.6827 31.9757 35.8365H64.0839C64.6726 27.7217 68.3623 23.4303 74.7212 23.3913C81.1585 23.3523 84.8874 27.6047 85.5155 35.9145ZM83.1211 34.0809C83.1211 29.3213 79.5492 25.7321 74.8389 25.7321C70.1287 25.7321 66.5175 29.2823 66.5175 33.8468C66.439 38.4114 70.1287 42.1956 74.7212 42.2347C74.7604 42.2347 74.7997 42.2347 74.7997 42.2347C79.3922 42.3127 83.1211 38.6454 83.1211 34.0809ZM12.9385 34.0419C12.86 38.5284 16.4712 42.1956 20.9852 42.2737C21.0637 42.2737 21.1029 42.2737 21.1814 42.2737C25.7739 42.2737 29.4636 38.6064 29.5028 34.0809C29.4636 29.5164 25.7739 25.8491 21.1814 25.8101C16.6674 25.7711 12.9778 29.3993 12.9385 33.8858C12.9385 33.9639 12.9385 34.0029 12.9385 34.0419Z" fill="#0AD0D3"/>
<path d="M48.1475 5.91353C51.9157 5.91353 55.7232 5.87452 59.4913 5.91353C62.9063 5.91353 66.2427 6.81083 69.1866 8.52741C71.6595 9.9709 74.1323 11.4924 76.5267 13.092C78.4893 14.3794 79.1174 15.9399 78.6071 17.8126C78.0968 19.5681 76.6052 20.6215 74.3286 20.6995C69.7754 20.8946 66.1249 22.8453 63.7306 26.6685C62.7493 28.2291 62.1605 30.1407 61.6502 31.9353C61.2184 33.5739 60.3941 34.3151 58.7063 34.3151C51.8765 34.3151 45.0466 34.4322 38.1775 34.4712C35.1944 34.4712 34.8018 34.1201 34.1738 31.3111C32.8785 25.3811 27.7365 21.0897 21.6524 20.8556C19.1403 20.7385 17.7665 19.8412 17.2169 17.9686C16.7067 16.096 17.3347 14.5354 19.4151 13.17C24.3216 9.9709 29.0318 6.34268 35.2729 6.06958C38.4523 5.95254 41.5924 5.91353 44.7718 5.87452C45.9102 5.8355 47.0485 5.87452 48.1475 5.87452V5.91353ZM48.0298 32.6376V32.5595C51.4839 32.5595 54.9381 32.5205 58.353 32.5595C59.2951 32.5595 59.7661 32.2864 59.9231 31.3111C61.1007 24.0547 67.9305 18.7879 74.5249 18.9049C75.3099 18.9049 76.5267 18.0076 76.723 17.3054C76.9192 16.6031 76.3305 15.2767 75.6632 14.8085C73.0333 13.0139 70.3249 11.1803 67.4203 9.85386C65.1829 8.83952 62.5923 8.05926 60.1194 8.02024C51.8765 7.82518 43.6335 7.9032 35.3906 8.05926C33.3103 8.09827 31.2299 8.56643 29.3458 9.46373C26.1271 11.0243 23.1047 13.0529 20.0431 14.9256C19.101 15.5108 18.4338 16.4861 19.0618 17.4614C19.6113 18.2417 20.4749 18.7879 21.4169 18.9049C28.7963 19.3731 34.2916 23.9376 35.8616 31.1161C36.0972 32.2084 36.4897 32.6376 37.628 32.6376C41.1607 32.5986 44.6148 32.6376 48.0298 32.6376Z" fill="#0AD0D3"/>
<path d="M47.3831 0.0173392C51.2298 0.0173392 55.0765 -0.021674 58.9232 0.0173392C64.3007 0.0953656 69.0109 2.12405 73.4856 4.89399C79.5305 8.60024 85.222 12.8917 90.4818 17.6513C93.9359 20.8504 94.9172 24.9468 93.1117 29.2772C92.4836 30.7207 91.7771 32.1252 90.9528 33.4516C89.6182 35.5974 87.5771 36.7287 85.065 36.9628C84.0052 37.0409 83.3772 37.392 82.8276 38.3283C79.8445 43.283 73.4071 44.9215 68.4221 41.9565C66.8913 41.0592 65.6352 39.7718 64.7325 38.2503C64.1829 37.3139 63.5941 37.0799 62.5736 37.1189C52.2503 37.1579 41.8878 37.1579 31.5645 37.1579C30.5047 37.1579 29.8767 37.431 29.2879 38.4063C25.1272 45.3117 15.5104 45.3897 11.1535 38.6014C10.5254 37.6651 9.8974 37.2359 8.75909 37.1579C7.69928 37.0799 6.67873 36.7288 5.73668 36.2216C0.359158 33.2566 -1.76045 24.9078 1.65447 19.836C2.55727 18.5096 3.81333 17.4172 5.03015 16.3249C10.6039 11.4092 16.7272 7.03971 23.2431 3.29445C26.8935 1.18773 31.015 0.0953656 35.2149 0.0563524C39.2579 -0.021674 43.3401 0.0563524 47.3831 0.0173392ZM84.5155 34.8171C86.3603 34.7391 87.9304 34.0368 88.9509 32.5153C89.7752 31.3059 90.4425 30.0185 91.0313 28.653C92.5229 24.9858 91.7771 21.8647 88.8332 19.2118C82.9846 13.9841 76.5866 9.41952 69.7567 5.55721C66.9306 3.95767 63.9082 2.78728 60.611 2.74826C52.1718 2.67024 43.7719 2.70925 35.3327 2.70925C31.643 2.67024 27.9926 3.56754 24.7739 5.36215C17.5908 9.30248 10.9572 14.1011 4.95164 19.68C3.73483 20.8504 2.87129 22.3329 2.47877 23.9324C1.61522 27.7557 3.53857 30.8378 5.97219 33.4907C6.71798 34.3099 8.0918 34.544 9.54413 35.2462C9.23011 31.501 9.85814 28.536 12.017 26.0781C14.0974 23.6203 17.159 22.2549 20.3777 22.3329C26.5402 22.4109 30.0729 26.5853 30.9757 34.7391H63.0839C63.6726 26.6243 67.3623 22.3329 73.7212 22.2939C80.1585 22.2549 83.8874 26.5073 84.5155 34.8171ZM82.1211 32.9835C82.1211 28.2239 78.5492 24.6347 73.8389 24.6347C69.1287 24.6347 65.5175 28.1849 65.5175 32.7494C65.439 37.3139 69.1287 41.0982 73.7212 41.1372C73.7604 41.1372 73.7997 41.1372 73.7997 41.1372C78.3922 41.2153 82.1211 37.548 82.1211 32.9835ZM11.9385 32.9445C11.86 37.431 15.4712 41.0982 19.9852 41.1763C20.0637 41.1763 20.1029 41.1763 20.1814 41.1763C24.7739 41.1763 28.4636 37.509 28.5028 32.9835C28.4636 28.4189 24.7739 24.7517 20.1814 24.7127C15.6674 24.6737 11.9778 28.3019 11.9385 32.7884C11.9385 32.8664 11.9385 32.9055 11.9385 32.9445Z" fill="white"/>
<path d="M47.1475 4.81612C50.9157 4.81612 54.7232 4.7771 58.4913 4.81612C61.9063 4.81612 65.2427 5.71342 68.1866 7.43C70.6595 8.87349 73.1323 10.395 75.5267 11.9945C77.4893 13.282 78.1174 14.8425 77.6071 16.7151C77.0968 18.4707 75.6052 19.5241 73.3286 19.6021C68.7754 19.7972 65.1249 21.7478 62.7306 25.5711C61.7493 27.1317 61.1605 29.0433 60.6502 30.8379C60.2184 32.4765 59.3941 33.2177 57.7063 33.2177C50.8765 33.2177 44.0466 33.3348 37.1775 33.3738C34.1944 33.3738 33.8018 33.0227 33.1738 30.2137C31.8785 24.2837 26.7365 19.9922 20.6524 19.7582C18.1403 19.6411 16.7665 18.7438 16.2169 16.8712C15.7067 14.9986 16.3347 13.438 18.4151 12.0726C23.3216 8.87349 28.0318 5.24526 34.2729 4.97217C37.4523 4.85513 40.5924 4.81612 43.7718 4.7771C44.9102 4.73809 46.0485 4.7771 47.1475 4.7771V4.81612ZM47.0298 31.5402V31.4621C50.4839 31.4621 53.9381 31.4231 57.353 31.4621C58.2951 31.4621 58.7661 31.189 58.9231 30.2137C60.1007 22.9573 66.9305 17.6905 73.5249 17.8075C74.3099 17.8075 75.5267 16.9102 75.723 16.208C75.9192 15.5057 75.3305 14.1793 74.6632 13.7111C72.0333 11.9165 69.3249 10.0829 66.4203 8.75645C64.1829 7.74211 61.5923 6.96184 59.1194 6.92283C50.8765 6.72776 42.6335 6.80579 34.3906 6.96184C32.3103 7.00086 30.2299 7.46901 28.3458 8.36632C25.1271 9.92685 22.1047 11.9555 19.0431 13.8282C18.101 14.4134 17.4338 15.3887 18.0618 16.364C18.6113 17.1443 19.4749 17.6905 20.4169 17.8075C27.7963 18.2757 33.2916 22.8402 34.8616 30.0186C35.0972 31.111 35.4897 31.5402 36.628 31.5402C40.1607 31.5011 43.6148 31.5402 47.0298 31.5402Z" fill="white"/>
<path d="M10.8376 59.3334C11.2694 58.4361 11.9759 57.6558 12.8394 57.1096C13.6637 56.6024 14.645 56.3293 15.6263 56.3293C16.4506 56.3293 17.2357 56.4854 17.9422 56.8755C18.5702 57.1876 19.1198 57.6948 19.473 58.28V56.5244H23.3197V68.9696H19.473V67.214C19.0805 67.7992 18.531 68.3064 17.903 68.6185C17.1964 68.9696 16.3721 69.1647 15.5871 69.1647C14.6058 69.1647 13.6245 68.8916 12.8002 68.3844C11.9366 67.8382 11.2694 67.058 10.7983 66.1217C10.2881 65.0683 10.0526 63.8979 10.0526 62.7275C10.0918 61.5181 10.3273 60.3477 10.8376 59.3334ZM18.688 60.4647C18.1777 59.9186 17.4712 59.6455 16.7646 59.6455C16.0189 59.6455 15.3123 59.9186 14.8413 60.4647C14.2918 61.089 14.017 61.8692 14.0563 62.6885C14.017 63.5078 14.2918 64.327 14.8413 64.9513C15.3516 65.4974 16.0581 65.8096 16.7646 65.7705C17.5104 65.7705 18.217 65.4974 18.688 64.9513C19.2375 64.327 19.5123 63.5078 19.473 62.6885C19.5123 61.8692 19.2375 61.0499 18.688 60.4647Z" fill="#0AD0D3"/>
<path d="M26.2635 54.6128C25.8318 54.2227 25.5963 53.7155 25.6355 53.1693C25.6355 52.6232 25.871 52.077 26.2635 51.6868C26.6953 51.2967 27.3233 51.0626 27.9121 51.1016C28.5009 51.0626 29.0897 51.2967 29.5215 51.6868C29.9532 52.077 30.1887 52.6232 30.1495 53.1693C30.1495 53.7155 29.914 54.2617 29.5215 54.6128C29.0897 55.003 28.5009 55.237 27.9121 55.198C27.2841 55.237 26.6953 55.003 26.2635 54.6128ZM29.7962 56.4855V68.9307H25.9495V56.4855H29.7962Z" fill="#0AD0D3"/>
<path d="M38 56.9536C38.6673 56.5635 39.4523 56.3684 40.2374 56.3684V60.3868H39.1776C38.2355 60.3868 37.4897 60.5818 37.0187 61.011C36.5477 61.4011 36.3122 62.1424 36.3122 63.1567V68.9307H32.4655V56.4854H36.3122V58.5531C36.7439 57.8899 37.2935 57.3437 38 56.9536Z" fill="#0AD0D3"/>
<path d="M51.8336 66.1607H45.9458L45.0037 68.9307H41L46.6915 53.2864H51.127L56.8186 68.9307H52.7756L51.8336 66.1607ZM50.813 63.1957L48.8504 57.4608L46.9271 63.1957H50.813Z" fill="#0AD0D3"/>
<path d="M58.6243 65.3025C60.0766 64.0931 61.2542 63.1178 62.0785 62.3375C62.8635 61.5962 63.6093 60.816 64.2373 59.9187C64.7868 59.2164 65.0616 58.3582 65.1009 57.4608C65.1401 56.9537 64.9831 56.4465 64.6691 56.0174C64.3551 55.6662 63.8841 55.4712 63.3738 55.5102C62.8635 55.4712 62.3532 55.7443 62.0392 56.1344C61.6859 56.6806 61.5289 57.3048 61.5682 57.929H57.8785C57.8785 56.8366 58.1533 55.7443 58.7028 54.7689C59.1738 53.9497 59.8803 53.2864 60.7439 52.8963C61.6074 52.5062 62.5887 52.2721 63.57 52.3111C65.3364 52.3111 66.6709 52.7793 67.613 53.6766C68.5158 54.6129 69.0261 55.9003 68.9868 57.2268C68.9868 58.8263 68.398 60.4258 67.3382 61.6353C66.1214 63.1178 64.7083 64.4442 63.1775 65.6146H69.2223V68.6966H57.957V65.8487C58.428 65.4586 58.6635 65.2635 58.6243 65.3025Z" fill="#0AD0D3"/>
<path d="M82.8426 62.2594C83.3921 62.9616 83.6669 63.8199 83.6669 64.6782C83.7061 65.8876 83.1958 67.019 82.293 67.7993C81.3902 68.5795 80.0949 68.9307 78.4463 68.9307H71.1062V53.2864H78.1716C79.7809 53.2864 81.037 53.6375 81.9398 54.3787C82.8426 55.081 83.3528 56.2124 83.3136 57.3437C83.3528 58.163 83.0781 58.9823 82.5678 59.6455C82.0575 60.2697 81.3902 60.6989 80.6445 60.933C81.508 61.05 82.293 61.5572 82.8426 62.2594ZM74.9529 59.6065H77.465C77.9753 59.6455 78.4856 59.4895 78.9174 59.1774C79.2706 58.8653 79.4669 58.4361 79.4276 57.968C79.4669 57.4998 79.2706 57.0707 78.9174 56.7585C78.4856 56.4464 77.9753 56.2904 77.465 56.3294H74.9529V59.6065ZM79.2706 65.4195C79.6239 65.1074 79.8202 64.6392 79.7809 64.1711C79.8202 63.6639 79.5846 63.1957 79.2314 62.8836C78.7996 62.5325 78.2501 62.3764 77.7006 62.4155H74.9137V65.8876H77.7398C78.2893 65.8876 78.8389 65.7316 79.2706 65.4195Z" fill="#0AD0D3"/>
<path d="M9.83759 58.2359C10.2694 57.3386 10.9759 56.5584 11.8394 56.0122C12.6637 55.505 13.645 55.2319 14.6263 55.2319C15.4506 55.2319 16.2357 55.388 16.9422 55.7781C17.5702 56.0902 18.1198 56.5974 18.473 57.1826V55.427H22.3197V67.8722H18.473V66.1166C18.0805 66.7018 17.531 67.209 16.903 67.5211C16.1964 67.8722 15.3721 68.0673 14.5871 68.0673C13.6058 68.0673 12.6245 67.7942 11.8002 67.287C10.9366 66.7408 10.2694 65.9606 9.79834 65.0242C9.28806 63.9709 9.05255 62.8005 9.05255 61.6301C9.0918 60.4207 9.32732 59.2503 9.83759 58.2359ZM17.688 59.3673C17.1777 58.8211 16.4712 58.5481 15.7646 58.5481C15.0189 58.5481 14.3123 58.8211 13.8413 59.3673C13.2918 59.9915 13.017 60.7718 13.0563 61.5911C13.017 62.4104 13.2918 63.2296 13.8413 63.8538C14.3516 64.4 15.0581 64.7121 15.7646 64.6731C16.5104 64.6731 17.217 64.4 17.688 63.8538C18.2375 63.2296 18.5123 62.4104 18.473 61.5911C18.5123 60.7718 18.2375 59.9525 17.688 59.3673Z" fill="white"/>
<path d="M25.2635 53.5154C24.8318 53.1253 24.5963 52.6181 24.6355 52.0719C24.6355 51.5257 24.871 50.9796 25.2635 50.5894C25.6953 50.1993 26.3233 49.9652 26.9121 50.0042C27.5009 49.9652 28.0897 50.1993 28.5215 50.5894C28.9532 50.9796 29.1887 51.5257 29.1495 52.0719C29.1495 52.6181 28.914 53.1643 28.5215 53.5154C28.0897 53.9055 27.5009 54.1396 26.9121 54.1006C26.2841 54.1396 25.6953 53.9055 25.2635 53.5154ZM28.7962 55.388V67.8332H24.9495V55.388H28.7962Z" fill="white"/>
<path d="M37 55.8562C37.6673 55.4661 38.4523 55.271 39.2374 55.271V59.2894H38.1776C37.2355 59.2894 36.4897 59.4844 36.0187 59.9136C35.5477 60.3037 35.3122 61.045 35.3122 62.0593V67.8332H31.4655V55.388H35.3122V57.4557C35.7439 56.7925 36.2935 56.2463 37 55.8562Z" fill="white"/>
<path d="M50.8336 65.0633H44.9458L44.0037 67.8333H40L45.6915 52.189H50.127L55.8186 67.8333H51.7756L50.8336 65.0633ZM49.813 62.0983L47.8504 56.3634L45.9271 62.0983H49.813Z" fill="white"/>
<path d="M57.6243 64.2051C59.0766 62.9957 60.2542 62.0203 61.0785 61.2401C61.8635 60.4988 62.6093 59.7186 63.2373 58.8213C63.7868 58.119 64.0616 57.2607 64.1009 56.3634C64.1401 55.8563 63.9831 55.3491 63.6691 54.9199C63.3551 54.5688 62.8841 54.3738 62.3738 54.4128C61.8635 54.3738 61.3532 54.6469 61.0392 55.037C60.6859 55.5832 60.5289 56.2074 60.5682 56.8316H56.8785C56.8785 55.7392 57.1533 54.6469 57.7028 53.6715C58.1738 52.8523 58.8803 52.189 59.7439 51.7989C60.6074 51.4088 61.5887 51.1747 62.57 51.2137C64.3364 51.2137 65.6709 51.6819 66.613 52.5792C67.5158 53.5155 68.0261 54.8029 67.9868 56.1294C67.9868 57.7289 67.398 59.3284 66.3382 60.5378C65.1214 62.0203 63.7083 63.3468 62.1775 64.5172H68.2223V67.5992H56.957V64.7513C57.428 64.3611 57.6635 64.1661 57.6243 64.2051Z" fill="white"/>
<path d="M81.8426 61.162C82.3921 61.8642 82.6669 62.7225 82.6669 63.5808C82.7061 64.7902 82.1958 65.9216 81.293 66.7019C80.3902 67.4821 79.0949 67.8333 77.4463 67.8333H70.1062V52.189H77.1716C78.7809 52.189 80.037 52.5401 80.9398 53.2813C81.8426 53.9836 82.3528 55.115 82.3136 56.2463C82.3528 57.0656 82.0781 57.8849 81.5678 58.5481C81.0575 59.1723 80.3902 59.6015 79.6445 59.8355C80.508 59.9526 81.293 60.4598 81.8426 61.162ZM73.9529 58.5091H76.465C76.9753 58.5481 77.4856 58.3921 77.9174 58.08C78.2706 57.7678 78.4669 57.3387 78.4276 56.8705C78.4669 56.4024 78.2706 55.9732 77.9174 55.6611C77.4856 55.349 76.9753 55.193 76.465 55.232H73.9529V58.5091ZM78.2706 64.3221C78.6239 64.01 78.8202 63.5418 78.7809 63.0736C78.8202 62.5665 78.5846 62.0983 78.2314 61.7862C77.7996 61.4351 77.2501 61.279 76.7006 61.3181H73.9137V64.7902H76.7398C77.2893 64.7902 77.8389 64.6342 78.2706 64.3221Z" fill="white"/>
</svg>
