<svg width="154" height="80" viewBox="0 0 154 80" fill="none" xmlns="http://www.w3.org/2000/svg">
<path d="M154 49.6479C153.82 50.906 153.67 52.4001 153.36 53.8548C153.16 54.7886 152.78 55.7028 152.4 56.5874C151.88 57.8062 151.32 59.0251 150.701 60.1948C150.161 61.2268 149.511 62.1999 148.901 63.1927C148.121 64.4705 147.081 65.5222 145.941 66.4953C144.791 67.4881 143.481 68.2155 142.072 68.7463C140.952 69.1689 139.812 69.5326 138.582 69.5523C137.982 69.5621 137.382 69.6309 136.792 69.739C136.592 69.7783 136.352 69.9749 136.262 70.1617C135.043 72.4912 133.323 74.3686 131.233 75.9806C129.723 77.1503 128.063 78.0448 126.254 78.6542C125.214 79.0081 124.154 79.3029 123.084 79.5487C122.494 79.6863 121.874 79.6666 121.264 79.7256C120.854 79.7649 120.454 79.8534 120.045 79.8632C119.765 79.873 119.475 79.7551 119.185 79.7256C118.385 79.6666 117.565 79.6666 116.765 79.5585C116.045 79.4602 115.325 79.3128 114.645 79.0867C113.525 78.7034 112.425 78.2807 111.356 77.7794C109.996 77.1405 108.736 76.305 107.636 75.2926C106.826 74.5456 106.026 73.7887 105.336 72.9434C104.627 72.0686 104.017 71.0955 103.427 70.1322C103.247 69.8471 103.107 69.7095 102.757 69.7095C85.519 69.7194 68.2912 69.7194 51.0535 69.7095C50.7535 69.7095 50.5635 69.7882 50.4335 70.0536C49.5536 71.813 48.3238 73.3267 46.904 74.6832C45.1542 76.3541 43.1445 77.6418 40.8448 78.4576C40.0249 78.7525 39.175 78.9786 38.3451 79.244C37.2052 79.6175 36.0254 79.7453 34.8256 79.7256C34.5956 79.7256 34.3556 79.8829 34.1157 79.8632C33.2358 79.8042 32.3559 79.7059 31.476 79.6077C31.106 79.5683 30.7361 79.47 30.3661 79.4209C29.1363 79.2538 27.9864 78.8213 26.8466 78.379C25.1568 77.7204 23.607 76.826 22.2472 75.6661C21.2573 74.8208 20.3474 73.8772 19.5175 72.8746C18.7476 71.9506 18.1577 70.889 17.4678 69.8963C17.3878 69.7882 17.1878 69.7194 17.0379 69.6997C15.998 69.5817 14.9381 69.6014 13.9283 69.3655C12.2085 68.9723 10.5587 68.3334 9.0789 67.3308C7.66908 66.3774 6.41925 65.247 5.45937 63.8807C4.4995 62.5046 3.7096 61.0106 2.9197 59.5264C2.26978 58.2977 1.69986 57.0297 1.17993 55.7421C0.849969 54.9262 0.709987 54.0514 0.46002 53.2061C-0.0199181 51.5744 -0.089909 49.9133 0.0300754 48.2423C0.110065 47.0824 0.290042 45.9226 0.510013 44.7922C0.709987 43.7798 0.989951 42.787 1.30991 41.8041C1.91983 39.9267 2.82971 38.1869 3.93957 36.5454C4.98943 34.9924 6.30926 33.6851 7.60909 32.3483C8.57897 31.3555 9.52884 30.3333 10.5087 29.3503C11.6286 28.2298 12.7784 27.1387 13.9283 26.0379C15.0981 24.9271 16.258 23.8066 17.4578 22.7254C18.3877 21.8801 19.3676 21.0937 20.3174 20.2779C21.3873 19.3539 22.4372 18.4005 23.527 17.4962C24.5869 16.6214 25.6767 15.7859 26.7666 14.9406C27.8065 14.1247 28.8263 13.2991 29.8862 12.5127C30.9661 11.7067 32.0859 10.9499 33.1758 10.1635C34.0257 9.56392 34.8456 8.92501 35.7154 8.34509C37.7552 6.97881 39.7149 5.50441 41.9646 4.48216C43.5944 3.73513 45.2242 2.98811 46.874 2.30005C47.5439 2.02483 48.2838 1.89705 48.9837 1.70046C49.6036 1.52354 50.2136 1.32695 50.8335 1.17951C51.2834 1.07139 51.7534 1.03207 52.2133 0.943607C52.8332 0.835484 53.4531 0.707703 54.0731 0.589751C54.153 0.570093 54.233 0.560263 54.323 0.560263C56.0228 0.501287 57.7226 0.432482 59.4224 0.383336C61.4821 0.32436 63.5418 0.412823 65.5816 0.206408C69.2211 -0.157277 72.8506 0.108115 76.4802 0.0393094C80.1097 -0.0196666 83.7492 -0.11796 87.3687 0.0786266C89.4185 0.196578 91.4682 0.127773 93.5079 0.226066C94.8778 0.285042 96.2476 0.31453 97.6274 0.373506C98.3273 0.402994 99.0372 0.442311 99.7371 0.560263C100.637 0.707703 101.537 0.933777 102.427 1.12053C103.327 1.30729 104.227 1.46456 105.116 1.70046C105.926 1.91671 106.716 2.17227 107.496 2.47698C108.626 2.9193 109.766 3.35179 110.836 3.90223C112.425 4.7279 113.995 5.61253 115.515 6.55615C117.015 7.48993 118.475 8.50235 119.915 9.53443C121.544 10.7041 123.144 11.9131 124.744 13.1221C126.294 14.2918 127.843 15.4713 129.373 16.6705C130.403 17.4765 131.383 18.3415 132.373 19.1868C133.573 20.2091 134.783 21.2117 135.952 22.2634C137.382 23.5609 138.782 24.8878 140.162 26.2246C141.762 27.7678 143.381 29.3012 144.931 30.8935C146.491 32.4957 148.051 34.1176 149.471 35.8377C150.271 36.8108 150.87 37.9608 151.44 39.0912C152 40.2019 152.44 41.3814 152.85 42.5609C153.11 43.2981 153.23 44.0845 153.38 44.8512C153.51 45.5589 153.59 46.2863 153.69 47.0038C153.79 47.8393 153.88 48.6256 154 49.6479ZM138.402 64.5786C139.072 64.3919 139.682 64.2739 140.242 64.0577C141.982 63.3893 143.391 62.2786 144.421 60.755C145.581 59.0447 146.531 57.2165 147.351 55.3194C147.921 54.0023 148.421 52.6851 148.621 51.2599C148.861 49.5004 148.741 47.7508 148.371 46.0405C148.121 44.8807 147.711 43.7405 147.241 42.6494C146.871 41.7943 146.361 40.9686 145.791 40.2117C144.961 39.1305 144.041 38.1083 143.122 37.0958C142.332 36.2309 141.482 35.415 140.662 34.5795C139.892 33.803 139.142 33.0068 138.352 32.25C137.122 31.0803 135.862 29.9499 134.613 28.7999C133.363 27.6499 132.133 26.49 130.863 25.3695C129.553 24.2194 128.223 23.0891 126.864 22.0078C125.234 20.7005 123.564 19.4326 121.894 18.1744C120.114 16.8474 118.335 15.5205 116.515 14.2525C114.805 13.0632 113.025 11.9524 111.286 10.8024C109.826 9.83914 108.236 9.14126 106.616 8.49252C105.476 8.03055 104.277 7.68652 103.077 7.36215C102.197 7.11642 101.287 6.92966 100.387 6.80188C99.2072 6.63478 98.0274 6.51683 96.8375 6.42837C95.2377 6.31042 93.6479 6.39888 92.0381 6.2711C89.1485 6.04502 86.2289 6.07451 83.3293 6.08434C78.2899 6.09417 73.2606 6.14332 68.2212 6.23178C65.8215 6.2711 63.4318 6.09417 61.0222 6.38905C59.0324 6.63478 57.0027 6.55615 54.9929 6.61512C54.893 6.61512 54.793 6.6053 54.693 6.62495C54.0831 6.74291 53.4731 6.87069 52.8532 6.97881C52.3933 7.05744 51.9133 7.0771 51.4634 7.19505C50.4835 7.46045 49.4837 7.72584 48.5438 8.09935C46.864 8.75792 45.1442 9.36733 43.5744 10.2421C41.4647 11.4217 39.455 12.7879 37.4752 14.1739C35.2455 15.7269 33.0758 17.3684 30.9061 19.0099C29.3663 20.1698 27.8465 21.3591 26.3567 22.5779C25.0568 23.6493 23.807 24.7797 22.5472 25.8904C20.9374 27.3157 19.3076 28.7409 17.7378 30.2055C16.118 31.729 14.5382 33.2919 12.9684 34.8646C11.6786 36.1621 10.4087 37.4792 9.15889 38.816C7.63909 40.4575 6.65921 42.4135 5.94931 44.517C5.80933 44.9396 5.66934 45.382 5.59935 45.8243C5.45937 46.7384 5.35938 47.6525 5.2694 48.5667C5.06942 50.5817 5.32939 52.5377 6.16928 54.3856C6.83919 55.8698 7.5391 57.3442 8.309 58.7793C8.81893 59.7328 9.41886 60.6567 10.0988 61.502C11.1386 62.7897 12.5385 63.635 14.0982 64.1953C14.5382 64.3525 15.0181 64.4214 15.5681 64.5491C15.5081 63.9987 15.4181 63.5367 15.4081 63.0747C15.3881 62.1606 15.4081 61.2367 15.3981 60.3225C15.3881 58.9956 15.678 57.6981 16.038 56.4399C16.5379 54.7296 17.2678 53.0882 18.2777 51.6039C18.8776 50.7193 19.5475 49.874 20.2475 49.068C21.4873 47.6624 22.9471 46.4927 24.6069 45.608C25.9167 44.9102 27.2965 44.3597 28.6664 43.7798C29.0563 43.6127 29.5062 43.5537 29.9362 43.4751C30.7561 43.3178 31.576 43.0622 32.3959 43.0426C33.9257 43.0131 35.4655 43.1114 36.9953 43.2097C37.5852 43.249 38.1751 43.3768 38.7351 43.5537C39.5649 43.8191 40.3548 44.1828 41.1747 44.4875C42.7645 45.0674 44.2043 45.9226 45.5242 46.935C46.844 47.9474 48.0638 49.0876 48.9737 50.4932C49.5237 51.3385 50.1736 52.1445 50.6135 53.0488C51.1334 54.0809 51.4934 55.1916 51.8933 56.2827C52.4333 57.7276 52.6932 59.2315 52.6632 60.7747C52.6432 61.8657 52.5833 62.9568 52.5433 64.0478C52.5133 64.7162 52.5133 64.7162 53.2132 64.7162C69.0711 64.7162 84.9191 64.7162 100.777 64.7162C100.897 64.7162 101.007 64.7064 101.127 64.7162C101.507 64.7556 101.527 64.5393 101.487 64.2543C101.367 63.3893 101.147 62.5243 101.177 61.6593C101.227 60.1063 101.327 58.5533 101.807 57.0494C102.107 56.1156 102.347 55.1523 102.727 54.248C103.807 51.6924 105.436 49.5299 107.546 47.682C109.646 45.8439 112.056 44.6054 114.685 43.7405C116.255 43.2195 117.895 42.964 119.565 43.0229C120.684 43.0622 121.814 43.0328 122.904 43.2293C124.154 43.4554 125.384 43.8289 126.574 44.2614C128.263 44.8807 129.823 45.7456 131.253 46.8367C133.403 48.488 135.153 50.4735 136.392 52.8621C136.872 53.7959 137.322 54.7493 137.662 55.7421C137.972 56.6464 138.112 57.5998 138.302 58.5434C138.402 59.0644 138.482 59.5952 138.492 60.1259C138.522 61.0499 138.512 61.9739 138.492 62.8978C138.482 63.4384 138.432 63.9692 138.402 64.5786ZM34.3956 74.752C37.8252 74.7028 41.0947 73.3955 43.7444 70.6728C46.4141 67.9403 47.6839 64.6376 47.5239 60.8926C47.2339 54.1301 41.7247 48.3602 34.3056 48.203C26.4466 48.0359 20.5974 54.2578 20.5374 61.2661C20.5074 65.3158 22.0172 68.7463 25.1068 71.4297C27.6265 73.6118 30.6161 74.7323 34.3956 74.752ZM119.915 74.7323C127.404 74.8109 133.243 68.6775 133.373 61.7969C133.523 53.9236 127.124 48.5372 120.774 48.203C116.615 47.9769 113.025 49.3235 110.136 52.2821C107.526 54.9557 106.316 58.1994 106.426 61.905C106.536 65.4928 107.936 68.5497 110.546 71.0267C113.145 73.4938 116.305 74.7028 119.915 74.7323Z" fill="black"/>
</svg>
