<svg width="11" height="11" viewBox="0 0 11 11" fill="none" xmlns="http://www.w3.org/2000/svg">
<path d="M9.71875 5.75C9.85682 5.75 9.96875 5.63807 9.96875 5.5C9.96875 5.36193 9.85682 5.25 9.71875 5.25V5.75ZM9.75 5.5C9.75 7.84721 7.84721 9.75 5.5 9.75V10.25C8.12335 10.25 10.25 8.12335 10.25 5.5H9.75ZM5.5 9.75C3.15279 9.75 1.25 7.84721 1.25 5.5H0.75C0.75 8.12335 2.87665 10.25 5.5 10.25V9.75ZM1.25 5.5C1.25 3.15279 3.15279 1.25 5.5 1.25V0.75C2.87665 0.75 0.75 2.87665 0.75 5.5H1.25ZM5.5 1.25C7.84721 1.25 9.75 3.15279 9.75 5.5H10.25C10.25 2.87665 8.12335 0.75 5.5 0.75V1.25ZM5.5 9.75C5.31089 9.75 5.11102 9.66345 4.90744 9.46663C4.70265 9.26865 4.50681 8.9701 4.33692 8.58178C3.99747 7.80588 3.78125 6.7165 3.78125 5.5H3.28125C3.28125 6.76878 3.50575 7.9294 3.87884 8.78219C4.06523 9.20821 4.29362 9.56866 4.55991 9.82611C4.8274 10.0847 5.14546 10.25 5.5 10.25V9.75ZM3.78125 5.5C3.78125 4.2835 3.99747 3.19412 4.33692 2.41822C4.50681 2.0299 4.70265 1.73135 4.90744 1.53337C5.11102 1.33655 5.31089 1.25 5.5 1.25V0.75C5.14546 0.75 4.8274 0.915289 4.55991 1.1739C4.29362 1.43134 4.06523 1.79179 3.87884 2.21781C3.50575 3.0706 3.28125 4.23122 3.28125 5.5H3.78125ZM5.5 10.25C5.85454 10.25 6.1726 10.0847 6.44009 9.82611C6.70638 9.56866 6.93477 9.20821 7.12116 8.78219C7.49425 7.9294 7.71875 6.76878 7.71875 5.5H7.21875C7.21875 6.7165 7.00253 7.80588 6.66308 8.58178C6.49319 8.9701 6.29735 9.26865 6.09256 9.46663C5.88898 9.66345 5.68911 9.75 5.5 9.75V10.25ZM7.71875 5.5C7.71875 4.23122 7.49425 3.0706 7.12116 2.21781C6.93477 1.79179 6.70638 1.43134 6.44009 1.1739C6.1726 0.915289 5.85454 0.75 5.5 0.75V1.25C5.68911 1.25 5.88898 1.33655 6.09256 1.53337C6.29735 1.73135 6.49319 2.0299 6.66308 2.41822C7.00253 3.19412 7.21875 4.2835 7.21875 5.5H7.71875ZM1 5.75L9.71875 5.75V5.25L1 5.25L1 5.75Z" fill="white"/>
</svg>
