<svg width="542" height="284" viewBox="0 0 542 284" fill="none" xmlns="http://www.w3.org/2000/svg">
<path d="M541.075 176.404C540.443 180.871 539.916 186.176 538.827 191.341C538.124 194.656 536.79 197.902 535.455 201.042C533.628 205.37 531.661 209.697 529.484 213.85C527.587 217.514 525.304 220.969 523.161 224.494C520.421 229.03 516.768 232.765 512.764 236.219C508.725 239.744 504.123 242.327 499.17 244.211C495.236 245.712 491.232 247.003 486.912 247.073C484.804 247.108 482.697 247.352 480.624 247.736C479.922 247.875 479.079 248.573 478.763 249.236C474.477 257.507 468.436 264.173 461.095 269.896C455.791 274.049 449.96 277.224 443.602 279.388C439.949 280.644 436.226 281.691 432.467 282.564C430.395 283.052 428.217 282.983 426.075 283.192C424.635 283.332 423.229 283.646 421.789 283.681C420.806 283.715 419.787 283.297 418.769 283.192C415.959 282.983 413.078 282.983 410.268 282.599C407.739 282.25 405.21 281.726 402.822 280.924C398.888 279.563 395.024 278.062 391.265 276.282C386.488 274.014 382.063 271.048 378.199 267.453C375.354 264.801 372.544 262.114 370.12 259.112C367.626 256.007 365.484 252.552 363.411 249.132C362.779 248.12 362.287 247.631 361.058 247.631C300.502 247.666 239.981 247.666 179.425 247.631C178.371 247.631 177.704 247.91 177.247 248.852C174.156 255.099 169.836 260.473 164.848 265.289C158.701 271.222 151.641 275.794 143.562 278.69C140.682 279.737 137.696 280.54 134.78 281.482C130.776 282.808 126.631 283.262 122.416 283.192C121.608 283.192 120.765 283.75 119.922 283.681C116.831 283.471 113.74 283.122 110.649 282.773C109.35 282.634 108.05 282.285 106.75 282.11C102.43 281.517 98.3906 279.981 94.3864 278.411C88.4502 276.073 83.0058 272.897 78.2287 268.779C74.7513 265.778 71.5549 262.428 68.6395 258.868C65.9349 255.588 63.8625 251.819 61.4388 248.294C61.1578 247.91 60.4553 247.666 59.9284 247.596C56.2754 247.177 52.5521 247.247 49.0045 246.41C42.9629 245.014 37.1672 242.745 31.9687 239.186C27.016 235.801 22.6253 231.787 19.2533 226.937C15.8813 222.051 13.1064 216.746 10.3315 211.477C8.04834 207.115 6.0462 202.613 4.21968 198.041C3.06055 195.145 2.56879 192.039 1.69066 189.037C0.00464451 183.244 -0.241232 177.347 0.180271 171.414C0.461274 167.296 1.09353 163.178 1.86629 159.165C2.56879 155.57 3.5523 152.046 4.67631 148.556C6.81895 141.89 10.0154 135.714 13.9143 129.886C17.6024 124.372 22.239 119.73 26.8053 114.984C30.2124 111.459 33.5493 107.83 36.9916 104.34C40.9256 100.362 44.965 96.4883 49.0045 92.5797C53.1141 88.6362 57.1887 84.6579 61.4037 80.8191C64.6703 77.8179 68.1126 75.0261 71.4495 72.1295C75.2079 68.8491 78.8961 65.464 82.7248 62.2534C86.448 59.1475 90.2767 56.1812 94.1054 53.18C97.7584 50.2835 101.341 47.352 105.064 44.5602C108.858 41.6986 112.792 39.0114 116.621 36.2196C119.606 34.0908 122.487 31.8225 125.543 29.7635C132.708 24.9127 139.593 19.678 147.496 16.0486C153.221 13.3964 158.947 10.7442 164.742 8.3013C167.096 7.32416 169.695 6.87048 172.154 6.17253C174.332 5.54436 176.474 4.84641 178.652 4.32294C180.233 3.93906 181.883 3.79947 183.499 3.48539C185.677 3.10151 187.855 2.64784 190.033 2.22907C190.314 2.15927 190.595 2.12437 190.911 2.12437C196.882 1.91498 202.853 1.6707 208.825 1.49621C216.06 1.28682 223.296 1.6009 230.462 0.868047C243.247 -0.423175 255.998 0.519069 268.748 0.274783C281.499 0.0653959 294.284 -0.283583 307 0.414375C314.201 0.83315 321.401 0.588864 328.567 0.937843C333.379 1.14723 338.191 1.25192 343.038 1.46131C345.497 1.56601 347.991 1.7056 350.45 2.12437C353.611 2.64784 356.772 3.45049 359.899 4.11355C363.06 4.77661 366.221 5.33498 369.347 6.17253C372.192 6.94028 374.967 7.84763 377.707 8.92946C381.676 10.4999 385.681 12.0354 389.439 13.9897C395.024 16.9211 400.539 20.0619 405.878 23.4121C411.146 26.7274 416.275 30.3219 421.333 33.9861C427.058 38.139 432.678 42.4314 438.298 46.7239C443.743 50.8767 449.187 55.0645 454.561 59.322C458.179 62.1836 461.621 65.2547 465.099 68.2559C469.314 71.8853 473.564 75.4448 477.674 79.1789C482.697 83.7854 487.614 88.4967 492.462 93.2428C498.082 98.7217 503.772 104.166 509.216 109.819C514.696 115.508 520.175 121.266 525.163 127.373C527.973 130.828 530.081 134.911 532.083 138.924C534.05 142.868 535.595 147.055 537.035 151.243C537.949 153.86 538.37 156.652 538.897 159.374C539.354 161.887 539.635 164.469 539.986 167.017C540.337 169.983 540.653 172.775 541.075 176.404ZM486.279 229.414C488.633 228.751 490.775 228.333 492.742 227.565C498.854 225.192 503.807 221.248 507.425 215.839C511.499 209.767 514.836 203.276 517.717 196.541C519.719 191.864 521.475 187.188 522.178 182.128C523.021 175.881 522.599 169.669 521.299 163.597C520.421 159.479 518.981 155.431 517.33 151.557C516.031 148.521 514.239 145.59 512.237 142.902C509.322 139.064 506.09 135.434 502.859 131.84C500.084 128.769 497.098 125.872 494.218 122.906C491.513 120.149 488.879 117.322 486.104 114.635C481.783 110.482 477.358 106.469 472.967 102.386C468.576 98.303 464.256 94.185 459.795 90.2067C455.194 86.1236 450.522 82.1103 445.745 78.2716C440.019 73.6302 434.153 69.1283 428.288 64.6614C422.035 59.9502 415.783 55.239 409.39 50.7371C403.384 46.5145 397.131 42.571 391.02 38.488C385.891 35.068 380.306 32.5902 374.616 30.287C370.612 28.6468 366.397 27.4253 362.182 26.2737C359.091 25.4013 355.894 24.7382 352.733 24.2845C348.588 23.6913 344.443 23.2725 340.264 22.9584C334.643 22.5396 329.059 22.8537 323.403 22.4C313.252 21.5974 302.996 21.7021 292.809 21.737C275.106 21.7719 257.438 21.9464 239.735 22.2605C231.305 22.4 222.91 21.7719 214.445 22.8188C207.455 23.6913 200.324 23.4121 193.264 23.6215C192.913 23.6215 192.562 23.5866 192.21 23.6564C190.068 24.0751 187.925 24.5288 185.747 24.9127C184.131 25.1919 182.445 25.2617 180.865 25.6804C177.423 26.6227 173.91 27.5649 170.608 28.8911C164.707 31.2292 158.666 33.3929 153.151 36.4988C145.74 40.6865 138.679 45.5373 131.725 50.458C123.892 55.9718 116.269 61.7998 108.647 67.6277C103.238 71.7457 97.8989 75.9683 92.6652 80.2957C88.0989 84.0995 83.7083 88.1128 79.2825 92.0562C73.6273 97.1164 67.9019 102.177 62.3872 107.376C56.6969 112.786 51.1471 118.334 45.6324 123.918C41.1013 128.525 36.6403 133.201 32.2497 137.947C26.9106 143.775 23.4684 150.72 20.9745 158.188C20.4827 159.688 19.9909 161.259 19.7451 162.829C19.2533 166.075 18.9021 169.32 18.5859 172.566C17.8834 179.72 18.7967 186.664 21.7472 193.225C24.1006 198.495 26.5594 203.73 29.264 208.825C31.0554 212.21 33.1629 215.49 35.5515 218.491C39.2045 223.063 44.122 226.064 49.6016 228.053C51.1471 228.612 52.8331 228.856 54.765 229.31C54.5542 227.355 54.2381 225.715 54.203 224.075C54.1327 220.829 54.203 217.549 54.1679 214.304C54.1327 209.592 55.1514 204.986 56.4159 200.519C58.1722 194.447 60.7363 188.619 64.284 183.349C66.3915 180.208 68.7449 177.207 71.2036 174.345C75.5592 169.355 80.6875 165.202 86.5183 162.061C91.1197 159.584 95.967 157.629 100.779 155.57C102.149 154.977 103.73 154.768 105.24 154.489C108.12 153.93 111.001 153.023 113.881 152.953C119.255 152.848 124.664 153.197 130.039 153.546C132.111 153.686 134.183 154.14 136.15 154.768C139.066 155.71 141.841 157.001 144.721 158.083C150.306 160.142 155.364 163.178 160 166.773C164.637 170.367 168.922 174.415 172.119 179.406C174.051 182.407 176.334 185.269 177.879 188.479C179.706 192.143 180.97 196.087 182.375 199.961C184.272 205.091 185.185 210.43 185.08 215.909C185.01 219.783 184.799 223.656 184.658 227.53C184.553 229.903 184.553 229.903 187.012 229.903C242.721 229.903 298.394 229.903 354.103 229.903C354.524 229.903 354.911 229.868 355.332 229.903C356.667 230.043 356.737 229.275 356.597 228.263C356.175 225.192 355.403 222.121 355.508 219.05C355.684 213.536 356.035 208.022 357.721 202.683C358.775 199.367 359.618 195.947 360.952 192.737C364.746 183.663 370.471 175.986 377.883 169.425C385.259 162.899 393.724 158.502 402.962 155.431C408.477 153.581 414.237 152.674 420.103 152.883C424.037 153.023 428.007 152.918 431.835 153.616C436.226 154.419 440.546 155.745 444.726 157.28C450.662 159.479 456.142 162.55 461.165 166.424C468.717 172.287 474.864 179.336 479.219 187.816C480.905 191.131 482.486 194.516 483.68 198.041C484.769 201.252 485.261 204.637 485.928 207.987C486.279 209.837 486.56 211.721 486.596 213.606C486.701 216.886 486.666 220.166 486.596 223.447C486.56 225.366 486.385 227.251 486.279 229.414ZM120.906 265.534C132.954 265.359 144.44 260.718 153.748 251.051C163.127 241.349 167.587 229.624 167.025 216.328C166.007 192.318 146.653 171.833 120.59 171.274C92.9813 170.681 72.433 192.772 72.2223 217.654C72.1169 232.032 77.4208 244.211 88.2746 253.738C97.1261 261.486 107.629 265.464 120.906 265.534ZM421.333 265.464C447.642 265.743 468.155 243.967 468.611 219.538C469.138 191.585 446.658 172.461 424.354 171.274C409.741 170.472 397.131 175.253 386.98 185.757C377.812 195.249 373.562 206.766 373.949 219.922C374.335 232.66 379.253 243.513 388.42 252.307C397.553 261.067 408.653 265.359 421.333 265.464Z" fill="white"/>
</svg>
