<svg width="72" height="61" viewBox="0 0 72 61" fill="none" xmlns="http://www.w3.org/2000/svg">
<g clip-path="url(#clip0_1170_169)">
<path d="M72.0002 23.4769C71.9161 24.0719 71.8459 24.7783 71.701 25.4662C71.6075 25.9078 71.4299 26.3401 71.2523 26.7584C71.0092 27.3347 70.7474 27.9111 70.4576 28.4642C70.2051 28.9522 69.9013 29.4124 69.6161 29.8818C69.2515 30.4861 68.7653 30.9834 68.2324 31.4435C67.6948 31.913 67.0824 32.2569 66.4233 32.5079C65.8997 32.7078 65.3668 32.8798 64.7918 32.8891C64.5113 32.8937 64.2308 32.9262 63.955 32.9774C63.8615 32.996 63.7493 33.0889 63.7073 33.1772C63.1369 34.2788 62.3329 35.1666 61.3559 35.9288C60.65 36.4819 59.874 36.9049 59.0279 37.1931C58.5417 37.3604 58.0462 37.4998 57.546 37.616C57.2702 37.6811 56.9803 37.6718 56.6952 37.6997C56.5035 37.7183 56.3165 37.7601 56.1249 37.7648C55.994 37.7694 55.8584 37.7136 55.7228 37.6997C55.3489 37.6718 54.9655 37.6718 54.5916 37.6207C54.255 37.5742 53.9184 37.5045 53.6005 37.3976C53.0769 37.2163 52.5627 37.0165 52.0625 36.7794C51.4268 36.4773 50.8378 36.0822 50.3235 35.6035C49.9449 35.2502 49.5709 34.8923 49.2484 34.4926C48.9165 34.0789 48.6313 33.6188 48.3555 33.1633C48.2713 33.0285 48.2059 32.9634 48.0423 32.9634C39.9831 32.9681 31.9285 32.9681 23.8693 32.9634C23.7291 32.9634 23.6402 33.0006 23.5795 33.1261C23.1681 33.9581 22.5931 34.6739 21.9293 35.3153C21.1112 36.1055 20.1716 36.7143 19.0964 37.1001C18.7131 37.2396 18.3157 37.3465 17.9277 37.472C17.3948 37.6486 16.8432 37.709 16.2822 37.6997C16.1747 37.6997 16.0625 37.7741 15.9503 37.7648C15.539 37.7369 15.1276 37.6904 14.7162 37.6439C14.5432 37.6253 14.3703 37.5789 14.1973 37.5556C13.6223 37.4766 13.0847 37.2721 12.5518 37.0629C11.7618 36.7515 11.0372 36.3286 10.4014 35.7801C9.93865 35.3804 9.51325 34.9342 9.12525 34.4601C8.7653 34.0232 8.48949 33.5212 8.16693 33.0517C8.12954 33.0006 8.03604 32.9681 7.96592 32.9588C7.47975 32.903 6.98423 32.9123 6.51208 32.8007C5.70803 32.6148 4.9367 32.3127 4.24485 31.8386C3.58571 31.3878 3.00137 30.8532 2.5526 30.2072C2.10382 29.5565 1.73452 28.85 1.36522 28.1481C1.06136 27.5671 0.794904 26.9675 0.551819 26.3587C0.397553 25.9729 0.332107 25.5592 0.215239 25.1595C-0.0091475 24.3879 -0.0418705 23.6024 0.0142261 22.8123C0.0516239 22.2638 0.135769 21.7153 0.238613 21.1808C0.332107 20.7021 0.462999 20.2326 0.61259 19.7678C0.897748 18.8801 1.32315 18.0574 1.84204 17.2812C2.33289 16.5468 2.94995 15.9286 3.55766 15.2965C4.01111 14.827 4.45521 14.3436 4.91333 13.8788C5.4369 13.349 5.97449 12.8331 6.51208 12.3125C7.05903 11.7873 7.60129 11.2574 8.16226 10.7461C8.59701 10.3464 9.05513 9.97455 9.49923 9.58877C9.99942 9.15186 10.4903 8.70101 10.9998 8.27339C11.4953 7.85972 12.0049 7.46464 12.5144 7.06492C13.0006 6.67914 13.4774 6.28871 13.9729 5.91687C14.4778 5.53574 15.0014 5.17784 15.5109 4.806C15.9083 4.52248 16.2916 4.22036 16.6983 3.94613C17.6519 3.30006 18.5682 2.60287 19.62 2.11948C20.382 1.76623 21.1439 1.41298 21.9153 1.08763C22.2285 0.957483 22.5744 0.897059 22.9016 0.8041C23.1915 0.720436 23.4766 0.627477 23.7665 0.557757C23.9768 0.50663 24.1965 0.488038 24.4116 0.446206C24.7014 0.395078 24.9912 0.334655 25.2811 0.278879C25.3185 0.269583 25.3559 0.264935 25.3979 0.264935C26.1926 0.237047 26.9873 0.204511 27.782 0.181271C28.745 0.153384 29.708 0.195215 30.6617 0.0976079C32.3633 -0.0743671 34.0602 0.0511282 35.7571 0.0185924C37.454 -0.00929543 39.1556 -0.0557752 40.8479 0.0371843C41.8062 0.09296 42.7645 0.0604242 43.7182 0.106904C44.3586 0.134792 44.999 0.148736 45.6441 0.176623C45.9714 0.190567 46.3033 0.209159 46.6305 0.264935C47.0512 0.334655 47.472 0.441558 47.888 0.529869C48.3087 0.618181 48.7295 0.692548 49.1455 0.8041C49.5242 0.906355 49.8935 1.0272 50.2581 1.17129C50.7863 1.38045 51.3193 1.58496 51.8195 1.84525C52.5627 2.23568 53.2967 2.65399 54.0072 3.1002C54.7084 3.54176 55.3909 4.0205 56.0641 4.50853C56.8261 5.06164 57.574 5.63334 58.322 6.20504C59.0466 6.75815 59.7711 7.31591 60.4864 7.88296C60.9679 8.2641 61.426 8.67312 61.8888 9.07284C62.4498 9.55623 63.0154 10.0303 63.5623 10.5277C64.2308 11.1412 64.8853 11.7687 65.5304 12.4008C66.2784 13.1305 67.0357 13.8556 67.7602 14.6086C68.4895 15.3662 69.2188 16.1331 69.8826 16.9465C70.2565 17.4067 70.537 17.9505 70.8035 18.485C71.0653 19.0102 71.271 19.568 71.4626 20.1257C71.5842 20.4743 71.6403 20.8462 71.7104 21.2087C71.7711 21.5434 71.8085 21.8873 71.8553 22.2266C71.902 22.6217 71.9441 22.9935 72.0002 23.4769ZM64.7076 30.5372C65.0209 30.4489 65.306 30.3931 65.5678 30.2908C66.3812 29.9748 67.0403 29.4496 67.5218 28.7291C68.0641 27.9204 68.5082 27.0558 68.8915 26.1588C69.158 25.536 69.3917 24.9131 69.4852 24.2392C69.5974 23.4072 69.5413 22.5799 69.3683 21.7711C69.2515 21.2226 69.0598 20.6835 68.8401 20.1676C68.6671 19.7632 68.4287 19.3728 68.1623 19.0149C67.7743 18.5036 67.3442 18.0202 66.9141 17.5414C66.5448 17.1324 66.1475 16.7466 65.7641 16.3516C65.4042 15.9844 65.0536 15.6079 64.6843 15.25C64.1093 14.6969 63.5203 14.1624 62.9359 13.6186C62.3516 13.0747 61.7766 12.5263 61.1829 11.9964C60.5705 11.4526 59.9488 10.9181 59.313 10.4068C58.551 9.78863 57.7704 9.18904 56.9897 8.5941C56.1576 7.96663 55.3255 7.33915 54.4747 6.73956C53.6753 6.17716 52.8432 5.65194 52.0298 5.10812C51.3473 4.65262 50.604 4.32262 49.8467 4.01585C49.3138 3.79739 48.7528 3.63472 48.1919 3.48133C47.7805 3.36513 47.3551 3.27682 46.9344 3.2164C46.3828 3.13738 45.8311 3.08161 45.2748 3.03977C44.5269 2.984 43.7836 3.02583 43.031 2.96541C41.68 2.8585 40.315 2.87245 38.9593 2.8771C36.6032 2.88174 34.2519 2.90498 31.8958 2.94682C30.7739 2.96541 29.6566 2.88174 28.53 3.02118C27.5997 3.13738 26.6508 3.1002 25.7111 3.12809C25.6644 3.12809 25.6177 3.12344 25.5709 3.13273C25.2857 3.18851 25.0006 3.24893 24.7108 3.30006C24.4957 3.33724 24.2713 3.34654 24.061 3.40232C23.6029 3.52781 23.1354 3.65331 22.696 3.82993C21.9106 4.14134 21.1066 4.42952 20.3726 4.84319C19.3863 5.40094 18.4466 6.04701 17.521 6.70238C16.4786 7.43676 15.4642 8.21297 14.4498 8.98918C13.7298 9.53764 13.0193 10.1 12.3228 10.6764C11.715 11.183 11.1307 11.7175 10.5417 12.2428C9.78906 12.9167 9.02708 13.5907 8.29315 14.2832C7.53585 15.0037 6.79724 15.7427 6.06331 16.4864C5.46027 17.0999 4.86658 17.7227 4.28224 18.3548C3.57169 19.1311 3.11356 20.056 2.78166 21.0507C2.71621 21.2505 2.65077 21.4597 2.61804 21.6688C2.5526 22.1011 2.50585 22.5334 2.46378 22.9656C2.37028 23.9185 2.49183 24.8434 2.8845 25.7172C3.19771 26.4191 3.52494 27.1163 3.88489 27.7949C4.1233 28.2457 4.40379 28.6826 4.72167 29.0824C5.20784 29.6913 5.8623 30.091 6.59155 30.3559C6.79724 30.4303 7.02163 30.4628 7.27874 30.5232C7.25069 30.263 7.20862 30.0445 7.20394 29.826C7.19459 29.3938 7.20394 28.9569 7.19927 28.5246C7.19459 27.8971 7.33016 27.2836 7.49845 26.6887C7.73218 25.8799 8.07344 25.1037 8.54559 24.4019C8.82607 23.9835 9.13928 23.5838 9.46651 23.2027C10.0462 22.538 10.7287 21.9849 11.5047 21.5666C12.1171 21.2366 12.7622 20.9763 13.4026 20.7021C13.5849 20.6231 13.7953 20.5952 13.9963 20.558C14.3796 20.4836 14.763 20.3628 15.1463 20.3535C15.8615 20.3395 16.5814 20.386 17.2967 20.4325C17.5725 20.4511 17.8483 20.5115 18.1101 20.5952C18.4981 20.7207 18.8674 20.8926 19.2507 21.0367C19.994 21.311 20.6671 21.7153 21.2842 22.1941C21.9013 22.6728 22.4716 23.212 22.897 23.8766C23.1541 24.2764 23.4579 24.6575 23.6636 25.0851C23.9067 25.5731 24.075 26.0984 24.262 26.6143C24.5144 27.2975 24.636 28.0087 24.6219 28.7384C24.6126 29.2543 24.5845 29.7703 24.5658 30.2862C24.5518 30.6023 24.5518 30.6023 24.879 30.6023C32.2932 30.6023 39.7026 30.6023 47.1167 30.6023C47.1728 30.6023 47.2242 30.5976 47.2803 30.6023C47.4579 30.6208 47.4673 30.5186 47.4486 30.3838C47.3925 29.9748 47.2896 29.5658 47.3037 29.1567C47.327 28.4224 47.3738 27.688 47.5982 26.9768C47.7384 26.5353 47.8506 26.0798 48.0283 25.6522C48.5331 24.4437 49.2951 23.4211 50.2815 22.5473C51.2632 21.6781 52.3898 21.0925 53.6192 20.6835C54.3531 20.4371 55.1198 20.3163 55.9005 20.3442C56.424 20.3628 56.9523 20.3488 57.4618 20.4418C58.0462 20.5487 58.6212 20.7253 59.1775 20.9298C59.9675 21.2226 60.6967 21.6317 61.3652 22.1476C62.3703 22.9284 63.1884 23.8673 63.768 24.9968C63.9924 25.4384 64.2028 25.8892 64.3617 26.3587C64.5066 26.7863 64.5721 27.2371 64.6609 27.6833C64.7076 27.9297 64.745 28.1807 64.7497 28.4317C64.7637 28.8686 64.7591 29.3055 64.7497 29.7424C64.745 29.998 64.7217 30.249 64.7076 30.5372ZM16.0812 35.3478C17.6847 35.3246 19.2133 34.7064 20.4521 33.4189C21.7002 32.1268 22.2939 30.5651 22.2191 28.7942C22.0836 25.5964 19.5078 22.868 16.0392 22.7937C12.3648 22.7146 9.63012 25.6568 9.60207 28.9708C9.58805 30.8858 10.2939 32.5079 11.7384 33.7768C12.9164 34.8087 14.3142 35.3385 16.0812 35.3478ZM56.0641 35.3385C59.5655 35.3757 62.2955 32.4754 62.3563 29.2218C62.4264 25.4988 59.4346 22.9517 56.4661 22.7937C54.5214 22.6868 52.8432 23.3235 51.4922 24.7226C50.2721 25.9868 49.7065 27.5206 49.7579 29.2729C49.8093 30.9694 50.4638 32.415 51.6839 33.5863C52.8993 34.7529 54.3765 35.3246 56.0641 35.3385Z" fill="white"/>
<path d="M53.2361 47.5442C54.1991 47.5442 55.1481 47.5256 56.097 47.5488C56.6393 47.5627 57.1863 47.5999 57.7145 47.7022C59.159 47.9764 60.2669 48.9292 60.5147 50.319C60.7297 51.5228 60.3557 52.5268 59.3927 53.2983C59.3273 53.3495 59.2712 53.4099 59.2011 53.4703C59.4535 53.6191 59.6966 53.7445 59.921 53.8933C61.3047 54.7857 61.7348 56.1104 61.473 57.6535C61.2299 59.1176 60.0425 60.3214 58.598 60.5957C58.0371 60.7026 57.4574 60.749 56.8871 60.763C55.7277 60.7862 54.5684 60.7723 53.4091 60.7723C53.3577 60.7723 53.3016 60.7676 53.2314 60.7583C53.2361 56.3521 53.2361 51.9504 53.2361 47.5442ZM55.7277 58.4158C56.1157 58.4158 56.4804 58.4297 56.845 58.4111C57.1442 58.3972 57.448 58.3507 57.7425 58.3042C58.0651 58.2531 58.3783 58.1648 58.6354 57.937C59.4348 57.2305 59.187 55.7618 58.1773 55.2784C57.4013 54.9112 56.5692 54.9344 55.7277 54.9484C55.7277 56.1104 55.7277 57.2445 55.7277 58.4158ZM55.7371 49.8449C55.7371 50.8489 55.7371 51.7877 55.7371 52.7359C56.2653 52.7452 56.7655 52.7685 57.2564 52.6011C57.8688 52.392 58.1913 51.8761 58.1633 51.1463C58.1399 50.5839 57.7613 50.1005 57.1676 49.9843C56.7094 49.896 56.2326 49.8914 55.7371 49.8449Z" fill="white"/>
<path d="M40.7123 60.7769C39.8755 60.7769 39.0715 60.7816 38.2721 60.7676C38.2067 60.7676 38.1132 60.6607 38.0851 60.5863C37.7766 59.8055 37.4727 59.02 37.1829 58.2298C37.1221 58.0671 37.038 58.0114 36.8604 58.0114C35.1775 58.016 33.4992 58.016 31.8163 58.0114C31.6527 58.0114 31.5686 58.0579 31.5078 58.2159C31.1993 59.0153 30.8814 59.8101 30.5588 60.6049C30.5308 60.6793 30.4279 60.7723 30.3578 60.7723C29.5771 60.7816 28.8011 60.7769 28.0205 60.7769C27.9971 60.7769 27.9784 60.763 27.9316 60.749C28.0392 60.4655 28.142 60.1866 28.2495 59.9077C29.2639 57.3049 30.2737 54.6974 31.2881 52.0945C31.8537 50.635 32.424 49.1756 32.985 47.7115C33.0411 47.5674 33.0972 47.507 33.2608 47.5116C33.9761 47.5209 34.6913 47.5209 35.4112 47.5116C35.5468 47.5116 35.6122 47.5488 35.6636 47.6836C37.3278 51.9876 38.9967 56.2916 40.6609 60.591C40.6749 60.6421 40.6889 60.6933 40.7123 60.7769ZM34.3828 51.0348C34.3594 51.0348 34.336 51.0348 34.308 51.0348C33.7143 52.5454 33.1206 54.0559 32.5129 55.5898C33.7376 55.5898 34.925 55.5898 36.1591 55.5898C35.5608 54.0559 34.9718 52.5454 34.3828 51.0348Z" fill="white"/>
<path d="M46.0929 58.4854C47.7057 58.4854 49.2811 58.4854 50.8658 58.4854C50.8658 59.257 50.8658 59.996 50.8658 60.7583C47.7945 60.7583 44.7279 60.7583 41.6379 60.7583C41.6379 60.3957 41.6332 60.0471 41.6426 59.7032C41.6472 59.6334 41.708 59.5498 41.7641 59.494C42.6523 58.5877 43.5592 57.6906 44.438 56.7749C45.3683 55.8082 46.2939 54.8414 47.1915 53.8421C47.7103 53.2611 48.0656 52.5732 48.2292 51.797C48.4489 50.7605 47.9301 49.8076 46.9858 49.5706C45.8966 49.2964 44.8681 49.8634 44.5783 50.9138C44.5035 51.1788 44.4661 51.453 44.41 51.7365C43.62 51.7365 42.8253 51.7365 42.0259 51.7365C42.0867 49.789 43.1057 47.902 45.2982 47.3489C46.5604 47.0328 47.8179 47.0979 48.9304 47.8415C50.2768 48.7432 50.8985 50.0307 50.7115 51.6575C50.5619 52.9311 49.9869 54.0326 49.1969 55.0134C48.5518 55.8175 47.8459 56.5658 47.1541 57.3327C46.8362 57.6859 46.5043 58.0206 46.177 58.3599C46.1537 58.3831 46.1396 58.4157 46.0929 58.4854Z" fill="white"/>
<path d="M12.9026 51.983C12.9026 51.6483 12.9026 51.3137 12.9026 50.9651C13.7207 50.9651 14.5107 50.9651 15.3194 50.9651C15.3194 54.2233 15.3194 57.4722 15.3194 60.7397C14.5247 60.7397 13.7347 60.7397 12.9073 60.7397C12.9073 60.4144 12.9073 60.0797 12.9073 59.6893C12.6829 59.8659 12.5146 60.0054 12.3416 60.1448C10.7756 61.3765 8.50367 61.251 6.98906 59.9542C5.76428 58.9038 5.16592 57.5698 5.14722 55.9616C5.12852 54.6184 5.4651 53.3959 6.32525 52.3409C7.62015 50.7466 9.84064 50.24 11.6404 51.1556C12.0097 51.3415 12.3323 51.6251 12.6735 51.8621C12.7343 51.904 12.7904 51.9597 12.8465 52.0109C12.8605 52.0016 12.8792 51.9923 12.9026 51.983ZM13.0054 55.7897C13.0849 54.2465 11.9069 52.7685 9.97153 52.9404C9.20955 53.0102 8.60184 53.3448 8.15774 53.9444C7.43783 54.9065 7.36771 55.9895 7.77909 57.0679C8.43355 58.783 10.2988 59.2199 11.6638 58.4297C12.6361 57.8626 13.0101 56.947 13.0054 55.7897Z" fill="white"/>
<path d="M24.2667 52.1735C24.3462 52.0805 24.3836 52.0526 24.4023 52.0155C24.851 51.1556 25.5756 50.7512 26.5293 50.7233C27.3099 50.7001 28.0579 50.8581 28.7825 51.137C28.8152 51.1509 28.8479 51.1742 28.904 51.2067C28.4599 51.797 28.0298 52.378 27.6325 52.9079C27.1557 52.8428 26.7303 52.7545 26.3002 52.7359C25.6504 52.708 25.1268 53.0566 24.9165 53.6701C24.7716 54.1024 24.6594 54.5672 24.636 55.0227C24.5846 56.101 24.5893 57.1886 24.5799 58.267C24.5706 59.0014 24.5799 59.7357 24.5799 60.4701C24.5799 60.5538 24.5799 60.6374 24.5799 60.7351C23.7759 60.7351 22.9952 60.7351 22.1958 60.7351C22.1958 57.4768 22.1958 54.2279 22.1958 50.9604C22.8783 50.9604 23.5515 50.9604 24.262 50.9604C24.2667 51.3508 24.2667 51.7319 24.2667 52.1735Z" fill="white"/>
<path d="M17.6333 60.7398C17.6333 57.4815 17.6333 54.2326 17.6333 50.9697C18.4327 50.9697 19.2227 50.9697 20.0314 50.9697C20.0314 54.2187 20.0314 57.4722 20.0314 60.7398C19.2414 60.7398 18.4514 60.7398 17.6333 60.7398Z" fill="white"/>
<path d="M67.0216 50.4119C64.9694 50.4072 63.4922 48.9385 63.4922 46.9027C63.4922 44.918 65.0582 43.3842 67.073 43.3842C69.1252 43.3888 70.6024 44.8436 70.6024 46.8655C70.5978 48.8688 69.0411 50.4119 67.0216 50.4119ZM67.0076 49.7008C68.6063 49.7054 69.7937 48.5295 69.7937 46.9352C69.7984 45.2805 68.6578 44.0953 67.0637 44.0953C65.4883 44.0953 64.3009 45.2898 64.3009 46.8655C64.3009 48.5109 65.4322 49.6961 67.0076 49.7008Z" fill="white"/>
<path d="M18.8346 46.912C19.6995 46.9074 20.4147 47.6324 20.4007 48.497C20.3913 49.3568 19.6948 50.0494 18.8487 50.0494C17.9932 50.0494 17.292 49.3243 17.292 48.4458C17.2967 47.6046 17.9885 46.912 18.8346 46.912Z" fill="white"/>
<path d="M67.7273 46.9911C68.3958 47.2978 68.4893 47.9253 68.6903 48.4877C68.7464 48.6504 68.6622 48.7201 68.5033 48.7201C68.4893 48.7201 68.4706 48.7201 68.4566 48.7201C67.5543 48.734 67.7507 48.748 67.5123 48.0601C67.4889 47.995 67.4749 47.9253 67.4515 47.8602C67.2879 47.3815 67.0775 47.2513 66.5119 47.3025C66.5119 47.6418 66.5119 47.9857 66.5119 48.3297C66.5119 48.7155 66.5072 48.7201 66.1239 48.7248C65.605 48.7294 65.605 48.7294 65.605 48.2228C65.605 47.2885 65.605 46.3496 65.605 45.4154C65.605 44.9971 65.7078 44.8902 66.1285 44.8902C66.582 44.8902 67.0354 44.8762 67.4795 44.9181C68.4566 45.011 68.709 45.6896 68.4846 46.3868C68.4051 46.6564 68.2041 46.8005 67.7273 46.9911ZM66.5306 46.6006C66.6568 46.6006 66.7643 46.6053 66.8718 46.6006C66.9793 46.596 67.0915 46.596 67.1991 46.582C67.4375 46.5402 67.573 46.3589 67.5777 46.0986C67.5824 45.8291 67.4655 45.6571 67.2037 45.6245C66.984 45.5967 66.7596 45.6199 66.5306 45.6199C66.5306 45.9453 66.5306 46.252 66.5306 46.6006Z" fill="white"/>
</g>
<defs>
<clipPath id="clip0_1170_169">
<rect width="72" height="61" fill="white"/>
</clipPath>
</defs>
</svg>
