<svg width="35" height="35" viewBox="0 0 35 35" fill="none" xmlns="http://www.w3.org/2000/svg">
<g clip-path="url(#clip0_108_2594)">
<path d="M0 16.1961C0 15.4845 0 14.773 0 14.0614C0.0533661 13.6879 0.0889435 13.3143 0.151204 12.9496C0.604816 10.0501 1.77887 7.4707 3.73563 5.27379C6.00369 2.71222 8.8232 1.11124 12.1853 0.479738C12.7367 0.373006 13.2971 0.301851 13.8485 0.221802C14.5601 0.221802 15.2716 0.221802 15.9831 0.221802C16.081 0.23959 16.1788 0.266274 16.2767 0.284062C16.926 0.3819 17.5752 0.444161 18.2067 0.577576C27.6436 2.67664 32.6245 13.2164 28.2574 21.8262C27.866 22.6 27.3768 23.3382 26.8965 24.1565C26.9499 24.201 27.0655 24.2543 27.1456 24.3433C29.1913 26.3801 31.2281 28.4169 33.2649 30.4626C33.4161 30.6138 33.5584 30.765 33.6829 30.934C34.3767 31.8679 34.1632 33.2021 33.2293 33.8869C32.3399 34.5451 31.2103 34.4295 30.3653 33.5845C28.284 31.5121 26.2028 29.4309 24.1304 27.3496C24.0414 27.2606 23.9881 27.1539 23.9436 27.0827C23.8369 27.1183 23.8102 27.1272 23.7924 27.1361C23.7212 27.1895 23.6501 27.2339 23.57 27.2873C21.302 28.8972 18.776 29.8133 16.0098 30.0179C13.3148 30.2136 10.7266 29.7422 8.31622 28.5058C3.9402 26.2734 1.24521 22.7245 0.266831 17.8949C0.151204 17.3345 0.0889435 16.7653 0 16.1961ZM4.37602 15.2088C4.39381 21.0968 9.1345 25.8109 15.0048 25.7931C20.8661 25.7753 25.589 21.0346 25.5802 15.1732C25.5713 9.31183 20.8484 4.58893 14.9781 4.58893C9.09892 4.59782 4.35823 9.33851 4.37602 15.2088Z" fill="white"/>
</g>
<defs>
<clipPath id="clip0_108_2594">
<rect width="34.092" height="34.092" fill="white" transform="translate(0 0.221802)"/>
</clipPath>
</defs>
</svg>
