<svg width="50" height="49" viewBox="0 0 50 49" fill="none" xmlns="http://www.w3.org/2000/svg">
<path d="M24.5263 49C10.9825 49 0 38.0526 0 24.5439C0 10.9474 10.9649 0 24.5439 0C38.0702 0 49.0351 10.9825 49.0351 24.5088C49.0175 38.0526 38.0526 49 24.5263 49ZM25.2105 10.2632C25.2105 10.7368 25.2105 11.0877 25.2105 11.4211C25.2105 17.2456 25.2105 23.0877 25.2105 28.9123C25.2105 29.3158 25.2105 29.7368 25.1228 30.1228C24.6316 32.4561 22.4737 34.0351 20.1754 33.7544C17.7719 33.4561 16.0877 31.4561 16.2105 29C16.3333 26.6491 18.1754 24.8772 20.614 24.7895C21.193 24.7719 21.7719 24.7895 22.3684 24.7895C22.3684 23.0526 22.3684 21.4386 22.3684 19.7719C21.7719 19.7719 21.2632 19.7719 20.7368 19.7719C14.6842 19.807 10.2807 25.1053 11.3684 31.0877C12.193 35.614 16.386 38.9474 20.9825 38.7544C25.8421 38.5439 29.8246 34.9649 30.1053 30.2632C30.3158 26.5789 30.193 22.8596 30.2281 19.1579C30.2281 18.8246 30.2281 18.4912 30.2281 17.9298C32.2105 19.7544 34.3509 20.6842 36.8772 20.9649C37.193 19.386 37.4912 17.8596 37.7895 16.3509C37.6842 16.2632 37.6491 16.193 37.5965 16.193C37.4035 16.1404 37.193 16.1053 37 16.0702C35.5614 15.807 34.2281 15.2456 33.2105 14.193C32.2105 13.1404 31.4035 11.9298 30.4737 10.807C30.2982 10.5789 30.0175 10.2982 29.7895 10.2807C28.3158 10.2281 26.8246 10.2632 25.2105 10.2632Z" fill="black"/>
<path d="M25.2105 10.2632C26.8245 10.2632 28.3158 10.2456 29.7894 10.2807C30.0351 10.2807 30.2982 10.579 30.4737 10.807C31.3859 11.9298 32.2105 13.1404 33.2105 14.193C34.2105 15.2456 35.5438 15.807 37 16.0702C37.1929 16.1053 37.4035 16.1404 37.5965 16.193C37.6491 16.2105 37.6842 16.2632 37.7894 16.3509C37.4912 17.8597 37.1929 19.386 36.8772 20.9649C34.3508 20.6842 32.2105 19.7544 30.228 17.9298C30.228 18.4912 30.228 18.8246 30.228 19.1579C30.193 22.8597 30.3158 26.579 30.1052 30.2632C29.8421 34.9474 25.8421 38.5439 20.9824 38.7544C16.3859 38.9474 12.193 35.6141 11.3859 31.0877C10.2982 25.1228 14.7017 19.807 20.7544 19.7719C21.2807 19.7719 21.7894 19.7719 22.3859 19.7719C22.3859 21.4386 22.3859 23.0527 22.3859 24.7895C21.7894 24.7895 21.2105 24.7719 20.6315 24.7895C18.1754 24.8772 16.3333 26.6491 16.228 29C16.1052 31.4386 17.7719 33.4386 20.193 33.7544C22.4737 34.0526 24.6491 32.4737 25.1403 30.1228C25.228 29.7369 25.228 29.3158 25.228 28.9123C25.228 23.0877 25.228 17.2456 25.228 11.4211C25.2105 11.0702 25.2105 10.7369 25.2105 10.2632Z" fill="white"/>
</svg>
