<svg width="91" height="91" viewBox="0 0 91 91" fill="none" xmlns="http://www.w3.org/2000/svg">
<circle cx="45.5" cy="45.5" r="45.5" fill="black"/>
<path d="M46.1644 28.839C49.0593 28.839 51.9542 28.8096 54.8491 28.839C58.8961 28.8977 62.4409 30.4244 65.8084 32.509C70.3576 35.2982 74.6409 38.5278 78.5992 42.1098C81.1987 44.5173 81.9372 47.6001 80.5784 50.8591C80.1057 51.9454 79.574 53.0024 78.9537 54.0006C77.9493 55.6154 76.4132 56.4669 74.5227 56.643C73.7251 56.7017 73.2525 56.966 72.8389 57.6706C70.5939 61.3994 65.7494 62.6325 61.9978 60.4011C60.8457 59.7258 59.9005 58.757 59.221 57.6119C58.8075 56.9073 58.3644 56.7311 57.5963 56.7605C49.8274 56.7898 42.0288 56.7898 34.2599 56.7898C33.4623 56.7898 32.9896 56.9953 32.5465 57.7294C29.4153 62.9261 22.1781 62.9848 18.8991 57.8762C18.4265 57.1715 17.9538 56.8485 17.0972 56.7898C16.2996 56.7311 15.5316 56.4669 14.8226 56.0852C10.7757 53.8538 9.18051 47.5707 11.7505 43.7539C12.4299 42.7557 13.3752 41.9336 14.2909 41.1115C18.4856 37.4121 23.0938 34.1238 27.9974 31.3052C30.7446 29.7198 33.8463 28.8977 37.0071 28.8683C40.0497 28.8096 43.1218 28.8683 46.1644 28.839ZM74.1091 55.0282C75.4975 54.9695 76.6791 54.441 77.4471 53.296C78.0675 52.3858 78.5697 51.4169 79.0128 50.3893C80.1353 47.6295 79.574 45.2807 77.3585 43.2842C72.9571 39.3499 68.1421 35.9148 63.0021 33.0081C60.8753 31.8044 58.6007 30.9235 56.1194 30.8942C49.7683 30.8355 43.4468 30.8648 37.0957 30.8648C34.3189 30.8355 31.5717 31.5107 29.1495 32.8613C23.7437 35.8267 18.7514 39.438 14.2318 43.6365C13.3161 44.5173 12.6662 45.633 12.3708 46.8367C11.7209 49.714 13.1684 52.0335 14.9999 54.03C15.5611 54.6465 16.595 54.8227 17.688 55.3512C17.4517 52.5326 17.9243 50.3012 19.549 48.4515C21.1146 46.6019 23.4187 45.5743 25.841 45.633C30.4788 45.6917 33.1373 48.8332 33.8168 54.9695H57.9804C58.4235 48.8626 61.2002 45.633 65.9857 45.6036C70.8302 45.5743 73.6365 48.7745 74.1091 55.0282ZM72.3072 53.6483C72.3072 50.0664 69.6191 47.3652 66.0743 47.3652C62.5295 47.3652 59.8118 50.037 59.8118 53.4721C59.7528 56.9073 62.5295 59.7552 65.9857 59.7846C66.0152 59.7846 66.0448 59.7846 66.0448 59.7846C69.5009 59.8433 72.3072 57.0834 72.3072 53.6483ZM19.4899 53.6189C19.4308 56.9953 22.1485 59.7552 25.5456 59.8139C25.6047 59.8139 25.6342 59.8139 25.6933 59.8139C29.1495 59.8139 31.9262 57.0541 31.9557 53.6483C31.9262 50.2132 29.1495 47.4533 25.6933 47.4239C22.2962 47.3946 19.5195 50.1251 19.4899 53.5015C19.4899 53.5602 19.4899 53.5896 19.4899 53.6189Z" fill="#0AD0D3"/>
<path d="M45.412 28.013C48.3069 28.013 51.2018 27.9837 54.0967 28.013C58.1437 28.0718 61.6884 29.5985 65.056 31.6831C69.6051 34.4723 73.8884 37.7019 77.8468 41.2838C80.4463 43.6914 81.1848 46.7742 79.8259 50.0332C79.3533 51.1195 78.8216 52.1764 78.2012 53.1747C77.1969 54.7895 75.6608 55.6409 73.7703 55.8171C72.9727 55.8758 72.5 56.1401 72.0865 56.8447C69.8415 60.5734 64.9969 61.8066 61.2453 59.5752C60.0933 58.8999 59.148 57.931 58.4686 56.786C58.055 56.0813 57.6119 55.9052 56.8439 55.9345C49.0749 55.9639 41.2764 55.9639 33.5074 55.9639C32.7098 55.9639 32.2372 56.1694 31.7941 56.9034C28.6629 62.1002 21.4256 62.1589 18.1467 57.0502C17.674 56.3456 17.2014 56.0226 16.3448 55.9639C15.5472 55.9052 14.7791 55.6409 14.0702 55.2593C10.0232 53.0279 8.42807 46.7448 10.998 42.928C11.6775 41.9298 12.6227 41.1077 13.5385 40.2856C17.7331 36.5862 22.3413 33.2979 27.245 30.4793C29.9922 28.8939 33.0939 28.0718 36.2546 28.0424C39.2972 27.9837 42.3694 28.0424 45.412 28.013ZM73.3567 54.2023C74.7451 54.1436 75.9267 53.6151 76.6947 52.47C77.315 51.5599 77.8172 50.591 78.2603 49.5634C79.3828 46.8035 78.8216 44.4547 76.6061 42.4582C72.2046 38.524 67.3896 35.0888 62.2497 32.1822C60.1228 30.9784 57.8483 30.0976 55.3669 30.0683C49.0158 30.0095 42.6943 30.0389 36.3432 30.0389C33.5665 30.0095 30.8193 30.6848 28.397 32.0354C22.9912 35.0008 17.999 38.6121 13.4794 42.8106C12.5636 43.6914 11.9138 44.807 11.6184 46.0108C10.9685 48.8881 12.416 51.2076 14.2474 53.204C14.8087 53.8206 15.8426 53.9968 16.9355 54.5253C16.6992 51.7067 17.1719 49.4753 18.7966 47.6256C20.3622 45.7759 22.6663 44.7483 25.0886 44.807C29.7263 44.8658 32.3849 48.0073 33.0643 54.1436H57.2279C57.671 48.0367 60.4478 44.807 65.2332 44.7777C70.0778 44.7483 72.8841 47.9486 73.3567 54.2023ZM71.5548 52.8224C71.5548 49.2404 68.8666 46.5393 65.3218 46.5393C61.7771 46.5393 59.0594 49.2111 59.0594 52.6462C59.0003 56.0813 61.7771 58.9293 65.2332 58.9586C65.2628 58.9586 65.2923 58.9586 65.2923 58.9586C68.7485 59.0174 71.5548 56.2575 71.5548 52.8224ZM18.7375 52.793C18.6784 56.1694 21.3961 58.9293 24.7932 58.988C24.8522 58.988 24.8818 58.988 24.9409 58.988C28.397 58.988 31.1738 56.2281 31.2033 52.8224C31.1738 49.3872 28.397 46.6274 24.9409 46.598C21.5438 46.5687 18.767 49.2991 18.7375 52.6756C18.7375 52.7343 18.7375 52.7636 18.7375 52.793Z" fill="white"/>
</svg>
