<svg width="72" height="38" viewBox="0 0 72 38" fill="none" xmlns="http://www.w3.org/2000/svg">
<path d="M72 23.4769C71.9158 24.0719 71.8457 24.7783 71.7008 25.4662C71.6073 25.9078 71.4296 26.3401 71.252 26.7584C71.0089 27.3347 70.7471 27.9111 70.4573 28.4642C70.2049 28.9522 69.901 29.4124 69.6159 29.8818C69.2512 30.4861 68.7651 30.9834 68.2321 31.4435C67.6945 31.913 67.0822 32.2569 66.423 32.5079C65.8995 32.7078 65.3665 32.8798 64.7915 32.8891C64.5111 32.8937 64.2306 32.9262 63.9548 32.9774C63.8613 32.996 63.7491 33.0889 63.707 33.1772C63.1367 34.2788 62.3326 35.1666 61.3556 35.9288C60.6497 36.4819 59.8737 36.9049 59.0276 37.1931C58.5414 37.3604 58.0459 37.4998 57.5457 37.616C57.2699 37.6811 56.9801 37.6718 56.6949 37.6997C56.5033 37.7183 56.3163 37.7601 56.1246 37.7648C55.9937 37.7694 55.8582 37.7136 55.7226 37.6997C55.3486 37.6718 54.9653 37.6718 54.5913 37.6207C54.2547 37.5742 53.9182 37.5045 53.6003 37.3976C53.0767 37.2163 52.5625 37.0165 52.0623 36.7794C51.4265 36.4773 50.8375 36.0822 50.3233 35.6035C49.9446 35.2502 49.5707 34.8923 49.2481 34.4926C48.9162 34.0789 48.6311 33.6188 48.3552 33.1633C48.2711 33.0285 48.2056 32.9634 48.042 32.9634C39.9828 32.9681 31.9283 32.9681 23.8691 32.9634C23.7288 32.9634 23.64 33.0006 23.5792 33.1261C23.1679 33.9581 22.5929 34.6739 21.9291 35.3153C21.111 36.1055 20.1714 36.7143 19.0962 37.1001C18.7129 37.2396 18.3155 37.3465 17.9275 37.472C17.3946 37.6486 16.843 37.709 16.282 37.6997C16.1745 37.6997 16.0623 37.7741 15.9501 37.7648C15.5387 37.7369 15.1273 37.6904 14.716 37.6439C14.543 37.6253 14.37 37.5789 14.1971 37.5556C13.6221 37.4766 13.0845 37.2721 12.5516 37.0629C11.7615 36.7515 11.037 36.3286 10.4012 35.7801C9.93841 35.3804 9.51301 34.9342 9.12501 34.4601C8.76505 34.0232 8.48925 33.5212 8.16669 33.0517C8.12929 33.0006 8.0358 32.9681 7.96568 32.9588C7.47951 32.903 6.98399 32.9123 6.51184 32.8007C5.70779 32.6148 4.93646 32.3127 4.2446 31.8386C3.58547 31.3878 3.00113 30.8532 2.55235 30.2072C2.10358 29.5565 1.73428 28.85 1.36498 28.1481C1.06112 27.5671 0.79466 26.9675 0.551575 26.3587C0.397309 25.9729 0.331863 25.5592 0.214995 25.1595C-0.00939164 24.3879 -0.0421146 23.6024 0.013982 22.8123C0.0513797 22.2638 0.135525 21.7153 0.238368 21.1808C0.331863 20.7021 0.462755 20.2326 0.612346 19.7678C0.897504 18.8801 1.3229 18.0574 1.8418 17.2812C2.33264 16.5468 2.9497 15.9286 3.55742 15.2965C4.01087 14.827 4.45496 14.3436 4.91309 13.8788C5.43665 13.349 5.97425 12.8331 6.51184 12.3125C7.05878 11.7873 7.60105 11.2574 8.16202 10.7461C8.59676 10.3464 9.05489 9.97455 9.49898 9.58877C9.99918 9.15186 10.49 8.70101 10.9996 8.27339C11.4951 7.85972 12.0046 7.46464 12.5142 7.06492C13.0003 6.67914 13.4772 6.28871 13.9727 5.91687C14.4776 5.53574 15.0011 5.17784 15.5107 4.806C15.908 4.52248 16.2913 4.22036 16.698 3.94613C17.6517 3.30006 18.5679 2.60287 19.6197 2.11948C20.3817 1.76623 21.1437 1.41298 21.915 1.08763C22.2282 0.957483 22.5742 0.897059 22.9014 0.8041C23.1912 0.720436 23.4764 0.627477 23.7662 0.557757C23.9766 0.50663 24.1963 0.488038 24.4113 0.446206C24.7012 0.395078 24.991 0.334655 25.2808 0.278879C25.3182 0.269583 25.3556 0.264935 25.3977 0.264935C26.1924 0.237047 26.9871 0.204511 27.7818 0.181271C28.7448 0.153384 29.7078 0.195215 30.6614 0.0976079C32.363 -0.0743671 34.06 0.0511282 35.7569 0.0185924C37.4538 -0.00929543 39.1554 -0.0557752 40.8476 0.0371843C41.806 0.09296 42.7643 0.0604242 43.7179 0.106904C44.3584 0.134792 44.9988 0.148736 45.6439 0.176623C45.9711 0.190567 46.303 0.209159 46.6303 0.264935C47.051 0.334655 47.4717 0.441558 47.8878 0.529869C48.3085 0.618181 48.7292 0.692548 49.1453 0.8041C49.5239 0.906355 49.8932 1.0272 50.2579 1.17129C50.7861 1.38045 51.319 1.58496 51.8192 1.84525C52.5625 2.23568 53.2964 2.65399 54.007 3.1002C54.7082 3.54176 55.3907 4.0205 56.0639 4.50853C56.8258 5.06164 57.5738 5.63334 58.3217 6.20504C59.0463 6.75815 59.7709 7.31591 60.4861 7.88296C60.9676 8.2641 61.4258 8.67312 61.8885 9.07284C62.4495 9.55623 63.0152 10.0303 63.5621 10.5277C64.2306 11.1412 64.885 11.7687 65.5302 12.4008C66.2781 13.1305 67.0354 13.8556 67.76 14.6086C68.4893 15.3662 69.2185 16.1331 69.8823 16.9465C70.2563 17.4067 70.5368 17.9505 70.8032 18.485C71.065 19.0102 71.2707 19.568 71.4624 20.1257C71.5839 20.4743 71.64 20.8462 71.7101 21.2087C71.7709 21.5434 71.8083 21.8873 71.855 22.2266C71.9018 22.6217 71.9439 22.9935 72 23.4769ZM64.7074 30.5372C65.0206 30.4489 65.3058 30.3931 65.5676 30.2908C66.381 29.9748 67.0401 29.4496 67.5216 28.7291C68.0639 27.9204 68.5079 27.0558 68.8913 26.1588C69.1577 25.536 69.3915 24.9131 69.485 24.2392C69.5972 23.4072 69.5411 22.5799 69.3681 21.7711C69.2512 21.2226 69.0596 20.6835 68.8399 20.1676C68.6669 19.7632 68.4285 19.3728 68.162 19.0149C67.774 18.5036 67.3439 18.0202 66.9139 17.5414C66.5446 17.1324 66.1472 16.7466 65.7639 16.3516C65.4039 15.9844 65.0533 15.6079 64.684 15.25C64.109 14.6969 63.52 14.1624 62.9357 13.6186C62.3513 13.0747 61.7764 12.5263 61.1827 11.9964C60.5703 11.4526 59.9485 10.9181 59.3128 10.4068C58.5508 9.78863 57.7701 9.18904 56.9894 8.5941C56.1573 7.96663 55.3252 7.33915 54.4744 6.73956C53.6751 6.17716 52.843 5.65194 52.0296 5.10812C51.3471 4.65262 50.6038 4.32262 49.8465 4.01585C49.3136 3.79739 48.7526 3.63472 48.1916 3.48133C47.7803 3.36513 47.3548 3.27682 46.9341 3.2164C46.3825 3.13738 45.8309 3.08161 45.2746 3.03977C44.5266 2.984 43.7834 3.02583 43.0307 2.96541C41.6797 2.8585 40.3147 2.87245 38.9591 2.8771C36.603 2.88174 34.2516 2.90498 31.8956 2.94682C30.7736 2.96541 29.6564 2.88174 28.5298 3.02118C27.5995 3.13738 26.6505 3.1002 25.7109 3.12809C25.6642 3.12809 25.6174 3.12344 25.5707 3.13273C25.2855 3.18851 25.0003 3.24893 24.7105 3.30006C24.4955 3.33724 24.2711 3.34654 24.0607 3.40232C23.6026 3.52781 23.1351 3.65331 22.6957 3.82993C21.9104 4.14134 21.1063 4.42952 20.3724 4.84319C19.386 5.40094 18.4464 6.04701 17.5208 6.70238C16.4783 7.43676 15.4639 8.21297 14.4495 8.98918C13.7296 9.53764 13.019 10.1 12.3225 10.6764C11.7148 11.183 11.1305 11.7175 10.5414 12.2428C9.78882 12.9167 9.02684 13.5907 8.29291 14.2832C7.5356 15.0037 6.797 15.7427 6.06307 16.4864C5.46003 17.0999 4.86634 17.7227 4.282 18.3548C3.57144 19.1311 3.11332 20.056 2.78141 21.0507C2.71597 21.2505 2.65052 21.4597 2.6178 21.6688C2.55235 22.1011 2.50561 22.5334 2.46353 22.9656C2.37004 23.9185 2.49158 24.8434 2.88426 25.7172C3.19746 26.4191 3.5247 27.1163 3.88465 27.7949C4.12306 28.2457 4.40354 28.6826 4.72142 29.0824C5.20759 29.6913 5.86205 30.091 6.59131 30.3559C6.797 30.4303 7.02138 30.4628 7.27849 30.5232C7.25044 30.263 7.20837 30.0445 7.2037 29.826C7.19435 29.3938 7.2037 28.9569 7.19902 28.5246C7.19435 27.8971 7.32992 27.2836 7.49821 26.6887C7.73194 25.8799 8.0732 25.1037 8.54534 24.4019C8.82583 23.9835 9.13903 23.5838 9.46626 23.2027C10.0459 22.538 10.7284 21.9849 11.5044 21.5666C12.1168 21.2366 12.7619 20.9763 13.4024 20.7021C13.5847 20.6231 13.795 20.5952 13.9961 20.558C14.3794 20.4836 14.7627 20.3628 15.146 20.3535C15.8613 20.3395 16.5812 20.386 17.2964 20.4325C17.5722 20.4511 17.848 20.5115 18.1098 20.5952C18.4978 20.7207 18.8671 20.8926 19.2504 21.0367C19.9937 21.311 20.6669 21.7153 21.2839 22.1941C21.901 22.6728 22.4713 23.212 22.8967 23.8766C23.1538 24.2764 23.4577 24.6575 23.6634 25.0851C23.9065 25.5731 24.0748 26.0984 24.2617 26.6143C24.5142 27.2975 24.6357 28.0087 24.6217 28.7384C24.6123 29.2543 24.5843 29.7703 24.5656 30.2862C24.5516 30.6023 24.5516 30.6023 24.8788 30.6023C32.2929 30.6023 39.7023 30.6023 47.1164 30.6023C47.1725 30.6023 47.224 30.5976 47.2801 30.6023C47.4577 30.6208 47.467 30.5186 47.4483 30.3838C47.3922 29.9748 47.2894 29.5658 47.3034 29.1567C47.3268 28.4224 47.3735 27.688 47.5979 26.9768C47.7382 26.5353 47.8504 26.0798 48.028 25.6522C48.5329 24.4437 49.2949 23.4211 50.2812 22.5473C51.2629 21.6781 52.3895 21.0925 53.619 20.6835C54.3529 20.4371 55.1196 20.3163 55.9002 20.3442C56.4238 20.3628 56.952 20.3488 57.4616 20.4418C58.0459 20.5487 58.6209 20.7253 59.1772 20.9298C59.9672 21.2226 60.6965 21.6317 61.365 22.1476C62.37 22.9284 63.1881 23.8673 63.7678 24.9968C63.9922 25.4384 64.2025 25.8892 64.3615 26.3587C64.5064 26.7863 64.5718 27.2371 64.6607 27.6833C64.7074 27.9297 64.7448 28.1807 64.7495 28.4317C64.7635 28.8686 64.7588 29.3055 64.7495 29.7424C64.7448 29.998 64.7214 30.249 64.7074 30.5372ZM16.081 35.3478C17.6844 35.3246 19.213 34.7064 20.4518 33.4189C21.7 32.1268 22.2937 30.5651 22.2189 28.7942C22.0833 25.5964 19.5076 22.868 16.0389 22.7937C12.3646 22.7146 9.62988 25.6568 9.60183 28.9708C9.5878 30.8858 10.2937 32.5079 11.7382 33.7768C12.9162 34.8087 14.3139 35.3385 16.081 35.3478ZM56.0639 35.3385C59.5652 35.3757 62.2952 32.4754 62.356 29.2218C62.4261 25.4988 59.4343 22.9517 56.4659 22.7937C54.5212 22.6868 52.843 23.3235 51.492 24.7226C50.2719 25.9868 49.7062 27.5206 49.7577 29.2729C49.8091 30.9694 50.4635 32.415 51.6836 33.5863C52.8991 34.7529 54.3763 35.3246 56.0639 35.3385Z" fill="white"/>
</svg>
