<svg width="43" height="43" viewBox="0 0 43 43" fill="none" xmlns="http://www.w3.org/2000/svg">
<path d="M37.2239 23.4546C37.1879 23.7073 37.1579 24.0073 37.0959 24.2994C37.056 24.4869 36.98 24.6705 36.904 24.8481C36.8 25.0929 36.688 25.3376 36.564 25.5725C36.456 25.7797 36.326 25.9751 36.204 26.1745C36.048 26.4311 35.84 26.6423 35.6121 26.8377C35.3821 27.037 35.1201 27.1831 34.8381 27.2897C34.6141 27.3745 34.3861 27.4476 34.1402 27.4515C34.0202 27.4535 33.9002 27.4673 33.7822 27.489C33.7422 27.4969 33.6942 27.5364 33.6762 27.5739C33.4322 28.0417 33.0882 28.4186 32.6703 28.7423C32.3683 28.9772 32.0363 29.1568 31.6744 29.2792C31.4664 29.3503 31.2544 29.4095 31.0404 29.4588C30.9224 29.4864 30.7984 29.4825 30.6764 29.4943C30.5944 29.5022 30.5144 29.52 30.4324 29.522C30.3764 29.5239 30.3185 29.5003 30.2605 29.4943C30.1005 29.4825 29.9365 29.4825 29.7765 29.4608C29.6325 29.4411 29.4885 29.4114 29.3525 29.366C29.1285 29.2891 28.9086 29.2042 28.6946 29.1035C28.4226 28.9752 28.1706 28.8075 27.9506 28.6042C27.7886 28.4542 27.6287 28.3022 27.4907 28.1324C27.3487 27.9568 27.2267 27.7614 27.1087 27.568C27.0727 27.5107 27.0447 27.4831 26.9747 27.4831C23.527 27.4851 20.0812 27.4851 16.6335 27.4831C16.5735 27.4831 16.5355 27.4989 16.5095 27.5522C16.3335 27.9055 16.0875 28.2094 15.8035 28.4818C15.4536 28.8173 15.0516 29.0759 14.5916 29.2397C14.4276 29.2989 14.2576 29.3443 14.0917 29.3976C13.8637 29.4726 13.6277 29.4983 13.3877 29.4943C13.3417 29.4943 13.2937 29.5259 13.2457 29.522C13.0697 29.5101 12.8938 29.4904 12.7178 29.4707C12.6438 29.4628 12.5698 29.443 12.4958 29.4332C12.2498 29.3996 12.0198 29.3128 11.7918 29.2239C11.4539 29.0917 11.1439 28.9121 10.8719 28.6792C10.6739 28.5094 10.4919 28.32 10.3259 28.1186C10.172 27.9331 10.054 27.7199 9.91597 27.5206C9.89997 27.4989 9.85998 27.4851 9.82998 27.4811C9.62199 27.4574 9.41001 27.4614 9.20803 27.414C8.86405 27.3351 8.53408 27.2068 8.2381 27.0054C7.95612 26.814 7.70614 26.587 7.51415 26.3126C7.32217 26.0363 7.16418 25.7363 7.00619 25.4383C6.8762 25.1915 6.76221 24.9369 6.65822 24.6784C6.59222 24.5145 6.56422 24.3389 6.51423 24.1691C6.41823 23.8415 6.40423 23.5079 6.42823 23.1724C6.44423 22.9395 6.48023 22.7066 6.52423 22.4796C6.56422 22.2763 6.62022 22.077 6.68421 21.8796C6.8062 21.5026 6.98819 21.1532 7.21017 20.8236C7.42016 20.5118 7.68414 20.2493 7.94412 19.9808C8.13811 19.7815 8.32809 19.5762 8.52408 19.3788C8.74806 19.1538 8.97804 18.9347 9.20803 18.7137C9.44201 18.4906 9.67399 18.2656 9.91397 18.0485C10.1 17.8788 10.2959 17.7209 10.4859 17.557C10.6999 17.3715 10.9099 17.1801 11.1279 16.9985C11.3399 16.8228 11.5579 16.655 11.7758 16.4853C11.9838 16.3215 12.1878 16.1557 12.3998 15.9978C12.6158 15.8359 12.8398 15.684 13.0577 15.5261C13.2277 15.4057 13.3917 15.2774 13.5657 15.1609C13.9737 14.8866 14.3656 14.5905 14.8156 14.3852C15.1416 14.2352 15.4676 14.0852 15.7975 13.947C15.9315 13.8918 16.0795 13.8661 16.2195 13.8266C16.3435 13.7911 16.4655 13.7516 16.5895 13.722C16.6795 13.7003 16.7735 13.6924 16.8655 13.6747C16.9894 13.653 17.1134 13.6273 17.2374 13.6036C17.2534 13.5997 17.2694 13.5977 17.2874 13.5977C17.6274 13.5858 17.9674 13.572 18.3073 13.5622C18.7193 13.5503 19.1313 13.5681 19.5393 13.5266C20.2672 13.4536 20.9931 13.5069 21.7191 13.4931C22.445 13.4812 23.173 13.4615 23.8969 13.501C24.3069 13.5247 24.7169 13.5108 25.1248 13.5306C25.3988 13.5424 25.6728 13.5483 25.9488 13.5602C26.0888 13.5661 26.2308 13.574 26.3707 13.5977C26.5507 13.6273 26.7307 13.6727 26.9087 13.7102C27.0887 13.7477 27.2687 13.7793 27.4467 13.8266C27.6087 13.8701 27.7666 13.9214 27.9226 13.9826C28.1486 14.0714 28.3766 14.1582 28.5906 14.2688C28.9086 14.4346 29.2225 14.6122 29.5265 14.8017C29.8265 14.9892 30.1185 15.1925 30.4064 15.3997C30.7324 15.6346 31.0524 15.8774 31.3724 16.1202C31.6824 16.355 31.9923 16.5919 32.2983 16.8327C32.5043 16.9945 32.7003 17.1682 32.8983 17.338C33.1382 17.5432 33.3802 17.7446 33.6142 17.9557C33.9002 18.2163 34.1802 18.4827 34.4561 18.7512C34.7761 19.0611 35.1001 19.369 35.4101 19.6887C35.722 20.0104 36.034 20.3361 36.318 20.6815C36.478 20.8769 36.598 21.1078 36.712 21.3348C36.824 21.5579 36.912 21.7947 36.994 22.0316C37.0459 22.1796 37.07 22.3375 37.0999 22.4914C37.1259 22.6336 37.1419 22.7796 37.1619 22.9237C37.1819 23.0915 37.1999 23.2494 37.2239 23.4546ZM34.1042 26.4528C34.2382 26.4153 34.3602 26.3916 34.4721 26.3482C34.8201 26.214 35.1021 25.9909 35.3081 25.685C35.5401 25.3416 35.73 24.9744 35.894 24.5935C36.008 24.329 36.108 24.0645 36.148 23.7783C36.196 23.425 36.172 23.0737 36.098 22.7303C36.048 22.4974 35.966 22.2684 35.872 22.0493C35.798 21.8776 35.6961 21.7118 35.5821 21.5598C35.4161 21.3427 35.2321 21.1374 35.0481 20.9342C34.8901 20.7605 34.7201 20.5966 34.5561 20.4289C34.4021 20.2729 34.2522 20.1131 34.0942 19.9611C33.8482 19.7262 33.5962 19.4992 33.3462 19.2683C33.0962 19.0374 32.8503 18.8045 32.5963 18.5795C32.3343 18.3485 32.0683 18.1215 31.7963 17.9044C31.4704 17.6419 31.1364 17.3873 30.8024 17.1347C30.4464 16.8682 30.0905 16.6018 29.7265 16.3471C29.3845 16.1083 29.0285 15.8853 28.6806 15.6543C28.3886 15.4609 28.0706 15.3208 27.7466 15.1905C27.5187 15.0977 27.2787 15.0287 27.0387 14.9635C26.8627 14.9142 26.6807 14.8767 26.5007 14.851C26.2648 14.8175 26.0288 14.7938 25.7908 14.776C25.4708 14.7523 25.1528 14.7701 24.8309 14.7444C24.2529 14.699 23.6689 14.705 23.089 14.7069C22.0811 14.7089 21.0751 14.7188 20.0672 14.7365C19.5873 14.7444 19.1093 14.7089 18.6273 14.7681C18.2294 14.8175 17.8234 14.8017 17.4214 14.8135C17.4014 14.8135 17.3814 14.8116 17.3614 14.8155C17.2394 14.8392 17.1174 14.8648 16.9934 14.8866C16.9015 14.9023 16.8055 14.9063 16.7155 14.93C16.5195 14.9833 16.3195 15.0366 16.1315 15.1116C15.7955 15.2438 15.4516 15.3662 15.1376 15.5418C14.7156 15.7787 14.3136 16.053 13.9177 16.3313C13.4717 16.6432 13.0377 16.9728 12.6038 17.3024C12.2958 17.5353 11.9918 17.7742 11.6938 18.0189C11.4339 18.234 11.1839 18.461 10.9319 18.6841C10.6099 18.9703 10.2839 19.2565 9.96997 19.5505C9.64599 19.8565 9.33002 20.1703 9.01604 20.4861C8.75806 20.7466 8.50408 21.0111 8.2541 21.2796C7.95012 21.6092 7.75413 22.002 7.61214 22.4243C7.58415 22.5092 7.55615 22.598 7.54215 22.6868C7.51415 22.8704 7.49415 23.054 7.47615 23.2375C7.43616 23.6421 7.48815 24.0349 7.65614 24.406C7.79013 24.704 7.93012 25.0001 8.08411 25.2883C8.1861 25.4797 8.30609 25.6653 8.44208 25.835C8.65007 26.0936 8.93005 26.2633 9.24202 26.3758C9.33002 26.4074 9.42601 26.4212 9.536 26.4469C9.524 26.3363 9.506 26.2436 9.504 26.1508C9.5 25.9672 9.504 25.7817 9.502 25.5981C9.5 25.3317 9.558 25.0711 9.62999 24.8185C9.72999 24.4751 9.87598 24.1455 10.078 23.8474C10.198 23.6698 10.3319 23.5 10.4719 23.3382C10.7199 23.0559 11.0119 22.8211 11.3439 22.6434C11.6058 22.5033 11.8818 22.3928 12.1558 22.2763C12.2338 22.2428 12.3238 22.2309 12.4098 22.2151C12.5738 22.1835 12.7378 22.1322 12.9018 22.1283C13.2077 22.1224 13.5157 22.1421 13.8217 22.1618C13.9397 22.1697 14.0577 22.1954 14.1697 22.2309C14.3356 22.2842 14.4936 22.3572 14.6576 22.4184C14.9756 22.5349 15.2636 22.7066 15.5276 22.9099C15.7915 23.1132 16.0355 23.3421 16.2175 23.6244C16.3275 23.7941 16.4575 23.956 16.5455 24.1376C16.6495 24.3448 16.7215 24.5678 16.8015 24.7869C16.9095 25.0771 16.9614 25.3791 16.9554 25.6889C16.9514 25.908 16.9394 26.1271 16.9314 26.3462C16.9254 26.4804 16.9254 26.4804 17.0654 26.4804C20.2372 26.4804 23.407 26.4804 26.5787 26.4804C26.6027 26.4804 26.6247 26.4784 26.6487 26.4804C26.7247 26.4883 26.7287 26.4449 26.7207 26.3876C26.6967 26.214 26.6527 26.0403 26.6587 25.8666C26.6687 25.5547 26.6887 25.2429 26.7847 24.9409C26.8447 24.7534 26.8927 24.5599 26.9687 24.3784C27.1847 23.8652 27.5107 23.431 27.9326 23.0599C28.3526 22.6908 28.8346 22.4421 29.3605 22.2684C29.6745 22.1638 30.0025 22.1125 30.3365 22.1243C30.5604 22.1322 30.7864 22.1263 31.0044 22.1658C31.2544 22.2112 31.5004 22.2862 31.7383 22.373C32.0763 22.4974 32.3883 22.6711 32.6743 22.8901C33.1042 23.2217 33.4542 23.6204 33.7022 24.1001C33.7982 24.2876 33.8882 24.479 33.9562 24.6784C34.0182 24.86 34.0462 25.0514 34.0842 25.2409C34.1042 25.3455 34.1202 25.4521 34.1222 25.5587C34.1282 25.7442 34.1262 25.9297 34.1222 26.1153C34.1202 26.2238 34.1102 26.3304 34.1042 26.4528ZM13.3017 28.4956C13.9877 28.4858 14.6416 28.2232 15.1716 27.6765C15.7055 27.1278 15.9595 26.4646 15.9275 25.7126C15.8695 24.3547 14.7676 23.1961 13.2837 23.1645C11.7118 23.1309 10.5419 24.3803 10.5299 25.7876C10.5239 26.6008 10.8259 27.2897 11.4439 27.8285C11.9478 28.2667 12.5458 28.4917 13.3017 28.4956ZM30.4064 28.4917C31.9043 28.5075 33.0722 27.2758 33.0982 25.8942C33.1282 24.3132 31.8483 23.2316 30.5784 23.1645C29.7465 23.1191 29.0285 23.3895 28.4506 23.9836C27.9286 24.5205 27.6866 25.1718 27.7086 25.9159C27.7306 26.6363 28.0106 27.2502 28.5326 27.7476C29.0525 28.243 29.6845 28.4858 30.4064 28.4917Z" fill="#07DBDE"/>
<path d="M36.5818 22.813C36.5458 23.0657 36.5159 23.3657 36.4539 23.6578C36.4139 23.8453 36.3379 24.0289 36.2619 24.2065C36.1579 24.4513 36.0459 24.696 35.9219 24.9309C35.8139 25.1381 35.6839 25.3335 35.5619 25.5329C35.4059 25.7895 35.198 26.0007 34.97 26.1961C34.74 26.3954 34.478 26.5415 34.196 26.6481C33.972 26.7329 33.7441 26.806 33.4981 26.8099C33.3781 26.8119 33.2581 26.8257 33.1401 26.8474C33.1001 26.8553 33.0521 26.8948 33.0341 26.9323C32.7901 27.4001 32.4462 27.777 32.0282 28.1007C31.7262 28.3356 31.3942 28.5152 31.0323 28.6376C30.8243 28.7087 30.6123 28.7679 30.3983 28.8172C30.2803 28.8448 30.1563 28.8409 30.0343 28.8527C29.9523 28.8606 29.8723 28.8784 29.7904 28.8804C29.7344 28.8823 29.6764 28.8587 29.6184 28.8527C29.4584 28.8409 29.2944 28.8409 29.1344 28.8192C28.9904 28.7995 28.8464 28.7698 28.7104 28.7244C28.4865 28.6475 28.2665 28.5626 28.0525 28.4619C27.7805 28.3336 27.5285 28.1659 27.3085 27.9626C27.1466 27.8126 26.9866 27.6606 26.8486 27.4908C26.7066 27.3152 26.5846 27.1198 26.4666 26.9264C26.4306 26.8691 26.4026 26.8415 26.3326 26.8415C22.8849 26.8435 19.4391 26.8435 15.9914 26.8415C15.9314 26.8415 15.8934 26.8573 15.8674 26.9106C15.6914 27.2639 15.4454 27.5678 15.1614 27.8402C14.8115 28.1757 14.4095 28.4343 13.9495 28.5981C13.7855 28.6573 13.6156 28.7027 13.4496 28.756C13.2216 28.831 12.9856 28.8567 12.7456 28.8527C12.6996 28.8527 12.6516 28.8843 12.6036 28.8804C12.4276 28.8685 12.2517 28.8488 12.0757 28.8291C12.0017 28.8212 11.9277 28.8014 11.8537 28.7916C11.6077 28.758 11.3777 28.6712 11.1497 28.5823C10.8118 28.4501 10.5018 28.2705 10.2298 28.0376C10.0318 27.8678 9.84984 27.6784 9.68385 27.477C9.52986 27.2915 9.41187 27.0783 9.27388 26.879C9.25788 26.8573 9.21789 26.8435 9.18789 26.8395C8.9799 26.8158 8.76792 26.8198 8.56594 26.7724C8.22196 26.6934 7.89199 26.5652 7.59601 26.3638C7.31403 26.1724 7.06405 25.9454 6.87206 25.671C6.68008 25.3947 6.52209 25.0947 6.3641 24.7967C6.23411 24.5499 6.12012 24.2953 6.01613 24.0368C5.95013 23.8729 5.92213 23.6973 5.87214 23.5275C5.77614 23.1999 5.76214 22.8663 5.78614 22.5308C5.80214 22.2979 5.83814 22.065 5.88214 21.838C5.92213 21.6347 5.97813 21.4354 6.04212 21.238C6.16411 20.861 6.3461 20.5116 6.56808 20.182C6.77807 19.8702 7.04205 19.6077 7.30203 19.3392C7.49602 19.1399 7.686 18.9346 7.88199 18.7372C8.10597 18.5122 8.33595 18.2931 8.56594 18.0721C8.79992 17.849 9.0319 17.624 9.27188 17.4069C9.45787 17.2372 9.65385 17.0793 9.84384 16.9154C10.0578 16.7299 10.2678 16.5385 10.4858 16.3569C10.6978 16.1812 10.9158 16.0134 11.1337 15.8437C11.3417 15.6799 11.5457 15.5141 11.7577 15.3562C11.9737 15.1943 12.1977 15.0424 12.4156 14.8845C12.5856 14.7641 12.7496 14.6358 12.9236 14.5193C13.3316 14.245 13.7236 13.9489 14.1735 13.7436C14.4995 13.5936 14.8255 13.4436 15.1554 13.3054C15.2894 13.2502 15.4374 13.2245 15.5774 13.185C15.7014 13.1495 15.8234 13.11 15.9474 13.0804C16.0374 13.0587 16.1314 13.0508 16.2234 13.0331C16.3474 13.0114 16.4713 12.9857 16.5953 12.962C16.6113 12.9581 16.6273 12.9561 16.6453 12.9561C16.9853 12.9442 17.3253 12.9304 17.6653 12.9206C18.0772 12.9087 18.4892 12.9265 18.8972 12.885C19.6251 12.812 20.3511 12.8653 21.077 12.8515C21.8029 12.8396 22.5309 12.8199 23.2548 12.8594C23.6648 12.8831 24.0748 12.8692 24.4827 12.889C24.7567 12.9008 25.0307 12.9067 25.3067 12.9186C25.4467 12.9245 25.5887 12.9324 25.7287 12.9561C25.9086 12.9857 26.0886 13.0311 26.2666 13.0686C26.4466 13.1061 26.6266 13.1377 26.8046 13.185C26.9666 13.2285 27.1246 13.2798 27.2805 13.341C27.5065 13.4298 27.7345 13.5166 27.9485 13.6272C28.2665 13.793 28.5804 13.9706 28.8844 14.1601C29.1844 14.3476 29.4764 14.5509 29.7644 14.7581C30.0903 14.993 30.4103 15.2358 30.7303 15.4786C31.0403 15.7134 31.3502 15.9503 31.6562 16.1911C31.8622 16.3529 32.0582 16.5266 32.2562 16.6964C32.4962 16.9016 32.7381 17.103 32.9721 17.3141C33.2581 17.5747 33.5381 17.8411 33.8141 18.1096C34.134 18.4195 34.458 18.7274 34.768 19.0471C35.08 19.3688 35.3919 19.6945 35.6759 20.0399C35.8359 20.2353 35.9559 20.4662 36.0699 20.6932C36.1819 20.9163 36.2699 21.1531 36.3519 21.39C36.4039 21.538 36.4279 21.6959 36.4579 21.8498C36.4839 21.992 36.4999 22.138 36.5199 22.2821C36.5399 22.4499 36.5578 22.6078 36.5818 22.813ZM33.4621 25.8112C33.5961 25.7737 33.7181 25.75 33.8301 25.7066C34.178 25.5724 34.46 25.3493 34.666 25.0434C34.898 24.7 35.088 24.3328 35.2519 23.9519C35.3659 23.6874 35.4659 23.4229 35.5059 23.1367C35.5539 22.7834 35.5299 22.4321 35.4559 22.0887C35.4059 21.8558 35.3239 21.6268 35.2299 21.4077C35.156 21.236 35.054 21.0702 34.94 20.9182C34.774 20.7011 34.59 20.4958 34.406 20.2925C34.248 20.1189 34.078 19.955 33.914 19.7873C33.7601 19.6313 33.6101 19.4715 33.4521 19.3195C33.2061 19.0846 32.9541 18.8576 32.7041 18.6267C32.4542 18.3958 32.2082 18.1629 31.9542 17.9379C31.6922 17.7069 31.4262 17.4799 31.1543 17.2628C30.8283 17.0003 30.4943 16.7457 30.1603 16.4931C29.8044 16.2266 29.4484 15.9601 29.0844 15.7055C28.7424 15.4667 28.3865 15.2437 28.0385 15.0127C27.7465 14.8193 27.4285 14.6792 27.1046 14.5489C26.8766 14.4561 26.6366 14.3871 26.3966 14.3219C26.2206 14.2726 26.0386 14.2351 25.8586 14.2094C25.6227 14.1759 25.3867 14.1522 25.1487 14.1344C24.8287 14.1107 24.5107 14.1285 24.1888 14.1028C23.6108 14.0574 23.0269 14.0634 22.4469 14.0653C21.439 14.0673 20.4331 14.0772 19.4251 14.0949C18.9452 14.1028 18.4672 14.0673 17.9852 14.1265C17.5873 14.1759 17.1813 14.1601 16.7793 14.1719C16.7593 14.1719 16.7393 14.1699 16.7193 14.1739C16.5973 14.1976 16.4753 14.2232 16.3514 14.245C16.2594 14.2607 16.1634 14.2647 16.0734 14.2884C15.8774 14.3417 15.6774 14.395 15.4894 14.47C15.1534 14.6022 14.8095 14.7246 14.4955 14.9002C14.0735 15.1371 13.6716 15.4114 13.2756 15.6897C12.8296 16.0016 12.3957 16.3312 11.9617 16.6608C11.6537 16.8937 11.3497 17.1326 11.0518 17.3773C10.7918 17.5924 10.5418 17.8194 10.2898 18.0425C9.96783 18.3287 9.64186 18.6149 9.32788 18.9089C9.0039 19.2149 8.68793 19.5287 8.37395 19.8445C8.11597 20.105 7.86199 20.3695 7.61201 20.638C7.30803 20.9676 7.11204 21.3604 6.97005 21.7827C6.94206 21.8676 6.91406 21.9564 6.90006 22.0452C6.87206 22.2288 6.85206 22.4124 6.83406 22.5959C6.79407 23.0005 6.84606 23.3933 7.01405 23.7644C7.14804 24.0624 7.28803 24.3585 7.44202 24.6467C7.54401 24.8381 7.664 25.0236 7.79999 25.1934C8.00798 25.452 8.28796 25.6217 8.59993 25.7342C8.68793 25.7658 8.78392 25.7796 8.89391 25.8053C8.88191 25.6947 8.86391 25.602 8.86191 25.5092C8.85791 25.3256 8.86191 25.1401 8.85991 24.9565C8.85791 24.6901 8.91591 24.4295 8.9879 24.1769C9.0879 23.8335 9.23389 23.5039 9.43587 23.2058C9.55586 23.0282 9.68985 22.8584 9.82984 22.6966C10.0778 22.4143 10.3698 22.1795 10.7018 22.0018C10.9638 21.8617 11.2397 21.7512 11.5137 21.6347C11.5917 21.6012 11.6817 21.5893 11.7677 21.5735C11.9317 21.5419 12.0957 21.4906 12.2597 21.4867C12.5656 21.4808 12.8736 21.5005 13.1796 21.5202C13.2976 21.5281 13.4156 21.5538 13.5276 21.5893C13.6936 21.6426 13.8515 21.7156 14.0155 21.7768C14.3335 21.8933 14.6215 22.065 14.8855 22.2683C15.1494 22.4716 15.3934 22.7005 15.5754 22.9828C15.6854 23.1525 15.8154 23.3144 15.9034 23.496C16.0074 23.7032 16.0794 23.9262 16.1594 24.1453C16.2674 24.4355 16.3194 24.7375 16.3134 25.0473C16.3094 25.2664 16.2974 25.4855 16.2894 25.7046C16.2834 25.8388 16.2834 25.8388 16.4233 25.8388C19.5951 25.8388 22.7649 25.8388 25.9366 25.8388C25.9606 25.8388 25.9826 25.8368 26.0066 25.8388C26.0826 25.8467 26.0866 25.8033 26.0786 25.746C26.0546 25.5724 26.0106 25.3987 26.0166 25.225C26.0266 24.9131 26.0466 24.6013 26.1426 24.2993C26.2026 24.1118 26.2506 23.9183 26.3266 23.7368C26.5426 23.2236 26.8686 22.7894 27.2905 22.4183C27.7105 22.0492 28.1925 21.8005 28.7184 21.6268C29.0324 21.5222 29.3604 21.4709 29.6944 21.4827C29.9183 21.4906 30.1443 21.4847 30.3623 21.5242C30.6123 21.5696 30.8583 21.6446 31.0963 21.7314C31.4342 21.8558 31.7462 22.0295 32.0322 22.2485C32.4622 22.5801 32.8121 22.9788 33.0601 23.4585C33.1561 23.646 33.2461 23.8374 33.3141 24.0368C33.3761 24.2184 33.4041 24.4098 33.4421 24.5993C33.4621 24.7039 33.4781 24.8105 33.4801 24.9171C33.4861 25.1026 33.4841 25.2881 33.4801 25.4737C33.4781 25.5822 33.4681 25.6888 33.4621 25.8112ZM12.6596 27.854C13.3456 27.8442 13.9995 27.5816 14.5295 27.0349C15.0635 26.4862 15.3174 25.823 15.2854 25.071C15.2274 23.7131 14.1255 22.5545 12.6416 22.5229C11.0697 22.4893 9.89984 23.7387 9.88784 25.146C9.88184 25.9592 10.1838 26.6481 10.8018 27.1869C11.3057 27.6251 11.9037 27.8501 12.6596 27.854ZM29.7644 27.8501C31.2622 27.8659 32.4302 26.6342 32.4562 25.2526C32.4862 23.6716 31.2062 22.59 29.9363 22.5229C29.1044 22.4775 28.3865 22.7479 27.8085 23.342C27.2865 23.8789 27.0446 24.5302 27.0666 25.2743C27.0886 25.9947 27.3685 26.6086 27.8905 27.106C28.4105 27.6014 29.0424 27.8442 29.7644 27.8501Z" fill="black"/>
<circle cx="21.8212" cy="21.8212" r="20.6791" stroke="#08DADE"/>
<circle cx="21.1791" cy="21.1791" r="20.6791" stroke="black"/>
</svg>
