<svg width="123" height="193" viewBox="0 0 123 193" fill="none" xmlns="http://www.w3.org/2000/svg">
<path d="M114.7 30.7C101.5 7.20002 74.4001 -4.49998 47.2001 1.60002C5.60009 10.8 -13.8999 61.5 11.1001 96.1C17.7001 105.3 26.1001 113 32.4001 122.5C45.2001 141.9 53.7001 163.1 59.6001 185.4C60.3001 187.5 60.9001 189.3 62.0001 192.6C62.8001 188.5 63.8001 184.5 64.7001 180.4C72.8001 152.1 84.8001 125.8 105.4 104.1C124.5 83.8 128.2 54.9 114.7 30.7Z" fill="#F04336"/>
<path d="M61.5 28.5C79.1 28.7 94.5 41.7 94 61.6C93.6 81.1 80 93.9 61.4 93.9C40.5 93.9 28.9 78.6 28.7 60.9C28.5 43 43.4 28.5 61.5 28.5Z" fill="#7E2D25"/>
</svg>
